<?xml version="1.0" encoding="utf-8"?>
<!-- Generator: Adobe Illustrator 22.1.0, SVG Export Plug-In . SVG Version: 6.00 Build 0)  -->
<svg version="1.1" id="Calque_1" xmlns="http://www.w3.org/2000/svg" xmlns:xlink="http://www.w3.org/1999/xlink" x="0px" y="0px"
	 viewBox="0 0 300 300" style="enable-background:new 0 0 300 300;" xml:space="preserve">
<style type="text/css">
	.st0{fill:#39696B;}
	.st1{fill:#52AA5E;}
	.st2{fill:#E4B267;}
	.st3{fill:#C46031;}
	.st4{fill:#E97539;}
	.st5{fill:#4FABDE;}
	.st6{fill:#D6A565;}
	.st7{fill:none;stroke:#1D1C1B;stroke-miterlimit:10;}
	.st8{opacity:0.31;fill:#E97539;}
	.st9{fill:#FFFFFF;}
	.st10{fill:#AD8550;}
	.st11{fill:#1D1C1B;}
	.st12{fill:#ECECEC;}
	.st13{fill:#2B2B2B;}
	.st14{fill:#F43F08;}
	.st15{fill:#C1300E;}
	.st16{fill:#BFBFBF;}
	.st17{fill:#5B2F24;}
	.st18{fill:none;stroke:#E6E7E8;stroke-width:2;stroke-miterlimit:10;}
	.st19{fill:#E6E7E8;}
	.st20{fill:#FAAF40;}
	.st21{fill:#EFEFEF;}
	.st22{opacity:0.43;fill:#EFEFEF;}
	.st23{fill:#D34E36;}
</style>
<path class="st0" d="M70.9,197.4H34.6c-1.1,0-2-0.9-2-2v-27.7c0-1.1,0.9-2,2-2h36.3c1.1,0,2,0.9,2,2v27.7
	C72.9,196.5,72,197.4,70.9,197.4z"/>
<path class="st1" d="M89.5,113.1c0-6.6-5.4-12-12-12h-50c-6.6,0-12,5.4-12,12V157c0,6.6,5.4,12,12,12h45.4c0-2.1,0-15.2,0-15.8
	l0.3-16.3v32h0.1v-48.7c0-4.1,3.6-7.5,8-7.5c4.4,0,8,3.4,8,7.5v38.2c0.1-0.5,0.1-1,0.1-1.5V113.1z"/>
<g>
	<path class="st2" d="M276,220.9c0-4.5-3.7-8.2-8.2-8.2c-4.5,0-8.2,3.7-8.2,8.2v35.4H276V220.9z"/>
	<path class="st2" d="M258.2,220.9c0-4.5-3.7-8.2-8.2-8.2c-4.5,0-8.2,3.7-8.2,8.2v35.4h16.5V220.9z"/>
	<path class="st0" d="M267.7,277.1c4.5,0,8.2-3.7,8.2-8.2v-12.6h-16.5v12.6C259.5,273.4,263.2,277.1,267.7,277.1z"/>
	<path class="st0" d="M249.9,277.1c4.5,0,8.2-3.7,8.2-8.2v-12.6h-16.5v12.6C241.7,273.4,245.4,277.1,249.9,277.1z"/>
</g>
<path class="st0" d="M283.5,225.1h-48.7c-3.1,0-7.4-3.2-6.3-6.3l12.1-34.6c0-10.5,3.6-14.6,12.5-14.6h12.5c8.9,0,9.6,5.1,11,14.3
	l12.4,33.5C288.8,221.8,286.7,225.1,283.5,225.1z"/>
<path class="st3" d="M278.4,131.5l4.1-27.4c0-11-12.4-19.2-21.3-19.2h-4.7c-8.9,0-21.1,8.5-21.1,19.5l3.3,29.1
	c0,1.9,0.3,3.6,0.7,5.2h37.9C277.9,136.4,278.4,134,278.4,131.5z"/>
<path class="st4" d="M291.6,139H225V78.8c0-18.3,14-33.6,32.3-33.6h2.9c18.3,0,31.4,15.3,31.4,33.6V139z"/>
<path class="st5" d="M281.4,120.5h-45.5c-4.2,0-7.9,2.2-10,5.4c1.4-1.4,3.4-2.3,5.6-2.3c4.2,0,7.6,3.2,7.6,7.1v49.8v3.7h42.4
	c6.6,0,12-5.4,12-12v-39.7C293.4,125.9,288,120.5,281.4,120.5z"/>
<path class="st2" d="M67.2,104.2c0,3.1-6.5,6.7-14.4,6.7s-14.4-3.7-14.4-6.7c0-3.1,6.5-4,14.4-4S67.2,101.2,67.2,104.2z"/>
<path class="st6" d="M59,108.5H46.1c-2.1,0-3.8-1.7-3.8-3.8V88.8h20.4v15.9C62.7,106.8,61,108.5,59,108.5z"/>
<path class="st2" d="M22.1,68.8c0,15.7,14,24.5,28.6,28.6h3.8c14.3-3.9,28.6-12.9,28.6-28.6v-21h-61V68.8z"/>
<path class="st7" d="M43.6,86.3c3,2.2,7.4,3.2,11.5,2.7c3.3-0.5,5.4-1.8,6.1-2.4"/>
<circle class="st8" cx="35.8" cy="80.6" r="1.7"/>
<path class="st1" d="M31.8,120.2c0-4.1-3.6-7.5-8-7.5s-8,3.4-8,7.5v53h16.1V120.2z"/>
<path class="st2" d="M23.7,185c4.4,0,8-3.4,8-7.5v-4.3H15.7v4.3C15.7,181.7,19.3,185,23.7,185z"/>
<path class="st9" d="M32.5,153.2l-0.8-16.3v32h0.8C32.6,166.9,32.6,153.8,32.5,153.2z"/>
<path class="st9" d="M73.1,153.2c0,0.6,0,13.7,0,15.8h0.3v-32L73.1,153.2z"/>
<path class="st10" d="M83.2,57.7c-0.5-0.5-1-0.9-1.7-1.3H24.7c-1.1,0.5-1.9,1.1-2.6,1.7l1.8,2.4c3.2,3.9,11.5,8,24.1,7.5
	c12.9-0.4,30.1-5.1,35-9L83.2,57.7z"/>
<circle class="st11" cx="38.5" cy="69" r="4.6"/>
<circle class="st11" cx="67.1" cy="69" r="4.6"/>
<circle class="st12" cx="36.4" cy="66.9" r="1.8"/>
<circle class="st12" cx="65" cy="66.9" r="1.8"/>
<path class="st13" d="M29.2,58.8c0.2,0-1.3-0.3-1.1-0.3c-0.8-0.5-4.1-0.9-5-0.9c-2,0-1.7,2.3-1.7,6.4c0,3,0.2,6,1.1,9.4
	c2-1.1,3.9-4.6,3.9-6.6c0-1.6,3.2-4.6,3.3-5.8C29.8,58.8,27.1,58.8,29.2,58.8z"/>
<path class="st13" d="M76.7,59.2c-0.2,0,1.3-0.4,1.1-0.3c0.8-0.6,4.1-1.2,5-1.2c2,0,1.7,2.9,1.7,8.2c0,3.8-0.6,3.3-1.4,7.7
	c-2-1.4-3.6-1.5-3.6-4.1c0-2.1-3.2-5.8-3.3-7.4C76,59.2,78.7,59.2,76.7,59.2z"/>
<g>
	<path class="st14" d="M52.8,24.5c-17.5,0-31.7,14.2-31.7,31.7h63.4C84.5,38.7,70.3,24.5,52.8,24.5z"/>
	<g>
		<path class="st15" d="M84.5,56.2c0.2,5.9-21.2,7-36.4,7.5c-15.2,0.5-26.8-1.6-27-7.5C20.9,50.3,48.4,49,54.2,49
			C69.4,49,84.3,50.3,84.5,56.2z"/>
		<ellipse class="st16" cx="52" cy="55.5" rx="9.4" ry="2.2"/>
	</g>
</g>
<path class="st0" d="M72.9,192.2c0-4.4-3.6-7.9-7.9-7.9h-2.6c-4.4,0-7.9,3.6-7.9,7.9v67.2h18.5V192.2z"/>
<path class="st0" d="M51.1,192.2c0-4.4-3.6-7.9-7.9-7.9h-2.6c-4.4,0-7.9,3.6-7.9,7.9v67.2h18.5V192.2z"/>
<path class="st14" d="M62.4,275H65c4.4,0,7.9-3.6,7.9-7.9v-7.7H54.4v7.7C54.4,271.4,58,275,62.4,275z"/>
<path class="st14" d="M40.5,275h2.6c4.4,0,7.9-3.6,7.9-7.9v-7.7H32.6v7.7C32.6,271.4,36.2,275,40.5,275z"/>
<circle class="st17" cx="52.6" cy="170.2" r="4"/>
<rect x="56.3" y="168.7" class="st17" width="16.7" height="3.3"/>
<rect x="32.6" y="168.6" class="st17" width="16.2" height="3.3"/>
<path class="st5" d="M293.3,138.4c0-3.9-3.4-7.1-7.6-7.1s-7.6,3.2-7.6,7.1v49.8h15.1V138.4z"/>
<path class="st2" d="M285.7,199.3c4.2,0,7.6-3.2,7.6-7.1v-4h-15.1v4C278.2,196.1,281.6,199.3,285.7,199.3z"/>
<path class="st9" d="M240.3,169.4l-1.4-15.3v30.1h1.5C240.4,182.2,240.3,169.9,240.3,169.4z"/>
<path class="st9" d="M276.8,169.4l1.4-15.3v30.1h-1.5C276.7,182.2,276.8,169.9,276.8,169.4z"/>
<g>
	<path class="st18" d="M134.2,115.2h14.2c2.3,0,4.2-1.9,4.2-4.2V86.8c0-2.3-1.9-4.2-4.2-4.2h-14.2c-2.3,0-4.2,1.9-4.2,4.2V111
		C130,113.3,131.9,115.2,134.2,115.2z"/>
	<path class="st19" d="M133.3,113.2H150c0.5,0,0.9-0.4,0.9-0.9v-1.2c0-0.5-0.4-0.9-0.9-0.9h-16.7c-0.5,0-0.9,0.4-0.9,0.9v1.2
		C132.4,112.8,132.8,113.2,133.3,113.2z"/>
	<path class="st20" d="M133.7,113.9H149c1.8,0,3.3-1.5,3.3-3.3V87.2c0-1.8-1.5-3.3-3.3-3.3h-15.3c-1.8,0-3.3,1.5-3.3,3.3v23.5
		C130.4,112.4,131.8,113.9,133.7,113.9z"/>
	<path class="st18" d="M123.1,106.4h3.2c1.3,0,2.4-1.1,2.4-2.4v-9.5c0-1.3-1.1-2.4-2.4-2.4h-3.2c-1.3,0-2.4,1.1-2.4,2.4v9.5
		C120.6,105.3,121.7,106.4,123.1,106.4z"/>
	<ellipse class="st21" cx="150.9" cy="82.2" rx="8" ry="6.4"/>
	<circle class="st21" cx="140.6" cy="77.7" r="5.7"/>
	<ellipse class="st21" cx="134.1" cy="81.5" rx="6.5" ry="4.7"/>
	<ellipse class="st21" cx="145.4" cy="75.1" rx="5.5" ry="5.2"/>
	<ellipse class="st21" cx="134.9" cy="76.1" rx="5.3" ry="4.1"/>
	<ellipse class="st21" cx="140.1" cy="84.1" rx="4.8" ry="2.6"/>
	<path class="st22" d="M135.8,111.2h0.7c0.3,0,0.5-0.2,0.5-0.5v-21c0-0.3-0.2-0.5-0.5-0.5h-0.7c-0.3,0-0.5,0.2-0.5,0.5v21
		C135.3,110.9,135.5,111.2,135.8,111.2z"/>
	<path class="st22" d="M146,111.3h0.7c0.3,0,0.5-0.2,0.5-0.5v-21c0-0.3-0.2-0.5-0.5-0.5H146c-0.3,0-0.5,0.2-0.5,0.5v21
		C145.5,111.1,145.7,111.3,146,111.3z"/>
</g>
<path class="st5" d="M223.9,130.6v1.8c0-2.4,0.7-4.7,2-6.6C224.6,127.1,223.9,128.8,223.9,130.6z"/>
<g>
	<path class="st5" d="M241.6,134.5c2-0.7,2.6-4.5,1.2-8.5c-1.4-3.9-4.2-6.5-6.3-5.8l-26.3,9.4l5.1,14.2L241.6,134.5z"/>
	<path class="st2" d="M207,138.9c1.4,3.9,4.2,6.5,6.3,5.8l2.1-0.8l-5.1-14.2l-2.1,0.8C206.1,131.1,205.6,134.9,207,138.9z"/>
</g>
<g>
	<path class="st2" d="M277.1,128.9c0,7.1-8.3,15.7-18.5,15.7s-18.5-8.6-18.5-15.7c0-7.1,8.3-9.3,18.5-9.3S277.1,121.8,277.1,128.9z"
		/>
	<path class="st6" d="M264.5,127.3h-11.6c-2.1,0-3.8-1.7-3.8-3.8v-14.7h19.1v14.7C268.2,125.7,266.5,127.3,264.5,127.3z"/>
	<path class="st2" d="M230.1,90c0,14.8,13.1,23.1,26.9,26.9h3.6c13.4-3.6,26.9-12.1,26.9-26.9V70.3h-57.3V90z"/>
	<ellipse transform="matrix(0.9709 -0.2394 0.2394 0.9709 -9.033 63.4964)" class="st4" cx="256.9" cy="68.9" rx="30.9" ry="10.8"/>
	<ellipse transform="matrix(0.9825 -0.1861 0.1861 0.9825 -9.6247 54.7007)" class="st4" cx="286.5" cy="78.6" rx="3.6" ry="18.5"/>
	<g>
		<circle class="st8" cx="241.8" cy="98.5" r="1.6"/>
		<circle class="st8" cx="243.4" cy="101.1" r="0.7"/>
		<circle class="st8" cx="244.8" cy="99.2" r="1.1"/>
	</g>
	<g>
		<circle class="st8" cx="274.1" cy="99.8" r="1.6"/>
		<circle class="st8" cx="276.8" cy="98.4" r="0.7"/>
		<circle class="st8" cx="274.9" cy="96.8" r="1.1"/>
	</g>
	<circle class="st11" cx="245.4" cy="90.3" r="4.3"/>
	<circle class="st11" cx="272.3" cy="90.3" r="4.3"/>
	<circle class="st12" cx="243.4" cy="88.3" r="1.7"/>
	<circle class="st12" cx="270.3" cy="88.3" r="1.7"/>
	<path class="st7" d="M253.4,106.5c2.1,1.5,5.1,2.2,8,1.8c2.3-0.3,3.7-1.3,4.2-1.7"/>
</g>
<g>
	<path class="st18" d="M182.9,132.5h-15.2c-2.3,0-4.2-1.9-4.2-4.2v-25.6c0-2.3,1.9-4.2,4.2-4.2h15.2c2.3,0,4.2,1.9,4.2,4.2v25.6
		C187.1,130.6,185.2,132.5,182.9,132.5z"/>
	<path class="st19" d="M183.7,130.5h-17.5c-0.5,0-0.9-0.4-0.9-0.9v-1.3c0-0.5,0.4-0.9,0.9-0.9h17.5c0.5,0,0.9,0.4,0.9,0.9v1.3
		C184.6,130.1,184.2,130.5,183.7,130.5z"/>
	<path class="st23" d="M183.4,131.2h-16.2c-1.8,0-3.3-1.5-3.3-3.3v-24.8c0-1.8,1.5-3.3,3.3-3.3h16.2c1.8,0,3.3,1.5,3.3,3.3v24.8
		C186.7,129.8,185.2,131.2,183.4,131.2z"/>
	<path class="st18" d="M194.4,123.4h-3.6c-1.3,0-2.4-1.1-2.4-2.4v-10.1c0-1.3,1.1-2.4,2.4-2.4h3.6c1.3,0,2.4,1.1,2.4,2.4V121
		C196.9,122.3,195.8,123.4,194.4,123.4z"/>
	<ellipse class="st21" cx="165.3" cy="98.1" rx="8.3" ry="6.7"/>
	<circle class="st21" cx="176" cy="93.4" r="6"/>
	<ellipse class="st21" cx="182.8" cy="97.4" rx="6.8" ry="4.9"/>
	<ellipse class="st21" cx="171" cy="90.7" rx="5.8" ry="5.5"/>
	<ellipse class="st21" cx="182" cy="91.8" rx="5.6" ry="4.3"/>
	<ellipse class="st21" cx="176.6" cy="100.1" rx="5" ry="2.7"/>
	<path class="st22" d="M181,128.4h-0.8c-0.3,0-0.5-0.2-0.5-0.5v-22c0-0.3,0.2-0.5,0.5-0.5h0.8c0.3,0,0.5,0.2,0.5,0.5v22
		C181.6,128.1,181.3,128.4,181,128.4z"/>
	<path class="st22" d="M170.4,128.5h-0.8c-0.3,0-0.5-0.2-0.5-0.5v-22c0-0.3,0.2-0.5,0.5-0.5h0.8c0.3,0,0.5,0.2,0.5,0.5v22
		C170.9,128.3,170.7,128.5,170.4,128.5z"/>
</g>
<path class="st2" d="M190.9,115.6c-2.9,3-3.9,6.7-2.3,8.2l1.6,1.5l10.4-11l-1.6-1.5C197.4,111.3,193.8,112.5,190.9,115.6z"/>
<path class="st5" d="M210.3,144.4c1.6,1.5,5.2,0.3,8.1-2.8c2.9-3,3.9-6.7,2.3-8.2l-20.3-19.2l-10.4,11L210.3,144.4z"/>
<path class="st5" d="M241.4,139.4c0-3.3-2.7-6-6-6c-2.4,0-4.4,1.4-5.4,3.4c1-0.9,2.4-1.4,3.9-1.4c3.3,0,6,2.7,6,6
	c0,0.9-0.2,1.8-0.6,2.6C240.6,142.9,241.4,141.2,241.4,139.4z"/>
<g>
	<g>
		<path class="st1" d="M77.1,117c-2-0.8-2.6-4.8-1.2-9c1.4-4.2,4.2-7,6.3-6.2l26.3,10l-5.1,15.2L77.1,117z"/>
		<path class="st1" d="M111.8,121.6c-1.4,4.2-4.2,7-6.3,6.2l-2.1-0.8l5.1-15.2l2.1,0.8C112.6,113.4,113.2,117.4,111.8,121.6z"/>
	</g>
	<path class="st1" d="M71.5,120.6c0-3.5,2.7-6.4,6-6.4c2.4,0,4.4,1.5,5.4,3.6c-1-1-2.4-1.5-3.9-1.5c-3.3,0-6,2.9-6,6.4
		c0,1,0.2,2,0.6,2.8C72.3,124.3,71.5,122.6,71.5,120.6z"/>
</g>
<g>
	<path class="st2" d="M128.2,98.5c2.9,3,3.9,6.7,2.3,8.2l-1.6,1.5l-10.4-11l1.6-1.5C121.8,94.2,125.4,95.4,128.2,98.5z"/>
	<path class="st1" d="M108.7,127.4c-1.6,1.5-5.2,0.3-8.1-2.8s-3.9-6.7-2.3-8.2l20.3-19.2l10.4,11L108.7,127.4z"/>
</g>
<polygon class="st9" points="94.7,123.7 85,120 85.4,167.7 97.9,167.7 "/>
</svg>
