<?xml version="1.0" encoding="utf-8"?>
<!-- Generator: Adobe Illustrator 22.1.0, SVG Export Plug-In . SVG Version: 6.00 Build 0)  -->
<svg version="1.1" id="Calque_1" xmlns="http://www.w3.org/2000/svg" xmlns:xlink="http://www.w3.org/1999/xlink" x="0px" y="0px"
	 viewBox="0 0 500 500" style="enable-background:new 0 0 500 500;" xml:space="preserve">
<style type="text/css">
	.st0{fill:#FAAF40;}
	.st1{fill:none;stroke:#B6B6B7;stroke-width:11;stroke-miterlimit:10;}
	.st2{fill:#B6B6B7;}
	.st3{fill:none;stroke:#B6B6B7;stroke-width:9;stroke-miterlimit:10;}
	.st4{opacity:0.43;fill:#EFEFEF;}
	.st5{fill:#D6A672;}
	.st6{fill:none;stroke:#A07A55;stroke-width:4;stroke-miterlimit:10;}
	.st7{fill:#444444;}
	.st8{fill:none;}
	.st9{font-family:'Roboto-Regular';}
	.st10{font-size:37.042px;}
</style>
<g>
	<path class="st0" d="M201.4,303.1c-0.8,10.9-35.9,1.1-41.3,7.7c-0.9,1.1-23-0.1-22-1c22-20,18.7-39.9,21.3-74.2
		c3.4-45.3,10.1-47.4,66-77.5c10.2-5.5,21.6,4.1,30.5,14.1c1.6,1.8,0.2,4.6-2.2,4.4c0,0-0.1,0-0.1,0
		C225.2,174.4,205.9,242.9,201.4,303.1z"/>
	<g>
		<path class="st1" d="M371.9,53.1l12,99.7c0.4,3.3-2,6.3-5.2,6.7l-148.5,17.9c-3.3,0.4-6.3-2-6.7-5.2l-12-99.7
			c-0.4-3.3,2-6.3,5.2-6.7l148.5-17.9C368.5,47.5,371.5,49.8,371.9,53.1z"/>
		<path class="st2" d="M370.7,51.1l12.7,105.1c0.3,2.1-1.3,4.1-3.4,4.3l-6.8,0.8c-2.1,0.3-4.1-1.3-4.3-3.4L356.2,52.9
			c-0.3-2.1,1.3-4.1,3.4-4.3l6.8-0.8C368.6,47.5,370.5,49,370.7,51.1z"/>
		<path class="st0" d="M362.4,56.2l10.9,90.6c0.8,6.2-3.7,12-10,12.7l-130.9,15.8c-2.6,0.3-4-7.5-4.7-12.5c-0.3-2,0.5-4,2.2-5.2
			l45-33.2c1.1-0.8,2-2,2.3-3.4c0.4-2.2,2-4,4.1-4.6c0.8-0.3,1.5-0.6,2.2-1.2l55.3-37.1c3-2.7,22.7-26.5,23.6-22.5
			C362.4,55.7,362.4,55.9,362.4,56.2z"/>
		<path class="st3" d="M324.1,19.3l2.3,18.8c0.7,5.8-3.5,11.1-9.3,11.8l-49.7,6c-5.8,0.7-11.1-3.5-11.8-9.3l-2.3-18.8
			c-0.7-5.8,3.5-11.1,9.3-11.8l49.7-6C318,9.3,323.4,13.5,324.1,19.3z"/>
		<path class="st4" d="M355,78l0.5,4c0.1,1.2-0.7,2.4-2,2.5L249.3,97.1c-1.2,0.1-2.4-0.7-2.5-2l-0.5-4c-0.1-1.2,0.7-2.4,2-2.5
			l104.1-12.6C353.7,75.9,354.8,76.8,355,78z"/>
		<path class="st4" d="M361.6,128.2l0.5,4c0.1,1.2-0.7,2.4-2,2.5L256,147.2c-1.2,0.1-2.4-0.7-2.5-2l-0.5-4c-0.1-1.2,0.7-2.4,2-2.5
			l104.1-12.6C360.3,126,361.5,126.9,361.6,128.2z"/>
	</g>
</g>
<path class="st0" d="M228.7,313.2c0-3.8-3.8-6.9-8.4-6.9l-1,0.4c-6.1,2.4-13.1,2.7-19.5,0.8l-4.2-1.2c-8.3,0-16.5,0.5-24.7,1.4
	l-2.9,0.3c-10.5,1.2-21.1,1.8-31.7,1.8h-10.1c-7,0-14.1-0.3-21-1.4c-4.2-0.7-6.5,1.9-6.5,4.9v6.9h129.9V313.2z"/>
<g>
	<path class="st5" d="M74.6,394c0,33,10,62.9,26.3,84.5h125.7c16.2-21.6,26.3-51.5,26.3-84.5c0-31.9-9.4-60.8-24.6-82.2H99.2
		C84,333.2,74.6,362.1,74.6,394z"/>
	<path class="st6" d="M121.6,311.8c-7.9,25.2-18.1,70.9-5.2,123.7c4,16.5,10.2,30.9,16,43"/>
	<path class="st6" d="M208.6,311.8c7.9,25.2,18.1,70.9,5.2,123.7c-4,16.5-9.6,30.9-15.5,43"/>
	<line class="st6" x1="164.9" y1="311.8" x2="167.2" y2="478.5"/>
	<polygon class="st7" points="243.6,341.9 83.9,341.9 88.5,330.3 239,330.3 	"/>
	<polygon class="st7" points="243.6,446 83.9,446 88.5,457.6 239,457.6 	"/>
</g>
<rect x="124.7" y="375.8" class="st8" width="101.1" height="33.2"/>
<text transform="matrix(1 0 0 1 124.6817 403.601)" class="st7 st9 st10">100 L </text>
</svg>
