<?xml version="1.0" encoding="utf-8"?>
<!-- Generator: Adobe Illustrator 22.1.0, SVG Export Plug-In . SVG Version: 6.00 Build 0)  -->
<svg version="1.1" id="Calque_1" xmlns="http://www.w3.org/2000/svg" xmlns:xlink="http://www.w3.org/1999/xlink" x="0px" y="0px"
	 viewBox="0 0 300 300" style="enable-background:new 0 0 300 300;" xml:space="preserve">
<style type="text/css">
	.st0{fill:none;stroke:#B6B6B7;stroke-width:5;stroke-miterlimit:10;}
	.st1{fill:#E6E7E8;}
	.st2{fill:#D34E36;}
	.st3{fill:#E2D3D3;}
	.st4{opacity:0.43;fill:#F0EFEF;}
	.st5{fill:#FBB040;}
	.st6{fill:none;stroke:#58595B;stroke-miterlimit:10;}
	.st7{fill:#565656;}
	.st8{fill:#3D3D3D;}
</style>
<path class="st0" d="M259.5,260.9h-31.9c-2.3,0-4.2-1.9-4.2-4.2v-49.6c0-2.3,1.9-4.2,4.2-4.2h31.9c2.3,0,4.2,1.9,4.2,4.2v49.6
	C263.7,259,261.8,260.9,259.5,260.9z"/>
<path class="st1" d="M258.5,257.4h-31.2c-0.5,0-0.9-0.4-0.9-0.9V253c0-0.5,0.4-0.9,0.9-0.9h31.2c0.5,0,0.9,0.4,0.9,0.9v3.5
	C259.4,257,259,257.4,258.5,257.4z"/>
<path class="st2" d="M259.8,258.7h-32.4c-1.8,0-3.3-1.5-3.3-3.3v-47c0-1.8,1.5-3.3,3.3-3.3h32.4c1.8,0,3.3,1.5,3.3,3.3v47
	C263,257.2,261.6,258.7,259.8,258.7z"/>
<path class="st0" d="M278,245.3h-9.5c-1.3,0-2.4-1.1-2.4-2.4v-20.7c0-1.3,1.1-2.4,2.4-2.4h9.5c1.3,0,2.4,1.1,2.4,2.4v20.7
	C280.4,244.2,279.3,245.3,278,245.3z"/>
<ellipse class="st3" cx="226.4" cy="202.1" rx="14.2" ry="11.4"/>
<circle class="st3" cx="244.8" cy="194.1" r="10.2"/>
<ellipse class="st3" cx="256.4" cy="200.9" rx="11.6" ry="8.4"/>
<ellipse class="st3" cx="236.3" cy="189.5" rx="9.8" ry="9.3"/>
<ellipse class="st3" cx="255" cy="191.3" rx="9.5" ry="7.4"/>
<ellipse class="st3" cx="245.7" cy="205.6" rx="8.5" ry="4.6"/>
<path class="st4" d="M253.7,253.7h-2c-0.3,0-0.5-0.2-0.5-0.5V215c0-0.3,0.2-0.5,0.5-0.5h2c0.3,0,0.5,0.2,0.5,0.5v38.2
	C254.2,253.5,254,253.7,253.7,253.7z"/>
<path class="st4" d="M235.6,254h-2c-0.3,0-0.5-0.2-0.5-0.5v-38.2c0-0.3,0.2-0.5,0.5-0.5h2c0.3,0,0.5,0.2,0.5,0.5v38.2
	C236.1,253.7,235.9,254,235.6,254z"/>
<path class="st0" d="M66.9,136.3H35c-2.3,0-4.2-1.9-4.2-4.2V82.5c0-2.3,1.9-4.2,4.2-4.2h31.9c2.3,0,4.2,1.9,4.2,4.2v49.6
	C71.1,134.4,69.2,136.3,66.9,136.3z"/>
<path class="st1" d="M65.9,132.8H34.7c-0.5,0-0.9-0.4-0.9-0.9v-3.5c0-0.5,0.4-0.9,0.9-0.9h31.2c0.5,0,0.9,0.4,0.9,0.9v3.5
	C66.7,132.4,66.3,132.8,65.9,132.8z"/>
<path class="st5" d="M67.4,134.1h-33c-1.7,0-3-1.4-3-3V83.5c0-1.7,1.4-3,3-3h33c1.7,0,3,1.3,3,3v47.6
	C70.4,132.7,69.1,134.1,67.4,134.1z"/>
<path class="st0" d="M85.3,120.7h-9.5c-1.3,0-2.4-1.1-2.4-2.4V97.5c0-1.3,1.1-2.4,2.4-2.4h9.5c1.3,0,2.4,1.1,2.4,2.4v20.7
	C87.8,119.6,86.7,120.7,85.3,120.7z"/>
<ellipse class="st3" cx="33.8" cy="77.5" rx="14.2" ry="11.4"/>
<circle class="st3" cx="52.2" cy="69.6" r="10.2"/>
<ellipse class="st3" cx="63.8" cy="76.4" rx="11.6" ry="8.4"/>
<ellipse class="st3" cx="43.6" cy="64.9" rx="9.8" ry="9.3"/>
<ellipse class="st3" cx="62.4" cy="66.7" rx="9.5" ry="7.4"/>
<ellipse class="st3" cx="53.1" cy="81" rx="8.5" ry="4.6"/>
<path class="st4" d="M61.1,129.2h-2c-0.3,0-0.5-0.2-0.5-0.5V90.5c0-0.3,0.2-0.5,0.5-0.5h2c0.3,0,0.5,0.2,0.5,0.5v38.2
	C61.6,129,61.4,129.2,61.1,129.2z"/>
<path class="st4" d="M43,129.4h-2c-0.3,0-0.5-0.2-0.5-0.5V90.7c0-0.3,0.2-0.5,0.5-0.5h2c0.3,0,0.5,0.2,0.5,0.5v38.2
	C43.5,129.2,43.2,129.4,43,129.4z"/>
<line class="st6" x1="282.7" y1="260.9" x2="244.9" y2="150"/>
<line class="st6" x1="245.1" y1="150.5" x2="203.1" y2="260.6"/>
<path class="st7" d="M242.9,276.7c22.9,0.1,41.4-7.3,41.5-16.6l-82.8-0.4C201.5,269,220,276.6,242.9,276.7z"/>
<circle class="st8" cx="146.8" cy="92.9" r="12.2"/>
<polygon class="st7" points="148.4,104.1 246.1,155.8 250.3,149.4 158.7,88.6 "/>
<g>
	<line class="st6" x1="92" y1="136" x2="53.7" y2="25.2"/>
	<line class="st6" x1="53.9" y1="25.8" x2="12.5" y2="136"/>
	<path class="st7" d="M52.3,152c22.9,0,41.4-7.5,41.4-16.8H10.9C10.9,144.5,29.4,152,52.3,152z"/>
</g>
<polygon class="st7" points="136.1,96 50,26.7 54.2,20.3 146.3,80.4 "/>
</svg>
