<?xml version="1.0" encoding="utf-8"?>
<!-- Generator: Adobe Illustrator 22.1.0, SVG Export Plug-In . SVG Version: 6.00 Build 0)  -->
<svg version="1.1" id="Calque_4_Image" xmlns="http://www.w3.org/2000/svg" xmlns:xlink="http://www.w3.org/1999/xlink" x="0px"
	 y="0px" viewBox="0 0 585.9 668.1" style="enable-background:new 0 0 585.9 668.1;" xml:space="preserve">
<style type="text/css">
	.st0{opacity:0.31;}
	.st1{fill:#2C62AC;}
</style>
<g>
	<circle class="st0" cx="473.3" cy="446.6" r="1.9"/>
	<path d="M440.7,479.7c3-3.8,2.2-9.5-1.8-12.7c-4-3.2-9.8-2.8-12.8,1l-38.7,48.2l14.6,11.8L440.7,479.7z"/>
	<path d="M386,532.7c4,3.2,9.8,2.8,12.8-1l3.1-3.9l-14.6-11.8l-3.1,3.9C381.2,523.7,382,529.5,386,532.7z"/>
	<circle cx="484.1" cy="438" r="5.3"/>
	<circle cx="483.8" cy="434.6" r="2.1"/>
	<path d="M483.1,422c0.2,0.1-0.9-1.2-0.8-1c-0.3-1-3.1-3.8-3.9-4.5c-1.9-1.5-3.2,0.9-6.2,4.6c-2.2,2.7-4.2,5.6-5.9,9.3
		c2.7,0.5,6.9-1.3,8.4-3.2c1.2-1.5,6.2-1.8,7.2-2.9C483.7,422.5,481.3,420.5,483.1,422z"/>
	<path d="M526.1,457c-0.2-0.1,1.4,0.6,1.2,0.5c1.1,0,4.6,1.9,5.4,2.6c1.9,1.5-0.6,3.9-4.5,8.7c-2.8,3.5-3,2.6-6.9,5.9
		c-0.8-2.8-2.1-4-0.2-6.4c1.5-1.9,1.3-7.6,2.4-9.1C525.5,456.5,527.9,458.5,526.1,457z"/>
	<path d="M448.2,558.6l-48.5-39c-5.1-4.1-6-11.7-1.8-16.9l34.5-42.9c4.1-5.1,11.7-6,16.9-1.8l48.5,39c5.1,4.1,6,11.7,1.8,16.9
		l-34.5,42.9C461,561.9,453.4,562.7,448.2,558.6z"/>
	<path d="M484.5,491c-2.2,2.8-10.8,1.4-18-4.4s-10.4-13.9-8.2-16.6c2.2-2.8,8.8,1.1,16,6.9C481.6,482.7,486.7,488.2,484.5,491z"/>
	<path d="M474.5,489.2l-12.6-10.2c-1.6-1.3-1.9-3.7-0.6-5.3l12-14.9l18.5,14.9l-12,14.9C478.4,490.3,476.1,490.5,474.5,489.2z"/>
	<path d="M469.5,425.9c-11.5,14.3-5.2,32.5,5.1,46.8l3.5,2.8c15.8,6.9,35.4,9.2,46.8-5.1l15.3-19.1l-55.4-44.5L469.5,425.9z"/>
	<path d="M533,460.4c-0.1-0.8-0.3-1.6-0.5-2.5l-51.6-41.4c-1.4-0.3-2.6-0.4-3.6-0.3l-0.1,3.5c0.1,5.9,4.6,15.6,16.4,24.5
		c12.1,9,31.1,17.3,38.3,17.4L533,460.4z"/>
	<circle cx="510.1" cy="458.9" r="5.3"/>
	<circle cx="509.8" cy="455.5" r="2.1"/>
	<g>
		<path d="M529.6,408c-15.9-12.8-39.2-10.2-52,5.7l57.6,46.3C548.1,444.1,545.5,420.8,529.6,408z"/>
		<g>
			<path d="M535.3,460c-4.2,5.5-24.3-9.1-38.6-19.7c-14.2-10.6-23.2-21-19.1-26.6c4.2-5.5,30.1,13.4,35.4,17.6
				C526.9,442.5,539.4,454.4,535.3,460z"/>
			<ellipse transform="matrix(0.6263 -0.7796 0.7796 0.6263 -150.404 557.5513)" cx="506.4" cy="435.7" rx="2.5" ry="10.9"/>
		</g>
	</g>
	<rect x="393.6" y="526.5" transform="matrix(0.7796 0.6263 -0.6263 0.7796 423.2388 -137.3528)" width="26.3" height="12.3"/>
</g>
<circle class="st0" cx="374.8" cy="407.9" r="1.9"/>
<circle cx="381.9" cy="396" r="5.3"/>
<circle cx="380.3" cy="392.9" r="2.1"/>
<path d="M375.2,381.3c0.2,0.1-1.3-0.8-1.1-0.7c-0.7-0.8-4.2-2.5-5.2-2.8c-2.3-0.7-2.7,2-4.2,6.5c-1.1,3.3-1.9,6.8-2.2,10.8
	c2.7-0.5,6-3.7,6.8-6c0.6-1.8,5.2-3.9,5.7-5.3C376,381.6,373,380.6,375.2,381.3z"/>
<path d="M427.8,398.7c-0.2-0.1,1.5,0,1.3,0c1.1-0.4,5,0.2,6,0.5c2.3,0.7,0.8,3.9-1.1,9.7c-1.4,4.2-1.8,3.5-4.3,8
	c-1.8-2.3-3.4-3-2.5-5.9c0.7-2.3-1.5-7.6-1-9.4C427.1,398.5,430.1,399.4,427.8,398.7z"/>
<path d="M395.5,508.6l-59.2-19.1c-6.3-2-9.8-8.8-7.7-15.1l12.8-39.5c2-6.3,8.8-9.8,15.1-7.7l59.2,19.1c6.3,2,9.8,8.8,7.7,15.1
	l-12.8,39.5C408.6,507.1,401.8,510.6,395.5,508.6z"/>
<path d="M401.1,445.3c-1.1,3.4-9.6,5.2-18.4,2.3c-8.8-2.9-14.7-9.2-13.6-12.6s8.6-2.1,17.4,0.8C395.4,438.6,402.2,441.9,401.1,445.3
	z"/>
<path d="M391.1,447.2l-15.4-5c-2-0.6-3.1-2.8-2.4-4.7l5.9-18.2l22.6,7.3l-5.9,18.2C395.2,446.8,393.1,447.9,391.1,447.2z"/>
<path d="M363.9,389.8c-5.6,17.4,6.7,32.2,21.5,41.9l4.3,1.4c17.2,0.8,36.3-4,41.9-21.5l7.5-23.3l-67.7-21.8L363.9,389.8z"/>
<path d="M435.5,399.5c-0.3-0.7-0.8-1.4-1.4-2.1l-63-20.3c-1.4,0.2-2.5,0.5-3.5,1l1.1,3.3c2.2,5.4,9.9,12.9,24.1,17
	c14.5,4.1,35.2,5.1,42,2.6L435.5,399.5z"/>
<circle cx="413.6" cy="406.2" r="5.3"/>
<circle cx="412" cy="403.1" r="2.1"/>
<g>
	<path d="M413.7,351.7c-19.4-6.3-40.3,4.4-46.5,23.8l70.3,22.7C443.8,378.8,433.1,358,413.7,351.7z"/>
	<g>
		<path d="M437.5,398.2c-1.9,6.7-26,0.2-43.1-4.7c-17.1-4.9-29.2-11.4-27.3-18c1.9-6.7,33,1.8,39.3,3.9
			C423.4,384.9,439.4,391.6,437.5,398.2z"/>
		<ellipse transform="matrix(0.3072 -0.9516 0.9516 0.3072 -88.8048 649.6451)" cx="401.8" cy="385.8" rx="2.5" ry="10.9"/>
	</g>
</g>
<circle class="st0" cx="193" cy="425.9" r="1.9"/>
<path d="M201.2,471.6c-1.3-4.6-6.5-7.2-11.4-5.8s-7.9,6.4-6.6,11l17.1,59.4l18-5.2L201.2,471.6z"/>
<path d="M212.7,508.2l-6.1-18l10.4,35.9l0.9-0.3C217.2,523.5,212.9,508.9,212.7,508.2z"/>
<path d="M258,495.2l-4.9-18.3l10.4,35.9l-0.4,0.1C262.4,510.5,258.2,495.8,258,495.2z"/>
<circle cx="192.1" cy="412.1" r="5.3"/>
<circle cx="189.1" cy="410.4" r="2.1"/>
<path d="M178.5,403.6c0.2-0.1-1.5,0.1-1.3,0.1c-1-0.3-4.9,0.3-5.9,0.6c-2.3,0.7-1.1,3.1,0.2,7.8c1,3.4,2.2,6.7,4.2,10.2
	c1.9-1.9,2.9-6.4,2.3-8.7c-0.5-1.8,2.1-6.1,1.8-7.6C179.2,403.4,176.2,404.3,178.5,403.6z"/>
<path d="M231.8,388.7c-0.2,0.1,1.3-0.8,1.1-0.7c0.7-0.9,4.2-2.6,5.2-2.9c2.3-0.7,2.8,2.8,4.5,8.6c1.2,4.3,0.4,3.9,0.9,9
	c-2.8-1-4.5-0.6-5.4-3.5c-0.7-2.3-5.5-5.5-6-7.2C231.1,388.9,234.1,388,231.8,388.7z"/>
<circle cx="240.7" cy="520.8" r="4.6"/>
<path d="M263.2,512.8L210.3,528c-6.3,1.8-13-1.9-14.9-8.2L180.2,467c-1.8-6.3,1.9-13,8.2-14.9l52.9-15.3c6.3-1.8,13,1.9,14.9,8.2
	l15.3,52.9C273.3,504.3,269.6,510.9,263.2,512.8z"/>
<path d="M235.7,442.2c1,3.4-5,9.6-14,12.2s-17.3,0.5-18.3-2.9s5.9-6.5,14.9-9.1S234.7,438.8,235.7,442.2z"/>
<path d="M228.5,449.4l-15.6,4.5c-2,0.6-4.1-0.6-4.6-2.6l-5.3-18.4l22.8-6.6l5.3,18.4C231.6,446.8,230.5,448.8,228.5,449.4z"/>
<path d="M173.8,417c5.1,17.6,23.6,23,41.2,22.8l4.3-1.2c14.8-8.9,27.9-23.6,22.8-41.2l-6.8-23.5L167,393.5L173.8,417z"/>
<path d="M238.6,385c-0.7-0.4-1.4-0.7-2.3-1l-63.6,18.3c-1,0.9-1.8,1.8-2.3,2.7l2.8,2.1c4.8,3.3,15.5,5.2,29.5,0.6
	c14.3-4.7,32.1-15.4,36.2-21.3L238.6,385z"/>
<circle cx="224.2" cy="402.8" r="5.3"/>
<circle cx="221.1" cy="401.1" r="2.1"/>
<g>
	<path d="M193.8,357.6c-19.6,5.7-30.9,26.1-25.3,45.8l71-20.5C233.9,363.2,213.4,351.9,193.8,357.6z"/>
	<g>
		<path d="M239.5,382.8c2.1,6.6-21.4,14.7-38.3,20.2c-16.9,5.5-30.5,6.9-32.7,0.3s28.3-16.9,34.8-18.8
			C220.4,379.6,237.4,376.3,239.5,382.8z"/>
		<ellipse transform="matrix(0.9608 -0.2773 0.2773 0.9608 -100.8844 71.6836)" cx="203" cy="392.5" rx="10.9" ry="2.5"/>
	</g>
</g>
<rect x="244.4" y="515.1" transform="matrix(0.9608 -0.2773 0.2773 0.9608 -133.409 90.7567)" width="19.5" height="3.8"/>
<rect x="217.9" y="522.7" transform="matrix(0.9608 -0.2773 0.2773 0.9608 -136.5658 83.6275)" width="18.9" height="3.8"/>
<path d="M173.2,459.6c-2.9-3.8-8.7-4.4-12.8-1.3s-5.1,8.8-2.2,12.7l37.5,49.2l14.9-11.4L173.2,459.6z"/>
<path d="M211.6,525.3c4.1-3.1,5.1-8.8,2.2-12.7l-3-3.9l-14.9,11.4l3,3.9C201.7,527.9,207.5,528.5,211.6,525.3z"/>
<circle class="st0" cx="95.6" cy="460.7" r="1.9"/>
<path d="M119.8,500.3c-2.9-3.8-8.7-4.4-12.8-1.3s-5.1,8.8-2.2,12.7l37.5,49.2l14.9-11.4L119.8,500.3z"/>
<path d="M158.1,566.1c4.1-3.1,5.1-8.8,2.2-12.7l-3-3.9l-14.9,11.4l3,3.9C148.2,568.6,154,569.2,158.1,566.1z"/>
<path d="M143.8,530.3l-12.2-14.5l22.6,29.7l0.8-0.6C153.5,542.9,144.2,530.9,143.8,530.3z"/>
<path d="M181.3,501.7L170,486.5l22.6,29.7l-0.3,0.2C190.9,514.5,181.7,502.3,181.3,501.7z"/>
<circle cx="89.8" cy="448.1" r="5.3"/>
<circle cx="86.4" cy="447.6" r="2.1"/>
<path d="M74,445.2c0.2-0.1-1.4,0.6-1.2,0.5c-1,0.1-4.5,2-5.3,2.7c-1.9,1.4,0.1,3.3,3,7.2c2.1,2.8,4.5,5.4,7.6,8
	c1.1-2.5,0.4-7.1-1-8.9c-1.1-1.5-0.3-6.5-1.1-7.7C74.6,444.7,72.1,446.6,74,445.2z"/>
<path d="M118.3,411.9c-0.2,0.1,0.9-1.2,0.8-1.1c0.3-1.1,3-4,3.8-4.6c1.9-1.4,3.6,1.5,7.3,6.4c2.7,3.5,1.8,3.5,4.1,8.1
	c-2.9,0.1-4.4,1.1-6.3-1.3c-1.5-1.9-7.1-3.1-8.2-4.5C117.7,412.4,120.2,410.5,118.3,411.9z"/>
<circle cx="174.4" cy="531.9" r="4.6"/>
<path d="M198.2,511.9l-49.5,37.7c-5.3,4-12.8,3-16.8-2.3l-33.4-43.8c-4-5.3-3-12.8,2.3-16.8l49.5-37.7c5.3-4,12.8-3,16.8,2.3
	l33.4,43.8C204.5,500.4,203.5,507.9,198.2,511.9z"/>
<path d="M141.3,460.5c2.2,2.8-1.2,10.8-8.6,16.4c-7.4,5.6-16,6.8-18.1,3.9c-2.2-2.8,3.2-8.2,10.6-13.9
	C132.5,461.3,139.2,457.6,141.3,460.5z"/>
<path d="M137.2,469.8l-12.9,9.8c-1.6,1.3-4,0.9-5.3-0.7l-11.6-15.2l18.9-14.4l11.6,15.2C139.1,466.2,138.8,468.5,137.2,469.8z"/>
<path d="M74.5,459.4c11.1,14.6,30.3,12.9,46.7,6.3l3.6-2.7c10.5-13.7,17.4-32.1,6.3-46.7l-14.8-19.5l-56.6,43.1L74.5,459.4z"/>
<path d="M123.3,406.1c-0.8-0.1-1.6-0.1-2.5-0.1l-52.6,40.1c-0.6,1.2-1,2.4-1.2,3.4l3.4,1c5.7,1.3,16.3-0.7,27.7-10.1
	c11.7-9.5,24.3-26,26.1-33L123.3,406.1z"/>
<circle cx="116.3" cy="427.9" r="5.3"/>
<circle cx="112.9" cy="427.4" r="2.1"/>
<g>
	<path d="M71.6,396.7c-16.2,12.4-19.4,35.6-7,51.8l58.8-44.8C111.1,387.5,87.9,384.3,71.6,396.7z"/>
	<g>
		<path d="M123.4,403.7c4.4,5.4-14.7,21.4-28.4,32.7c-13.8,11.2-26,17.5-30.4,12.1c-4.4-5.4,20.3-26,25.6-30.1
			C104.4,407.6,119,398.3,123.4,403.7z"/>
		<ellipse transform="matrix(0.7955 -0.606 0.606 0.7955 -239.13 143.3863)" cx="92.9" cy="425.9" rx="10.9" ry="2.5"/>
	</g>
</g>
<rect x="175.9" y="521.6" transform="matrix(0.7955 -0.606 0.606 0.7955 -279.3021 219.5466)" width="19.5" height="3.8"/>
<rect x="149.8" y="539.8" transform="matrix(0.7955 -0.606 0.606 0.7955 -297.4992 210.4474)" width="26.3" height="12.3"/>
<title>blueforest V4 - Standard</title>
<g>
	<path class="st1" d="M489.3,221.1H428h-60.6c-19,0-32.9,13.5-33.2,32.2c-0.2,23.4,0,46.9,0,70.3c0,0.5,0,1,0.2,2.2
		c10.2-0.5,20.2,0,30.2-1.7c14.5-2.7,24.2-16.2,24.2-30.9v-11h25.7c1.2,15.2-0.5,29.7-9.5,43.1c1.2,0,2,0.2,2.5,0.2
		c8,0,16.2,0.5,24.2-0.2c17.2-1.7,28.7-15.5,28.7-33.7c0-11.5,0-22.9,0-34.4v-3.5h25.2c0.2,0.2,0.2,0.7,0.2,1
		c0,14.5,0.5,28.9-0.2,43.4c-1.2,25.9-21.9,48.1-47.4,52.4c-3.5,0.5-7,0.7-10.5,1c-29.9,0-59.6,0-89.5,0H334v7
		c0,7.7,0.2,15.5,0.2,23.4c0,11.5-0.5,23.2-0.5,34.7c0,11.5,0.2,22.9,0.5,34.4c0.5,17.5,15,31.2,32.2,31.2c27.7,0,55.1,0,82.8,0h3.7
		v25.9h-45.4c-2,9,4.5,21.4,14,27.9s20.7,5,31.4,5.2V567c-16,1-31.4,0.2-45.9-9.7V582h-26.2v-74.1c-16.5,0.7-32.7,0.2-47.4-10v47.6
		H308v-3.5c0-23.2,0-46.4,0.2-69.6c0-72.3,0-144.9,0-217.2c0-29.2,18.7-52.9,46.4-58.6c4.2-0.7,8.5-1.2,12.7-1.2
		c7.5-0.2,15,0,22.4,0h3.5c-0.2-6.5-2.7-12.5-7-17.5c-6-7.7-15.2-12-24.9-12c-39.2,0-78.3-0.2-117.2,0c-14.2,0.2-27.7-2-39.4-10.2
		c-14.7-9.7-24.2-25.7-25.4-43.4c-0.2-1.5,0-3,0-4.7H205c0.2,2,0.5,4,0.7,6c3,15.7,17,26.7,32.7,26.2c3-0.2,6-1.2,8.7-2.7
		c10.7-5.7,17-14.7,17.5-26.7c0.5-16.5,0-32.9,0-49.4h25.7v47.4c0,10.2-2.5,20.5-7.7,29.4c-0.5,0.7-0.7,1.5-1,2.2
		c10.2,0,20.2,0.2,30.2,0c16.7-0.2,30.4-13.2,31.4-29.7c0.7-8.2,0-16.5,0.2-24.4v-3.5h25.9c0,0.5,0.2,1,0.2,1.5
		c0,8.2,0.2,16.5,0,24.9c-0.2,10.5-3.2,20.7-8.7,29.4c-0.2,0.5-0.5,1.2-0.7,2c15.2-0.5,29.9,5.2,41.2,15.7
		c11.2,10.5,17.7,24.7,18.7,39.9c2.5,0,5.2-0.2,7.7-0.7c14.7-3.5,25.2-17,24.9-31.9c0-5,0-10,0-15h25.2c0,8.2,0.5,16.5,0,24.4
		c-1,8.2-4,16-8.5,22.9h20L489.3,221.1z"/>
	<path class="st1" d="M155.6,591c0-9.2,0.5-18.2,1.5-27.4c1-6.2,4.2-12,6.5-18c0.5-1,1-1.7,1.5-2.7h-20v-25.7c1,0,1.7-0.2,2.5-0.2
		c22.4,0,45.1,0,67.6,0c16.2,0,30.9-13.7,31.4-30.2c0.2-21.2,0-42.4,0.2-63.3c0-14.2,0.2-28.2,0.5-42.4c0-9.7,0-19.7,0-29.9h-90.3
		c-32.2,0-58.1-25.9-58.4-58.1l0,0v-11H125c0,4.2-0.2,8.5,0,12.5c1.5,18.5,15,30.7,33.4,30.7h22.2c-9-13.5-10.7-27.9-9.5-43.1h25.7
		v11c0,7.5,2.5,15,7.5,20.7c5.2,6.7,13.2,10.7,21.7,11.2c7,0.5,14,0,21.2,0v-3c0-11,0-21.9,0-32.9c0.2-17.7-14-32.4-31.7-32.7
		c-0.5,0-0.7,0-1.2,0H99.8c-1,0-2.2,0.2-3.2,0.2v-26.4h45.9c1.5-14.5-10.2-29.7-25.4-32.2c-6.7-0.7-13.7-1-20.5-0.7V171l16.5,0.5
		c9.7,0.2,19.5,3.2,27.7,8.2c0.5,0.2,0.7,0.5,1.2,0.7c0.2,0,0.2,0,1,0v-23.9h25.9v73.8h3.7c15,0,29.7,0,44.6,0.2
		c10.2,0.2,20,3.2,28.4,8.7c0.2,0.2,0.7,0.2,1,0.5c0,0,0.2,0,0.5-0.2v-46.9h25.4V573h-25.4v-39.9c-1,0.5-1.5,0.7-2,1
		c-9.2,5.7-19.7,8.7-30.4,8.5c-18-0.5-32.9,13.5-33.4,31.4c0,0.7,0,1.5,0,2.2c0,5,0,9.7,0,14.7L155.6,591L155.6,591z"/>
</g>
</svg>
