<?xml version="1.0" encoding="utf-8"?>
<!-- Generator: Adobe Illustrator 22.1.0, SVG Export Plug-In . SVG Version: 6.00 Build 0)  -->
<svg version="1.1" id="Calque_1" xmlns="http://www.w3.org/2000/svg" xmlns:xlink="http://www.w3.org/1999/xlink" x="0px" y="0px"
	 viewBox="0 0 300 300" style="enable-background:new 0 0 300 300;" xml:space="preserve">
<style type="text/css">
	.st0{fill:#E4B267;}
	.st1{fill:#39696B;}
	.st2{fill:#4FABDE;}
	.st3{fill:#E97539;}
	.st4{fill:#C46031;}
	.st5{fill:#D6A565;}
	.st6{opacity:0.31;fill:#E97539;}
	.st7{fill:#FFFFFF;}
	.st8{fill:#1D1C1B;}
	.st9{fill:#ECECEC;}
	.st10{fill:none;stroke:#1D1C1B;stroke-miterlimit:10;}
</style>
<g>
	<path class="st0" d="M169.5,224.3c0-5.7-4.6-10.3-10.3-10.3c-5.7,0-10.3,4.6-10.3,10.3v44.4h20.7V224.3z"/>
	<path class="st0" d="M147.2,224.3c0-5.7-4.6-10.3-10.3-10.3c-5.7,0-10.3,4.6-10.3,10.3v44.4h20.7V224.3z"/>
	<path class="st1" d="M159.2,294.9c5.7,0,10.3-4.6,10.3-10.3v-15.8h-20.7v15.8C148.9,290.2,153.5,294.9,159.2,294.9z"/>
	<path class="st1" d="M136.9,294.9c5.7,0,10.3-4.6,10.3-10.3v-15.8h-20.7v15.8C126.5,290.2,131.2,294.9,136.9,294.9z"/>
</g>
<path class="st1" d="M179,229.7h-61.1c-3.9,0-9.3-4.1-7.9-7.9l15.2-43.4c0-13.1,4.5-18.3,15.7-18.3h15.7c11.2,0,12.1,6.4,13.8,18
	l15.5,42C185.6,225.4,182.9,229.7,179,229.7z"/>
<path class="st2" d="M191.3,120.9c0-4.9-4.3-8.9-9.5-8.9c-5.2,0-9.5,4-9.5,8.9v62.5h19V120.9z"/>
<path class="st0" d="M181.8,197.2c5.2,0,9.5-4,9.5-8.9v-5h-19v5C172.3,193.3,176.5,197.2,181.8,197.2z"/>
<path class="st3" d="M189.1,121.6h-83.5V46.1c0-23,17.5-42.1,40.5-42.1h3.7c23,0,39.4,19.2,39.4,42.1V121.6z"/>
<path class="st4" d="M172.5,112.2l5.1-34.4c0-13.8-15.6-24.1-26.8-24.1h-5.9c-11.2,0-26.5,10.6-26.5,24.5l4.1,36.6
	c0,2.3,0.3,4.5,0.9,6.5h47.5C171.9,118.4,172.5,115.4,172.5,112.2z"/>
<path class="st2" d="M179.4,178.3h-63.2c-6.6,0-12-5.4-12-12v-55.9c0-6.6,5.4-12,12-12h63.2c6.6,0,12,5.4,12,12v55.9
	C191.4,172.9,186,178.3,179.4,178.3z"/>
<path class="st0" d="M171,108.9c0,8.9-10.4,19.7-23.2,19.7s-23.2-10.8-23.2-19.7s10.4-11.6,23.2-11.6S171,100,171,108.9z"/>
<path class="st5" d="M156,107h-16.5c-2.1,0-3.8-1.7-3.8-3.8V83.9h24v19.4C159.8,105.3,158.1,107,156,107z"/>
<path class="st0" d="M111.9,60.2c0,18.5,16.5,28.9,33.7,33.7h4.5c16.8-4.5,33.7-15.2,33.7-33.7V35.4h-71.9V60.2z"/>
<ellipse transform="matrix(0.9709 -0.2394 0.2394 0.9709 -3.8381 35.8242)" class="st3" cx="145.6" cy="33.7" rx="38.7" ry="13.6"/>
<ellipse transform="matrix(0.9825 -0.1861 0.1861 0.9825 -5.3406 34.8104)" class="st3" cx="182.7" cy="45.8" rx="4.5" ry="23.2"/>
<g>
	<circle class="st6" cx="126.6" cy="70.9" r="2"/>
	<circle class="st6" cx="128.6" cy="74.1" r="0.8"/>
	<circle class="st6" cx="130.4" cy="71.6" r="1.4"/>
</g>
<g>
	<circle class="st6" cx="167.2" cy="72.5" r="2"/>
	<circle class="st6" cx="170.5" cy="70.7" r="0.8"/>
	<circle class="st6" cx="168.2" cy="68.7" r="1.4"/>
</g>
<path class="st2" d="M123.3,120.9c0-4.9-4.3-8.9-9.5-8.9s-9.5,4-9.5,8.9v62.5h19V120.9z"/>
<path class="st0" d="M113.8,197.2c5.2,0,9.5-4,9.5-8.9v-5h-19v5C104.3,193.3,108.6,197.2,113.8,197.2z"/>
<path class="st7" d="M125,159.7l-1.7-19.2v37.8h1.8C125.2,175.8,125,160.4,125,159.7z"/>
<path class="st7" d="M170.6,159.7l1.7-19.2v37.8h-1.8C170.4,175.8,170.5,160.4,170.6,159.7z"/>
<circle class="st8" cx="131.2" cy="60.5" r="5.4"/>
<circle class="st8" cx="164.9" cy="60.5" r="5.4"/>
<circle class="st9" cx="128.7" cy="58" r="2.1"/>
<circle class="st9" cx="162.4" cy="58" r="2.1"/>
<path class="st10" d="M143.3,84.6c1.7-1.9,4.1-2.9,6.4-2.4c1.9,0.4,3,1.6,3.4,2.1"/>
</svg>
