<?xml version="1.0" encoding="utf-8"?>
<!-- Generator: Adobe Illustrator 22.1.0, SVG Export Plug-In . SVG Version: 6.00 Build 0)  -->
<svg version="1.1" id="Calque_1" xmlns="http://www.w3.org/2000/svg" xmlns:xlink="http://www.w3.org/1999/xlink" x="0px" y="0px"
	 viewBox="0 0 300 300" style="enable-background:new 0 0 300 300;" xml:space="preserve">
<style type="text/css">
	.st0{fill:none;stroke:#E6E7E8;stroke-width:7;stroke-miterlimit:10;}
	.st1{fill:#E6E7E8;}
	.st2{fill:#FBB040;}
	.st3{fill:none;stroke:#E6E7E8;stroke-width:8;stroke-miterlimit:10;}
	.st4{fill:#F0EFEF;}
	.st5{opacity:0.43;fill:#F0EFEF;}
	.st6{fill:#C2C1C0;}
	.st7{fill:#FBB040;stroke:#939393;stroke-width:7;stroke-miterlimit:10;}
	.st8{fill:#C5AB36;}
	.st9{fill:#DACA81;}
	.st10{fill:#7BC142;}
	.st11{fill:#73BF44;}
	.st12{fill:#FFFFFF;}
	.st13{fill:#46BEAA;}
	.st14{fill:#438DC0;}
</style>
<g>
	<path class="st0" d="M209.2,239.6H106.6c-3.3,0-6-2.7-6-6V80.9c0-3.3,2.7-6,6-6h102.6c3.3,0,6,2.7,6,6v152.7
		C215.2,236.9,212.5,239.6,209.2,239.6z"/>
	<path class="st1" d="M211.3,238.7H103.2c-2.1,0-3.9-1.7-3.9-3.9v-7.2c0-2.1,1.7-3.9,3.9-3.9h108.1c2.1,0,3.9,1.7,3.9,3.9v7.2
		C215.2,236.9,213.4,238.7,211.3,238.7z"/>
	<path class="st2" d="M207.3,229.6h-98.8c-3.3,0-6-2.7-6-6V83.5c0-3.3,2.7-6,6-6h98.8c3.3,0,6,2.7,6,6v140.1
		C213.3,226.9,210.6,229.6,207.3,229.6z"/>
	<path class="st3" d="M249.3,195.3h-19.7c-5.8,0-10.6-4.8-10.6-10.6v-51.5c0-5.8,4.8-10.6,10.6-10.6h19.7c5.8,0,10.6,4.8,10.6,10.6
		v51.5C260,190.6,255.2,195.3,249.3,195.3z"/>
	<ellipse class="st4" cx="109.2" cy="72.5" rx="40.5" ry="32.3"/>
	<circle class="st4" cx="161.4" cy="50" r="29"/>
	<ellipse class="st4" cx="194.3" cy="69.4" rx="32.9" ry="23.8"/>
	<ellipse class="st4" cx="137.2" cy="36.9" rx="27.9" ry="26.5"/>
	<ellipse class="st4" cx="190.4" cy="42" rx="27" ry="20.9"/>
	<ellipse class="st4" cx="164" cy="82.5" rx="24.2" ry="13.1"/>
	<path class="st5" d="M186,219.4h-4.2c-1.2,0-2.3-1-2.3-2.3v-107c0-1.2,1-2.3,2.3-2.3h4.2c1.2,0,2.3,1,2.3,2.3v107
		C188.2,218.4,187.2,219.4,186,219.4z"/>
	<path class="st5" d="M134.4,220h-4.2c-1.2,0-2.3-1-2.3-2.3v-107c0-1.2,1-2.2,2.3-2.2h4.2c1.2,0,2.3,1,2.3,2.2v107
		C136.7,219,135.7,220,134.4,220z"/>
</g>
<path class="st6" d="M130.1,211.8l-48.3,59.3c-1.6,2-4.5,2.3-6.5,0.7l-2.1-1.7c-2-1.6-2.3-4.5-0.7-6.5l48.3-59.3
	c1.6-2,4.5-2.3,6.5-0.7l2.1,1.7C131.4,206.9,131.7,209.8,130.1,211.8z"/>
<circle class="st7" cx="152.9" cy="174.4" r="41.1"/>
<path class="st8" d="M136.7,173.8c0.7,0.3,1.3,0.6,1.9,0.9c0.5,0.2,0.9,0.4,1.4,0.6c0.6,0.2,1,0.9,0.9,1.5c-0.1,0.8-0.3,1.5-0.4,2.3
	c0,0.2-0.2,0.3-0.4,0.3c-0.8-0.1-1.5-0.3-2.3-0.5c-0.6-0.2-1-0.7-1-1.4c0-1.2-0.1-2.5-0.1-3.7C136.7,173.9,136.7,173.9,136.7,173.8z
	"/>
<path class="st8" d="M145.1,186.1c-0.4-1-0.3-2,0-3c0.1-0.4,0.2-0.7,0.4-1c0.3-0.5,0.6-0.5,0.9-0.1c0.4,0.5,0.6,1.1,0.6,1.7
	c0,0.4-0.2,0.7-0.5,0.9c-0.4,0.5-0.8,1-1,1.6c0,0.1-0.1,0.2,0.1,0.3c0.1,0,0.1,0.1,0.1,0.2c0.8,1.1,1.5,2.3,2.3,3.4
	c0,0,0,0.1,0.1,0.1c0.1,0.2,0,0.3-0.1,0.4c-0.1,0.1-0.3,0.1-0.4,0c-0.1-0.1-0.1-0.1-0.2-0.2c-0.7-1.1-1.5-2.2-2.2-3.3
	c-0.1-0.2-0.2-0.3-0.1-0.5c-0.8,0-1.5,0.1-2.2,0.3c-1,0.3-2-0.3-2.4-1.3c-0.1-0.3,0-0.5,0.3-0.6c0.5-0.1,1.1-0.1,1.6,0
	C143.4,185.1,144.3,185.5,145.1,186.1C145,186.1,145,186.2,145.1,186.1z"/>
<path class="st8" d="M145,180.3c0.4,0.7,0.5,1.3,0,2c-0.4,0.6-0.6,1.2-0.7,1.8c0,0.1,0,0.2-0.1,0.2c-0.1,0-0.2-0.1-0.2-0.1
	c-0.3-0.4-0.5-1-0.6-1.5c-0.2-0.9-0.1-1.8,0.1-2.7c0-0.1,0-0.1,0.1-0.2c0.2-0.4,0.4-0.5,0.8-0.2C144.7,179.8,144.9,180.1,145,180.3z
	"/>
<path class="st8" d="M142.1,181.1c-0.6-1-1-2.2-0.9-3.4c0-0.4,0.3-0.6,0.7-0.4c0.6,0.2,1,0.6,1.3,1.2c0.2,0.3,0.2,0.7,0.1,1.1
	c-0.2,0.7-0.4,1.4-0.3,2.2c0,0.1,0,0.1-0.1,0.2c-0.1,0-0.2,0-0.2-0.1C142.5,181.6,142.3,181.4,142.1,181.1z"/>
<path class="st8" d="M139.6,183.8c-0.2-0.3-0.3-0.5-0.4-0.9c0-0.3,0.1-0.5,0.4-0.6c0.2,0,0.4,0,0.7,0c1.1,0.2,2.1,0.7,2.9,1.5
	c0.2,0.2,0.3,0.3,0.4,0.6c0.1,0.2,0,0.3-0.2,0.2c-0.7-0.2-1.4-0.1-2.1,0C140.6,184.8,140,184.5,139.6,183.8z"/>
<path class="st8" d="M141.5,181.5c0.1,0.2,0.3,0.5,0.4,0.8c0,0.1,0.1,0.2,0,0.2c-0.1,0.1-0.1,0-0.2,0c-0.6-0.3-1.2-0.5-1.8-0.5
	c-1.1-0.1-1.9-1.1-1.8-2.2c0-0.4,0.2-0.5,0.6-0.4c0.4,0.1,0.8,0.3,1.2,0.6C140.5,180.4,141.1,180.9,141.5,181.5z"/>
<path class="st9" d="M145.1,186.1c0,0,0.1,0.1,0,0.1C145,186.3,145,186.2,145.1,186.1C145,186.1,145,186.1,145.1,186.1z"/>
<path class="st9" d="M167.3,178.4C167.2,178.4,167.2,178.5,167.3,178.4C167.1,178.4,167.2,178.3,167.3,178.4
	C167.2,178.3,167.2,178.3,167.3,178.4z"/>
<g>
	<path class="st10" d="M172.8,154.8c-0.6,0.4-1.2,0.8-1.8,1.2c-0.4,0.3-0.9,0.6-1.3,0.9c-0.5,0.4-1.2,0.4-1.8,0
		c-0.6-0.5-1.2-1-1.7-1.6c-0.2-0.2-0.2-0.4,0-0.5c0.5-0.6,1-1.2,1.6-1.7c0.5-0.4,1.2-0.5,1.7-0.2
		C170.5,153.6,171.6,154.2,172.8,154.8C172.7,154.8,172.8,154.8,172.8,154.8z"/>
	<path class="st11" d="M158,155.7c1.1,0.2,1.9,0.8,2.6,1.5c0.3,0.3,0.5,0.5,0.7,0.9c0.3,0.5,0.1,0.7-0.4,0.9c-0.6,0.1-1.2,0-1.8-0.4
		c-0.3-0.2-0.5-0.5-0.6-0.9c-0.2-0.6-0.5-1.2-0.9-1.7c-0.1-0.1-0.1-0.2-0.3-0.1c-0.1,0.1-0.1,0-0.2,0c-1.4,0.1-2.8,0.1-4.1,0.2
		c0,0-0.1,0-0.1,0c-0.2,0-0.3-0.1-0.3-0.3c0-0.2,0.1-0.3,0.2-0.3c0.1,0,0.2,0,0.3,0c1.3-0.1,2.6-0.1,3.9-0.2c0.2,0,0.4,0,0.5,0.2
		c0.4-0.6,0.7-1.4,0.9-2.1c0.3-1,1.3-1.6,2.3-1.4c0.4,0.1,0.5,0.3,0.4,0.6c-0.2,0.5-0.5,1-0.9,1.4
		C159.6,154.8,158.9,155.3,158,155.7C158,155.6,157.9,155.6,158,155.7z"/>
	<path class="st11" d="M162.9,158.6c-0.8,0-1.4-0.3-1.7-1c-0.3-0.6-0.7-1.1-1.2-1.6c-0.1-0.1-0.2-0.1-0.1-0.2c0-0.1,0.1-0.1,0.2-0.1
		c0.5,0,1.1,0.1,1.6,0.3c0.9,0.3,1.6,0.8,2.2,1.4c0,0,0.1,0.1,0.1,0.1c0.3,0.4,0.2,0.6-0.2,0.8C163.6,158.5,163.2,158.6,162.9,158.6
		z"/>
	<path class="st11" d="M163.8,155.7c1.2,0,2.4,0.3,3.4,1c0.3,0.2,0.3,0.6,0,0.8c-0.5,0.4-1,0.5-1.7,0.5c-0.4,0-0.7-0.2-1-0.5
		c-0.5-0.5-1-1-1.7-1.4c-0.1,0-0.1-0.1-0.1-0.1c0-0.1,0.1-0.1,0.2-0.2C163.1,155.8,163.4,155.7,163.8,155.7z"/>
	<path class="st11" d="M162.7,152.2c0.3,0,0.6,0,0.9,0.1c0.3,0.1,0.4,0.3,0.3,0.6c-0.1,0.2-0.2,0.4-0.4,0.5
		c-0.8,0.8-1.7,1.4-2.8,1.7c-0.2,0.1-0.5,0.1-0.7,0.1c-0.2,0-0.2-0.1-0.1-0.3c0.5-0.5,0.8-1.1,1.1-1.8
		C161.4,152.5,161.9,152.2,162.7,152.2z"/>
	<path class="st11" d="M163.7,155c-0.3,0-0.6,0-0.9-0.1c-0.1,0-0.2,0-0.2-0.1c0-0.1,0.1-0.1,0.1-0.2c0.6-0.3,1-0.8,1.4-1.3
		c0.7-0.9,2-1,2.8-0.4c0.3,0.2,0.3,0.5,0.1,0.7c-0.3,0.3-0.7,0.5-1.1,0.7C165.2,154.7,164.5,154.9,163.7,155z"/>
</g>
<g>
	<path class="st5" d="M148,154.2L133.5,174c-0.9,1.3-2.7,1.6-4,0.6l-1.4-1c-1.3-0.9-1.6-2.7-0.6-4l14.5-19.7c0.9-1.3,2.7-1.6,4-0.6
		l1.4,1C148.7,151.2,148.9,153,148,154.2z"/>
	<path class="st5" d="M169.8,154.2L155.3,174c-0.9,1.3-2.7,1.6-4,0.6l-1.4-1c-1.3-0.9-1.6-2.7-0.6-4l14.5-19.7
		c0.9-1.3,2.7-1.6,4-0.6l1.4,1C170.4,151.2,170.7,153,169.8,154.2z"/>
</g>
<g>
	<path class="st12" d="M169.5,188l-0.6,1.4c-0.1,0.2-0.4,0.3-0.6,0.2l-5.6-2.3c-0.2-0.1-0.3-0.4-0.2-0.6l0.6-1.4
		c0.1-0.2,0.4-0.3,0.6-0.2l5.6,2.3C169.5,187.5,169.6,187.8,169.5,188z"/>
	<path class="st12" d="M172.8,187.1l-1.5,0.3c-0.2,0-0.5-0.1-0.5-0.4l-1.1-6c0-0.2,0.1-0.5,0.4-0.5l1.5-0.3c0.2,0,0.5,0.1,0.5,0.4
		l1.1,6C173.2,186.8,173,187.1,172.8,187.1z"/>
	<circle class="st13" cx="161.8" cy="186.1" r="3"/>
	<circle class="st13" cx="171" cy="178.9" r="3.4"/>
	<circle class="st14" cx="171.9" cy="189.2" r="3.9"/>
</g>
</svg>
