<svg xmlns="http://www.w3.org/2000/svg" viewBox="0 0 1073.59 276.67"><defs><style>.cls-1{fill:#a65d37;}.cls-2{fill:#53a337;}.cls-3{fill:#916853;}.cls-4{fill:#6ab64a;}.cls-5{fill:#e8b761;}.cls-6{fill:#39686b;}.cls-7{fill:#5aade1;}.cls-12,.cls-8{fill:#e76e2d;}.cls-9{fill:#c75a25;}.cls-10{fill:#dbaa5f;}.cls-11{fill:none;stroke:#26231f;stroke-miterlimit:10;}.cls-12{opacity:0.31;}.cls-13{fill:#fff;}.cls-14{fill:#26231f;}.cls-15{fill:#f3f3f4;}</style></defs><title>Fichier 1</title><g id="Calque_2" data-name="Calque 2"><g id="Calque_1-2" data-name="Calque 1"><rect class="cls-1" x="27.39" y="191.91" width="24" height="81.69" rx="12" ry="12"/><circle class="cls-2" cx="39.39" cy="220.08" r="39.39"/><rect class="cls-1" x="1002.53" y="178.65" width="27.39" height="93.22" rx="12" ry="12"/><circle class="cls-2" cx="1028.64" cy="189.67" r="44.96" transform="translate(-1.82 10.17) rotate(-0.57)"/><ellipse class="cls-2" cx="1016.4" cy="206.1" rx="54.65" ry="46.61" transform="translate(-1.99 10.05) rotate(-0.57)"/><rect class="cls-1" x="868.89" y="176.64" width="27.39" height="93.22" rx="12" ry="12"/><circle class="cls-2" cx="901.82" cy="164.3" r="49.99" transform="translate(-1.58 8.91) rotate(-0.57)"/><ellipse class="cls-2" cx="881.17" cy="191.68" rx="60.77" ry="51.83" transform="translate(-1.85 8.71) rotate(-0.57)"/><ellipse class="cls-2" cx="851.56" cy="147.87" rx="44.72" ry="33.43" transform="translate(23.33 394.98) rotate(-26.46)"/><rect class="cls-1" x="254.1" y="181.39" width="35.45" height="93.22" rx="12" ry="12"/><circle class="cls-2" cx="301.7" cy="141.42" r="69.45" transform="translate(-1.38 2.99) rotate(-0.57)"/><ellipse class="cls-2" cx="271.83" cy="173.82" rx="84.42" ry="72.01" transform="translate(-1.7 2.69) rotate(-0.57)"/><ellipse class="cls-2" cx="231.87" cy="118.59" rx="62.13" ry="46.45" transform="translate(-28.55 115.75) rotate(-26.46)"/><ellipse class="cls-2" cx="273" cy="65.97" rx="57.47" ry="35.56"/><rect class="cls-3" x="377.27" y="213.01" width="30" height="62" rx="12" ry="12"/><ellipse class="cls-4" cx="392.27" cy="213.01" rx="36.5" ry="34.02"/><rect class="cls-3" x="543.24" y="198.34" width="37.74" height="76.5" rx="12" ry="12"/><rect class="cls-3" x="117.74" y="209.64" width="30" height="67" rx="12" ry="12"/><circle class="cls-4" cx="132.74" cy="193.14" r="42.5"/><ellipse class="cls-4" cx="106.75" cy="217.64" rx="24" ry="18.75" transform="translate(-114.89 119.47) rotate(-39.98)"/><ellipse class="cls-4" cx="155.74" cy="186.39" rx="26.25" ry="38" transform="translate(-86.18 164.72) rotate(-45)"/><circle class="cls-4" cx="559.86" cy="170.26" r="42.5"/><ellipse class="cls-4" cx="533.87" cy="194.76" rx="24" ry="18.75" transform="translate(-0.34 388.58) rotate(-39.98)"/><ellipse class="cls-4" cx="582.86" cy="163.51" rx="26.25" ry="38" transform="translate(55.1 460.04) rotate(-45)"/><ellipse class="cls-4" cx="545.78" cy="138.34" rx="37.08" ry="29"/><ellipse class="cls-4" cx="582.86" cy="132.06" rx="29.5" ry="19" transform="matrix(0.29, -0.96, 0.96, 0.29, 287.73, 651.74)"/><rect class="cls-3" x="685.32" y="162.67" width="45.72" height="114" rx="12" ry="12"/><circle class="cls-4" cx="711.45" cy="114.96" r="72.96"/><ellipse class="cls-4" cx="666.84" cy="157.02" rx="41.2" ry="32.19" transform="translate(55 465.2) rotate(-39.98)"/><ellipse class="cls-4" cx="750.93" cy="103.37" rx="45.06" ry="65.23" transform="translate(146.85 561.27) rotate(-45)"/><ellipse class="cls-4" cx="687.29" cy="60.16" rx="63.65" ry="49.78"/><ellipse class="cls-4" cx="750.93" cy="49.39" rx="50.64" ry="32.62" transform="matrix(0.29, -0.96, 0.96, 0.29, 486.28, 753.88)"/><ellipse class="cls-4" cx="722.04" cy="152.7" rx="50.64" ry="32.62" transform="translate(-8.62 256.61) rotate(-20.03)"/><path class="cls-5" d="M478.22,233.44a6.08,6.08,0,1,0-12.16,0v26.14h12.16Z"/><path class="cls-5" d="M465.08,233.44a6.08,6.08,0,1,0-12.16,0v26.14h12.16Z"/><path class="cls-6" d="M472.14,275a6.1,6.1,0,0,0,6.08-6.08v-9.33H466.06v9.33A6.1,6.1,0,0,0,472.14,275Z"/><path class="cls-6" d="M459,275a6.1,6.1,0,0,0,6.08-6.08v-9.33H452.92v9.33A6.1,6.1,0,0,0,459,275Z"/><path class="cls-6" d="M483.8,236.59h-36c-2.29,0-5.48-2.39-4.66-4.67l8.93-25.58c0-7.73,2.64-10.75,9.24-10.75h9.25c6.6,0,7.13,3.75,8.14,10.58l9.14,24.73C487.69,234.1,486.11,236.59,483.8,236.59Z"/><path class="cls-7" d="M491,172.53a5.6,5.6,0,0,0-11.17,0v36.81H491Z"/><path class="cls-5" d="M485.44,217.51A5.42,5.42,0,0,0,491,212.3v-3H479.85v3A5.42,5.42,0,0,0,485.44,217.51Z"/><path class="cls-8" d="M489.76,173H440.59V128.54c0-13.52,10.3-24.81,23.83-24.81h2.17c13.52,0,23.17,11.29,23.17,24.81Z"/><path class="cls-9" d="M480,167.42l3-20.23c0-8.15-9.16-14.2-15.76-14.2h-3.5c-6.6,0-15.61,6.25-15.61,14.4l2.4,21.53a13.7,13.7,0,0,0,.54,3.82h28A15.84,15.84,0,0,0,480,167.42Z"/><rect class="cls-7" x="439.76" y="159.28" width="51.33" height="47.06" rx="12" ry="12"/><path class="cls-5" d="M479.07,165.52c0,5.26-6.11,11.61-13.65,11.61s-13.65-6.35-13.65-11.61,6.11-6.84,13.65-6.84S479.07,160.26,479.07,165.52Z"/><path class="cls-10" d="M458.36,150.75h14.13a0,0,0,0,1,0,0v9.86a3.75,3.75,0,0,1-3.75,3.75h-6.62a3.75,3.75,0,0,1-3.75-3.75v-9.86A0,0,0,0,1,458.36,150.75Z"/><path class="cls-5" d="M444.33,136.82c0,10.91,9.71,17,19.83,19.83h2.67c9.92-2.68,19.83-8.92,19.83-19.83V122.24H444.33Z"/><ellipse class="cls-8" cx="464.12" cy="121.23" rx="22.81" ry="8" transform="translate(-15.53 114.63) rotate(-13.85)"/><ellipse class="cls-8" cx="485.99" cy="128.37" rx="2.65" ry="13.65" transform="translate(-15.4 92.71) rotate(-10.73)"/><path class="cls-11" d="M459.23,149a11.38,11.38,0,0,0,8,1.84,9.06,9.06,0,0,0,4.25-1.67"/><circle class="cls-12" cx="452.98" cy="143.1" r="1.16" transform="translate(-15.88 66.68) rotate(-8.27)"/><circle class="cls-12" cx="454.15" cy="145.02" r="0.49" transform="translate(-16.14 66.87) rotate(-8.27)"/><circle class="cls-12" cx="455.21" cy="143.55" r="0.81" transform="translate(-15.92 67) rotate(-8.27)"/><circle class="cls-12" cx="476.84" cy="144.04" r="1.16" transform="translate(-9.91 38.23) rotate(-4.54)"/><circle class="cls-12" cx="478.82" cy="143" r="0.49" transform="translate(-9.82 38.39) rotate(-4.54)"/><circle class="cls-12" cx="477.45" cy="141.81" r="0.81" transform="translate(-9.74 38.28) rotate(-4.54)"/><path class="cls-7" d="M451,172.53a5.6,5.6,0,0,0-11.17,0v36.81H451Z"/><path class="cls-5" d="M445.42,217.51A5.42,5.42,0,0,0,451,212.3v-3H439.83v3A5.42,5.42,0,0,0,445.42,217.51Z"/><path class="cls-13" d="M452,195.4l-1-11.29v22.23h1.08C452.11,204.9,452,195.82,452,195.4Z"/><path class="cls-13" d="M478.84,195.4l1-11.29v22.23h-1.08C478.74,204.9,478.81,195.82,478.84,195.4Z"/><circle class="cls-14" cx="455.65" cy="137" r="3.18"/><circle class="cls-14" cx="475.49" cy="137" r="3.18"/><circle class="cls-15" cx="454.19" cy="135.53" r="1.24"/><circle class="cls-15" cx="474.04" cy="135.53" r="1.24"/></g></g></svg>