<?xml version="1.0" encoding="UTF-8" standalone="no"?>
<svg
   xmlns:dc="http://purl.org/dc/elements/1.1/"
   xmlns:cc="http://creativecommons.org/ns#"
   xmlns:rdf="http://www.w3.org/1999/02/22-rdf-syntax-ns#"
   xmlns:svg="http://www.w3.org/2000/svg"
   xmlns="http://www.w3.org/2000/svg"
   id="svg18"
   version="1.1"
   viewBox="0 0 230 190">
  <metadata
     id="metadata24">
    <rdf:RDF>
      <cc:Work
         rdf:about="">
        <dc:format>image/svg+xml</dc:format>
        <dc:type
           rdf:resource="http://purl.org/dc/dcmitype/StillImage" />
        <dc:title></dc:title>
      </cc:Work>
    </rdf:RDF>
  </metadata>
  <defs
     id="defs22" />
  <g
     transform="translate(-2.4152542,-1.6101695)"
     id="g16">
    <g
       id="g10"
       transform="matrix(0.2995984,0,0,0.2995984,4.0164224,58.345394)">
      <path
         id="path2"
         d="m 87.7,75.37 c 4.36,3 9.21,5.55 13.09,9.14 10.32,9.54 13.11,22 12.38,35.52 -0.53,9.89 -2.94,19.27 -9.52,27.08 -8.23,9.78 -19.32,14.26 -31.49,16.54 -20,3.74 -40,3 -60.07,0.89 -3,-0.32 -5.94,-0.73 -8.93,-0.92 -2.16,-0.14 -3.26,-1 -3.09,-3.25 0,-0.5 0,-1 0,-1.5 Q 0.09,83.13 0,7.38 C 0,3.7 1.29,2.91 4.65,2.47 20.17,0.44 35.74,-0.61 51.36,0.38 c 13,0.83 25.87,2.84 36.81,10.86 9.1,6.67 13.75,15.74 14.65,27 0.95,11.78 -1.67,22.3 -9.6,31.27 -1.8,2.05 -3.74,3.98 -5.52,5.86 z M 38.37,115 c 0,5.49 0,11 0,16.47 0,1.92 0.49,3.24 2.67,3.12 6.07,-0.34 12.27,-0.08 18.18,-1.26 8.88,-1.76 14.24,-8.36 14.33,-17.24 0.12,-10.65 -3.49,-15.4 -11.9,-18.57 -7,-2.63 -14.24,-2.11 -21.45,-1.88 -0.63,0 -1.7,1.86 -1.73,2.88 -0.19,5.48 -0.1,10.95 -0.1,16.48 z m 0,-68 c 0,4.75 0.05,9.5 0,14.24 0,1.86 0.53,2.92 2.54,2.72 4.56,-0.46 9.17,-0.63 13.66,-1.49 A 12.65,12.65 0 0 0 65.1,51.61 c 1.16,-6.58 0.84,-13 -5.36,-17.54 -6,-4.42 -12.9,-4.06 -19.76,-3.72 -0.58,0 -1.5,1.77 -1.53,2.74 -0.16,4.63 -0.07,9.26 -0.08,13.91 z"
         style="fill:#1155cc" />
      <path
         id="path4"
         d="M 293.2,47.44 A 116.77,116.77 0 0 1 328.69,47 c 2.46,0.31 2.18,1.93 2.18,3.54 q 0,12.37 0,24.73 c 0,26.23 0,52.47 0.06,78.7 0,3.26 -0.89,4.86 -4.19,5.81 -21.52,6.2 -43.21,8.79 -65.39,4 -16.6,-3.56 -26.89,-13.8 -30.75,-30.05 a 102.16,102.16 0 0 1 -2.36,-21.87 c -0.31,-20 0,-40 -0.2,-60 0,-3.76 1.11,-5.22 4.73,-5.19 q 14.74,0.13 29.49,0.14 c 3.08,0 3.89,1.43 3.87,4.41 q -0.18,30.73 0,61.46 a 41.37,41.37 0 0 0 1.25,9.58 c 1.76,7.15 7,10.27 13.92,11 11.93,1.17 11.93,1.14 11.93,-10.56 q 0,-35.6 0,-71.2 z"
         style="fill:#1155cc" />
      <path
         id="path6"
         d="M 389.27,117.71 A 18.11,18.11 0 0 0 402,133.09 c 7.22,2.3 14.59,2.15 21.87,0.86 6.11,-1.08 12,-3.11 18.11,-4.46 a 4,4 0 0 1 3.44,1.39 c 3.91,6.52 6.77,19.47 6.39,28.57 -6.12,1.54 -12.42,3.39 -18.83,4.69 -13.48,2.74 -27.08,3.2 -40.53,0.13 C 371.05,159.39 357.57,146.2 352.89,124.6 349,106.78 350,89.24 358.4,72.79 366.24,57.5 379,48.57 396,45.6 c 12.41,-2.17 24.42,-1.49 35.79,4.18 14.91,7.45 22.55,20.19 25.65,36.13 1.88,9.7 1.12,19.36 0,29.07 -0.35,3.06 -2.32,2.73 -4.3,2.73 z m 35.3,-26.33 A 19.5,19.5 0 0 0 420,78.79 c -4.76,-5.56 -11,-6.67 -17.74,-5.08 -7.35,1.74 -11.7,6.61 -13.52,14 -0.74,3 -0.2,4.1 3,4.06 9.87,-0.13 19.75,0 29.62,-0.06 1,-0.02 1.96,-0.2 3.21,-0.34 z"
         style="fill:#1155cc" />
      <path
         id="path8"
         d="m 133.22,163.56 c 0,-1.56 0,-2.77 0,-4 0.09,-36 0.25,-71.95 0.19,-107.92 0,-3.61 1.18,-4.94 4.56,-4.93 9.71,0 19.41,0.07 29.12,0 3.36,0 4,1.65 4,4.7 -0.11,25.23 -0.06,50.47 -0.06,75.71 0,4.91 0,4.91 4.94,4.91 11.49,0 23,0.07 34.48,-0.06 2.32,0 3.61,0.56 3.6,3 q 0,13 -0.15,26.07 c 0,2.1 -1.2,2.56 -3.19,2.55 -25.65,-0.05 -51.25,-0.03 -77.49,-0.03 z"
         style="fill:#1155cc" />
    </g>
    <path
       id="path12"
       d="M 284.19595,108.32597 V 61.885734 h 27.12152 c 0.77333,2.2273 0.81676,5.9752 0.0927,9.84763 h -1.90871 c -4.23448,0 -8.47185,0.0232 -12.70633,-0.0174 -0.91524,0 -1.30046,0.20275 -1.26571,1.1991 0.0695,1.95216 0.0551,3.91009 0,5.86224 -0.0232,0.88629 0.2375,1.20199 1.15855,1.1875 3.43798,-0.0493 6.87885,0 10.31683,-0.0377 0.85443,0 1.118,0.22882 1.27151,1.118 a 22.805934,22.805934 0 0 1 0,7.76514 c -0.14483,0.86891 -0.45183,1.06296 -1.23676,1.05716 -3.36556,-0.029 -6.73403,0.0232 -10.0996,-0.0347 -1.06586,-0.0202 -1.44817,0.24619 -1.42211,1.38157 0.0609,5.2482 0,10.496406 0.0435,15.744606 0,0.97897 -0.14772,1.39025 -1.30047,1.53217 a 38.562129,38.562129 0 0 1 -10.06486,-0.16509 z m 44.89357,0.91814 c -3.27867,-0.0927 -6.41253,-0.67485 -9.26835,-2.35763 -4.0549,-2.39239 -6.1229,-6.1287 -6.97733,-10.606466 a 23.257766,23.257766 0 0 1 0.72989,-11.98224 q 2.85871,-8.44288 11.66942,-10.04457 c 3.78844,-0.68935 7.49579,-0.47501 11.08438,0.92393 4.59073,1.76969 7.34228,5.24532 8.62827,9.89686 1.35259,4.89775 1.33811,9.80418 -0.4837,14.58028 -2.02745,5.332196 -6.03313,8.303856 -11.6231,9.184356 -1.24544,0.19694 -2.50825,0.27226 -3.75948,0.40548 z m -5.86223,-17.957416 c 0.31861,1.96663 0.47501,3.58858 0.86891,5.15552 0.5619,2.31709 2.26496,3.811606 4.21999,3.962216 2.81526,0.21723 4.63419,-0.660366 5.58998,-3.119376 1.47715,-3.78265 1.50031,-7.6435 -0.14482,-11.40297 -0.86891,-1.9869 -2.51982,-2.89636 -4.6892,-2.87318 -2.16937,0.0232 -3.80871,0.92103 -4.52701,2.91663 -0.64589,1.81312 -0.93842,3.74789 -1.32074,5.35826 z m 39.17037,17.024796 a 31.211168,31.211168 0 0 1 -10.71652,0.0174 c -0.0174,-0.36785 -0.0463,-0.7183 -0.0463,-1.07166 0,-10.383446 0,-20.769786 -0.0232,-31.153236 0,-0.98766 0.19984,-1.39026 1.26861,-1.44818 4.11282,-0.20564 8.21697,-0.67196 12.3298,-0.7183 3.51617,-0.0405 6.99471,0.52425 10.07063,2.48797 3.63783,2.3171 4.82824,5.79273 4.5386,9.88528 -0.20275,2.89636 -1.29178,5.39881 -3.55094,7.29883 -0.56189,0.4721 -0.28963,0.8689 -0.0667,1.32073 q 3.186,6.163446 6.35751,12.326906 c 0.1593,0.30991 0.28963,0.6343 0.50396,1.09482 a 39.969759,39.969759 0 0 1 -11.43772,0.0405 1.4481797,1.4481797 0 0 1 -0.92973,-0.72989 c -2.19254,-4.63417 -4.34454,-9.294406 -6.51681,-13.934376 -0.28964,-0.62851 -0.1622,-0.94421 0.44024,-1.28598 1.3584,-0.77043 2.60673,-1.67409 3.37427,-3.11649 a 6.0389093,6.0389093 0 0 0 0.51265,-4.00855 c -0.26067,-1.44819 -1.49741,-2.43585 -3.18599,-2.68203 -2.6328,-0.38811 -2.92243,-0.1622 -2.92243,2.49086 m 51.34377,21.992066 c -6.33144,2.05641 -12.68316,2.99193 -19.15942,0.8689 -4.37061,-1.42791 -7.38573,-4.34454 -8.83101,-8.718036 -1.95793,-5.90568 -1.81601,-11.7766 1.06007,-17.37816 2.23889,-4.34454 5.94043,-6.8383 10.77735,-7.68983 3.55095,-0.62563 6.98602,-0.43445 10.26179,1.15854 4.26924,2.07089 6.52261,5.65369 7.48131,10.17201 0.62562,2.9456 0.49237,5.897 0,8.83969 -0.0463,0.26937 -0.42866,0.55031 -0.7212,0.69224 -0.23459,0.11296 -0.57926,0.026 -0.86891,0.026 h -16.81626 c -0.42577,0 -0.85152,0.0347 -1.28308,0.0551 0.18826,2.05351 1.63643,3.95932 3.7363,4.34454 a 22.519194,22.519194 0 0 0 6.00126,0.33887 c 1.84208,-0.1593 3.64072,-0.84863 5.44804,-1.32943 0.50398,-0.13323 0.83416,-0.17088 1.12959,0.40838 1.08034,2.114346 1.93476,5.798516 1.78415,8.211186 z m -8.02292,-19.547536 c 0.21144,-2.07958 -0.99924,-4.19972 -2.74575,-4.94408 -2.89636,-1.23965 -6.73114,0.14481 -7.49288,3.79713 -0.18537,0.89207 -0.0405,1.17302 0.86891,1.15854 2.38081,-0.0347 4.76161,0 7.14531,0 z m 24.48292,21.795096 a 39.512134,39.512134 0 0 1 -10.13726,-1.85945 c -0.62561,-0.19985 -1.03979,-0.48659 -0.84283,-1.22517 0.65457,-2.47349 1.30047,-4.94988 1.96952,-7.420456 0.19116,-0.69803 0.68933,-0.59955 1.20779,-0.37943 3.16282,1.3497 6.47335,1.737806 9.87079,1.47714 a 4.9527745,4.9527745 0 0 0 1.94345,-0.59954 c 1.21937,-0.67486 1.20199,-2.08538 -0.0811,-2.60673 a 48.389475,48.389475 0 0 0 -5.04547,-1.60748 c -2.68492,-0.74437 -5.2424,-1.73782 -7.13084,-3.87822 -3.00352,-3.40033 -2.78918,-9.48269 0.39681,-12.97569 2.85581,-3.13676 6.60081,-4.17076 10.63254,-4.37641 3.76526,-0.19115 7.40019,0.61404 11.00616,1.62776 0.76464,0.21433 1.19619,0.52134 0.91814,1.44818 -0.66616,2.20123 -1.28019,4.41985 -1.88842,6.63846 -0.22012,0.80228 -0.66616,0.75304 -1.31205,0.53293 -2.64438,-0.89498 -5.3264,-1.63934 -8.15325,-1.53797 a 4.086763,4.086763 0 0 0 -1.77257,0.37652 c -0.44025,0.24041 -0.9558,0.79361 -0.97318,1.22807 a 1.7088521,1.7088521 0 0 0 0.85443,1.31205 c 1.15854,0.50396 2.38949,0.79649 3.59148,1.17592 1.82181,0.57926 3.69865,1.01951 5.44805,1.76388 3.49011,1.48294 5.06863,4.30688 5.28007,8.02871 0.3939,6.875956 -4.10994,10.525366 -9.38421,11.875066 -2.08248,0.52714 -4.26054,0.66326 -6.39806,0.98186 z m 48.90212,-25.522706 c -2.75153,0 -5.53204,0.0405 -8.30965,-0.0232 -0.99346,-0.0232 -1.28599,0.27225 -1.28019,1.2686 0.0377,7.37992 0.0203,14.77143 0.0203,22.139766 0,0.35336 0,0.70671 0,1.15854 -1.86236,0.13035 -3.61756,0.34756 -5.37275,0.35337 -1.7552,0.005 -3.51619,-0.19696 -5.34668,-0.30992 -0.0202,-0.41708 -0.0521,-0.72988 -0.0521,-1.04269 q 0,-10.959816 0,-21.922536 c 0,-1.62776 0,-1.62776 -1.67698,-1.62776 -2.38661,0 -4.7761,-0.029 -7.1627,0.0203 -0.70092,0.0144 -1.07455,-0.25487 -1.08324,-0.8689 -0.0319,-2.48507 -0.026,-4.97016 0,-7.45523 0,-0.50107 0.25488,-0.82257 0.88918,-0.81968 q 14.59765,0.0377 29.1924,0.0319 a 0.72119348,0.72119348 0 0 1 0.20565,0.0637 c 0.70961,1.92608 0.7125,6.89913 -0.0232,9.03375 z"
       style="fill:#1155cc;stroke-width:0.28963593" />
    <path
       id="path14"
       d="m 269.59638,50.812674 h -18.16209 -17.93315 c -5.60594,0 -9.779,3.94301 -9.85287,9.52219 -0.0886,6.92052 0,13.84842 0,20.77632 0,0.13994 0,0.28007 0.0666,0.65594 2.95437,-0.15471 6.01955,0 8.86315,-0.54538 4.29125,-0.82545 7.15701,-4.79059 7.1644,-9.13893 v -3.20601 c 0.26593,0 0.46532,-0.0811 0.66474,-0.0811 h 6.89111 c 0.27318,4.14201 0.25116,7.87127 -2.71804,12.76502 0.25115,0 0.46532,0.0588 0.67951,0.0588 2.39305,0 4.80826,0.16224 7.17176,-0.0811 5.08894,-0.53064 8.47909,-4.59155 8.51602,-9.93488 0,-3.39026 0,-6.7805 0,-10.17076 v -1.0392 h 7.54108 a 1.2260702,1.223438 0 0 1 0.0887,0.30956 c 0,4.27467 0.14021,8.55669 -0.0811,12.824 -0.39884,7.63541 -6.50704,14.25376 -14.03335,15.47721 a 20.466511,20.422571 0 0 1 -3.07992,0.25785 q -13.20612,0 -26.41224,0 h -1.31468 v 15.926826 a 9.4614222,9.4411088 0 0 0 9.55003,9.5369 c 8.18366,0 16.35994,0 24.54358,0 h 1.11529 v 7.63544 h -13.59018 a 9.6017548,9.5811415 0 0 0 4.28386,8.24716 c 2.82883,2.00466 6.08604,1.47403 9.30632,1.57719 v 7.59123 c -4.71964,0.28742 -9.34325,0.0663 -13.60496,-2.84488 v 7.25221 h -7.7405 v -21.81553 c -4.87474,0.17673 -9.65345,0.0959 -13.97425,-2.94804 v 14.15797 h -7.60015 v -1.0097 q 0,-16.05211 0.0591,-32.09685 0,-19.855076 0,-39.702756 c 0,-8.5788 5.54684,-15.52145 13.7748,-17.24607 a 20.894897,20.850037 0 0 1 3.78164,-0.36113 c 2.21579,-0.0591 4.43157,0 6.64736,0 h 1.04143 a 9.40972,9.3895181 0 0 0 -3.69299,-6.70679 9.3137023,9.293707 0 0 0 -5.90878,-2.01205 c -11.52211,0 -23.04419,-0.0663 -34.56632,0 -3.69296,0 -7.25302,-0.36113 -10.49546,-2.21102 A 17.113282,17.076541 0 0 1 177.767,18.619744 c 0,-0.26538 0,-0.53064 -0.0368,-0.79596 v -0.59698 h 7.66666 c 0.10342,0.67069 0.16976,1.34137 0.3102,1.99731 a 9.6017548,9.5811415 0 0 0 9.72732,7.52488 7.0092812,6.9942329 0 0 0 3.92193,-1.70252 8.8040709,8.7851694 0 0 0 3.72993,-6.9279 c 0.10342,-4.88637 0,-9.7801199 0,-14.6738699 h 7.62231 V 17.447914 a 17.09851,17.061801 0 0 1 -2.30441,8.68935 6.3667022,6.3530335 0 0 0 -0.30284,0.65594 c 3.0578,0 6.01956,0.0959 8.96658,0 a 9.4688078,9.4484791 0 0 0 9.34322,-8.78516 c 0.18454,-2.41002 0,-4.8348 0.0443,-7.25221 V 9.7240341 h 7.68879 a 2.7401932,2.7343103 0 0 1 0.0663,0.4569299 c 0,2.44691 0.0443,4.89378 0,7.37012 a 16.987721,16.951249 0 0 1 -2.55554,8.7041 4.3207899,4.3115135 0 0 0 -0.22885,0.56749 16.987721,16.951249 0 0 1 12.16469,4.64318 17.305317,17.268165 0 0 1 5.50255,11.79216 17.51951,17.481898 0 0 0 2.27488,-0.2138 9.6017548,9.5811415 0 0 0 7.38596,-9.47059 c 0,-1.47403 0,-2.94802 0,-4.42205 h 7.43766 c 0,2.45424 0.14021,4.84216 -0.0371,7.20797 a 15.569616,15.536189 0 0 1 -2.52598,6.7805 h 5.90878 z m -99.71933,96.452036 a 75.765233,75.602577 0 0 1 0.40623,-8.10712 c 0.26593,-1.81304 1.23346,-3.53028 1.8982,-5.27701 a 8.1688775,8.1513405 0 0 1 0.45794,-0.84019 h -5.90881 v -7.67965 h 0.94542 20.03074 c 4.65316,0 9.07735,-4.22307 9.1069,-8.88835 0.0666,-8.84412 0,-17.747236 0,-26.620836 0,-0.11066 0,-0.22105 -0.0443,-0.43483 h -26.49346 a 17.224072,17.187093 0 0 1 -17.26845,-17.17237 v -3.25022 h 7.74052 c 0,1.24556 -0.0886,2.47637 0,3.68505 0.44316,5.43913 4.43161,9.04314 9.8677,9.04314 h 6.54395 c -2.65158,-3.97249 -3.21291,-8.23241 -2.81407,-12.74293 h 7.5854 c 0,1.06866 0,2.1447 0,3.22075 a 9.1733691,9.1536745 0 0 0 1.98682,5.82236 8.8631587,8.8441304 0 0 0 6.53656,3.61874 c 2.08285,0.13993 4.18048,0 6.39627,0 v -0.87705 c 0,-3.24286 0,-6.48569 0,-9.72855 a 9.5278956,9.50744 0 0 0 -9.70516,-9.6843 H 153.2881 c -0.3176,0 -0.64257,0.0516 -0.96018,0.0811 v -7.73861 h 13.58285 c 0.42839,-4.27467 -3.02825,-8.76305 -7.50416,-9.50744 a 43.732302,43.638412 0 0 0 -6.07869,-0.22105 v -7.78284 l 4.86,0.13993 a 16.766142,16.730146 0 0 1 8.2132,2.45426 c 0.17004,0.0959 0.35455,0.16224 0.66475,0.30953 v -7.18583 h 7.65927 v 21.82288 h 1.11529 c 4.43158,0 8.80406,0 13.1987,0.0443 a 16.411615,16.376381 0 0 1 8.44957,2.59428 2.0680703,2.0636304 0 0 0 0.31759,0.13993 c 0,0 0.0518,0 0.16976,-0.0663 v -13.83365 h 7.53369 v 99.290116 h -7.51153 v -11.79216 c -0.27318,0.12516 -0.45794,0.1915 -0.62043,0.28742 a 16.987721,16.951249 0 0 1 -8.98134,2.57217 9.6017548,9.5811415 0 0 0 -9.88981,9.97176 c 0,1.47403 0,2.8891 0,4.33363 z"
       style="fill:#1155cc;stroke-width:0.73753691" />
  </g>
</svg>
