<?xml version="1.0" encoding="UTF-8" standalone="no"?>
<svg xmlns="http://www.w3.org/2000/svg" viewBox="0 0 230 190">
  <g>
    <g transform="matrix(0.2100631,0,0,0.2100631,3.2113387,101.42108)">
      <path style="fill:#1155cc" d="m 87.7,75.37 c 4.36,3 9.21,5.55 13.09,9.14 10.32,9.54 13.11,22 12.38,35.52 -0.53,9.89 -2.94,19.27 -9.52,27.08 -8.23,9.78 -19.32,14.26 -31.49,16.54 -20,3.74 -40,3 -60.07,0.89 -3,-0.32 -5.94,-0.73 -8.93,-0.92 -2.16,-0.14 -3.26,-1 -3.09,-3.25 0,-0.5 0,-1 0,-1.5 Q 0.09,83.13 0,7.38 C 0,3.7 1.29,2.91 4.65,2.47 20.17,0.44 35.74,-0.61 51.36,0.38 c 13,0.83 25.87,2.84 36.81,10.86 9.1,6.67 13.75,15.74 14.65,27 0.95,11.78 -1.67,22.3 -9.6,31.27 -1.8,2.05 -3.74,3.98 -5.52,5.86 z M 38.37,115 c 0,5.49 0,11 0,16.47 0,1.92 0.49,3.24 2.67,3.12 6.07,-0.34 12.27,-0.08 18.18,-1.26 8.88,-1.76 14.24,-8.36 14.33,-17.24 0.12,-10.65 -3.49,-15.4 -11.9,-18.57 -7,-2.63 -14.24,-2.11 -21.45,-1.88 -0.63,0 -1.7,1.86 -1.73,2.88 -0.19,5.48 -0.1,10.95 -0.1,16.48 z m 0,-68 c 0,4.75 0.05,9.5 0,14.24 0,1.86 0.53,2.92 2.54,2.72 4.56,-0.46 9.17,-0.63 13.66,-1.49 A 12.65,12.65 0 0 0 65.1,51.61 c 1.16,-6.58 0.84,-13 -5.36,-17.54 -6,-4.42 -12.9,-4.06 -19.76,-3.72 -0.58,0 -1.5,1.77 -1.53,2.74 -0.16,4.63 -0.07,9.26 -0.08,13.91 z"/>
      <path style="fill:#1155cc" d="M 293.2,47.44 A 116.77,116.77 0 0 1 328.69,47 c 2.46,0.31 2.18,1.93 2.18,3.54 q 0,12.37 0,24.73 c 0,26.23 0,52.47 0.06,78.7 0,3.26 -0.89,4.86 -4.19,5.81 -21.52,6.2 -43.21,8.79 -65.39,4 -16.6,-3.56 -26.89,-13.8 -30.75,-30.05 a 102.16,102.16 0 0 1 -2.36,-21.87 c -0.31,-20 0,-40 -0.2,-60 0,-3.76 1.11,-5.22 4.73,-5.19 q 14.74,0.13 29.49,0.14 c 3.08,0 3.89,1.43 3.87,4.41 q -0.18,30.73 0,61.46 a 41.37,41.37 0 0 0 1.25,9.58 c 1.76,7.15 7,10.27 13.92,11 11.93,1.17 11.93,1.14 11.93,-10.56 q 0,-35.6 0,-71.2 z"/>
      <path style="fill:#1155cc" d="M 389.27,117.71 A 18.11,18.11 0 0 0 402,133.09 c 7.22,2.3 14.59,2.15 21.87,0.86 6.11,-1.08 12,-3.11 18.11,-4.46 a 4,4 0 0 1 3.44,1.39 c 3.91,6.52 6.77,19.47 6.39,28.57 -6.12,1.54 -12.42,3.39 -18.83,4.69 -13.48,2.74 -27.08,3.2 -40.53,0.13 C 371.05,159.39 357.57,146.2 352.89,124.6 349,106.78 350,89.24 358.4,72.79 366.24,57.5 379,48.57 396,45.6 c 12.41,-2.17 24.42,-1.49 35.79,4.18 14.91,7.45 22.55,20.19 25.65,36.13 1.88,9.7 1.12,19.36 0,29.07 -0.35,3.06 -2.32,2.73 -4.3,2.73 z m 35.3,-26.33 A 19.5,19.5 0 0 0 420,78.79 c -4.76,-5.56 -11,-6.67 -17.74,-5.08 -7.35,1.74 -11.7,6.61 -13.52,14 -0.74,3 -0.2,4.1 3,4.06 9.87,-0.13 19.75,0 29.62,-0.06 1,-0.02 1.96,-0.2 3.21,-0.34 z"/>
      <path style="fill:#1155cc" d="m 133.22,163.56 c 0,-1.56 0,-2.77 0,-4 0.09,-36 0.25,-71.95 0.19,-107.92 0,-3.61 1.18,-4.94 4.56,-4.93 9.71,0 19.41,0.07 29.12,0 3.36,0 4,1.65 4,4.7 -0.11,25.23 -0.06,50.47 -0.06,75.71 0,4.91 0,4.91 4.94,4.91 11.49,0 23,0.07 34.48,-0.06 2.32,0 3.61,0.56 3.6,3 q 0,13 -0.15,26.07 c 0,2.1 -1.2,2.56 -3.19,2.55 -25.65,-0.05 -51.25,-0.03 -77.49,-0.03 z"/>
    </g>
    <path style="fill:#1155cc" d="m 48.306117,186.42768 v -42.42329 h 24.77559 c 0.70644,2.03465 0.74612,5.45836 0.0847,8.99584 h -1.74361 c -3.86821,0 -7.73906,0.0212 -11.60727,-0.0159 -0.83608,0 -1.18798,0.18521 -1.15623,1.09538 0.0635,1.78329 0.0503,3.57187 0,5.35516 -0.0212,0.80963 0.21696,1.09802 1.05834,1.08479 3.1406,-0.045 6.28385,0 9.42445,-0.0344 0.78053,0 1.0213,0.20903 1.16153,1.0213 a 20.833292,20.833292 0 0 1 0,7.09348 c -0.1323,0.79375 -0.41275,0.97102 -1.12978,0.96572 -3.07445,-0.0265 -6.15156,0.0212 -9.22602,-0.0317 -0.97366,-0.0185 -1.32291,0.2249 -1.2991,1.26207 0.0556,4.79425 0,9.5885 0.0397,14.38275 0,0.89429 -0.13494,1.27 -1.18798,1.39964 a 35.226625,35.226625 0 0 1 -9.19428,-0.15081 z m 41.01042,0.83873 c -2.99508,-0.0847 -5.85787,-0.61648 -8.46667,-2.1537 -3.70416,-2.18546 -5.59329,-5.59859 -6.37381,-9.68905 a 21.246042,21.246042 0 0 1 0.66675,-10.94581 q 2.61144,-7.7126 10.66006,-9.17575 c 3.46075,-0.62971 6.84742,-0.43392 10.12561,0.84402 4.193643,1.61661 6.707193,4.79161 7.881943,9.04081 1.2356,4.47411 1.22237,8.95615 -0.44186,13.31913 -1.85208,4.87098 -5.511273,7.5856 -10.617733,8.38994 -1.13771,0.17991 -2.29129,0.24871 -3.43429,0.37041 z m -5.35517,-16.40416 c 0.29105,1.79652 0.43392,3.27818 0.79375,4.70958 0.5133,2.11667 2.06905,3.48192 3.85498,3.6195 2.57175,0.19844 4.23334,-0.60325 5.10646,-2.84956 1.34938,-3.45546 1.37054,-6.98236 -0.13229,-10.41665 -0.79375,-1.81504 -2.30187,-2.64583 -4.2836,-2.62466 -1.98173,0.0212 -3.47927,0.84137 -4.13544,2.66435 -0.59002,1.65629 -0.85725,3.42371 -1.2065,4.89479 z m 35.782253,15.55221 a 28.5115,28.5115 0 0 1 -9.78958,0.0159 c -0.0159,-0.33603 -0.0423,-0.65617 -0.0423,-0.97896 0,-9.48532 0,-18.97327 -0.0212,-28.45859 0,-0.90223 0.18256,-1.27 1.15888,-1.32291 3.75708,-0.18786 7.50623,-0.61384 11.26331,-0.65617 3.21204,-0.037 6.38969,0.4789 9.19956,2.27277 3.32317,2.11667 4.41061,5.29167 4.14602,9.03023 -0.18521,2.64583 -1.18004,4.93183 -3.24379,6.6675 -0.51329,0.43127 -0.26458,0.79375 -0.0609,1.2065 q 2.91042,5.63033 5.80761,11.26067 c 0.14552,0.2831 0.26458,0.57943 0.46037,1.00012 a 36.5125,36.5125 0 0 1 -10.4484,0.037 1.3229167,1.3229167 0 0 1 -0.84931,-0.66675 c -2.00289,-4.23333 -3.96875,-8.49048 -5.95312,-12.7291 -0.26459,-0.57415 -0.14817,-0.86254 0.40216,-1.17475 1.2409,-0.70379 2.38125,-1.52929 3.0824,-2.84692 a 5.5165625,5.5165625 0 0 0 0.46831,-3.66183 c -0.23812,-1.32292 -1.36789,-2.22515 -2.91041,-2.45004 -2.40507,-0.35454 -2.66965,-0.14817 -2.66965,2.27541 m 46.90269,20.08982 c -5.78379,1.87854 -11.5861,2.73314 -17.50219,0.79375 -3.99256,-1.3044 -6.74688,-3.96875 -8.06715,-7.96396 -1.78858,-5.39486 -1.65893,-10.75796 0.96838,-15.875 2.04523,-3.96875 5.4266,-6.24681 9.84514,-7.02469 3.2438,-0.5715 6.38175,-0.39687 9.37418,1.05833 3.89996,1.89177 5.95842,5.16467 6.8342,9.29217 0.5715,2.69081 0.44978,5.38692 0,8.07508 -0.0423,0.24607 -0.39159,0.50271 -0.65882,0.63236 -0.2143,0.10319 -0.52916,0.0238 -0.79375,0.0238 h -15.36171 c -0.38894,0 -0.77787,0.0317 -1.1721,0.0503 0.17198,1.87589 1.49489,3.61685 3.41312,3.96875 a 20.571354,20.571354 0 0 0 5.48217,0.30956 c 1.68275,-0.14552 3.32581,-0.77523 4.97681,-1.21444 0.46038,-0.12171 0.762,-0.1561 1.03188,0.37306 0.98689,1.93146 1.76741,5.29696 1.62983,7.50094 z m -7.32896,-17.85673 c 0.19315,-1.89971 -0.91281,-3.83646 -2.50825,-4.51644 -2.64583,-1.13242 -6.14892,0.13229 -6.84477,3.46869 -0.16933,0.81491 -0.037,1.07156 0.79375,1.05833 2.17488,-0.0317 4.34975,0 6.52727,0 z m 22.36523,19.90989 a 36.094458,36.094458 0 0 1 -9.26042,-1.69862 c -0.5715,-0.18256 -0.94985,-0.4445 -0.76993,-1.11919 0.59795,-2.25954 1.18798,-4.52173 1.79916,-6.77862 0.17463,-0.63765 0.62971,-0.54769 1.10332,-0.34661 2.88925,1.23296 5.91343,1.5875 9.017,1.34938 a 4.524375,4.524375 0 0 0 1.77535,-0.54769 c 1.1139,-0.61648 1.09802,-1.905 -0.0741,-2.38125 a 44.203937,44.203937 0 0 0 -4.60905,-1.46844 c -2.45268,-0.67998 -4.78895,-1.5875 -6.51404,-3.54277 -2.74373,-3.10621 -2.54793,-8.66246 0.36248,-11.85333 2.60879,-2.86544 6.02986,-3.81 9.71286,-3.99786 3.43958,-0.17462 6.7601,0.56092 10.05416,1.48696 0.6985,0.19579 1.09273,0.47625 0.83873,1.32292 -0.60854,2.01083 -1.16946,4.03754 -1.72508,6.06425 -0.20108,0.73289 -0.60854,0.68791 -1.19856,0.48683 -2.41565,-0.81756 -4.86569,-1.49754 -7.44802,-1.40494 a 3.7332708,3.7332708 0 0 0 -1.61925,0.34396 c -0.40217,0.21961 -0.87313,0.72496 -0.889,1.12184 a 1.5610417,1.5610417 0 0 0 0.78052,1.19856 c 1.05833,0.46037 2.18281,0.7276 3.28083,1.07421 1.66423,0.52916 3.37873,0.93133 4.97681,1.61131 3.18823,1.35467 4.63021,3.93435 4.82336,7.33425 0.35983,6.28121 -3.75444,9.61496 -8.5725,10.84792 -1.90236,0.48154 -3.89202,0.60589 -5.84465,0.89693 z m 44.67224,-23.31508 c -2.51354,0 -5.05354,0.037 -7.5909,-0.0212 -0.90752,-0.0212 -1.17475,0.2487 -1.16945,1.15887 0.0344,6.74158 0.0185,13.49375 0.0185,20.22475 0,0.32279 0,0.64558 0,1.05833 -1.70127,0.11907 -3.30465,0.3175 -4.90802,0.3228 -1.60338,0.005 -3.21205,-0.17992 -4.88421,-0.28311 -0.0185,-0.381 -0.0476,-0.66675 -0.0476,-0.9525 q 0,-10.01183 0,-20.02631 c 0,-1.48696 0,-1.48696 -1.53193,-1.48696 -2.18017,0 -4.36298,-0.0265 -6.54315,0.0185 -0.64029,0.0132 -0.9816,-0.23283 -0.98954,-0.79375 -0.0291,-2.27012 -0.0238,-4.54025 0,-6.81037 0,-0.45773 0.23283,-0.75142 0.81227,-0.74878 q 13.335,0.0344 26.66735,0.0291 a 0.6588125,0.6588125 0 0 1 0.18786,0.0582 c 0.64823,1.75948 0.65087,6.30238 -0.0212,8.25236 z"/>
    <path style="fill:#1155cc" d="m 219.68112,50.812678 h -18.16209 -17.93315 c -5.60594,0 -9.779,3.943005 -9.85287,9.522185 -0.0886,6.920517 0,13.848421 0,20.776326 0,0.139934 0,0.280064 0.0666,0.655936 2.95437,-0.154709 6.01955,0 8.86315,-0.545383 4.29125,-0.825446 7.15701,-4.790584 7.1644,-9.138926 v -3.206007 c 0.26593,0 0.46532,-0.08112 0.66474,-0.08112 h 6.89111 c 0.27318,4.142008 0.25116,7.871264 -2.71804,12.765016 0.25115,0 0.46532,0.05882 0.67951,0.05882 2.39305,0 4.80826,0.162235 7.17176,-0.08112 5.08894,-0.530636 8.47909,-4.591555 8.51602,-9.934881 0,-3.390263 0,-6.780499 0,-10.170762 v -1.039195 h 7.54108 a 1.2260702,1.223438 0 0 1 0.0887,0.309556 c 0,4.274667 0.14021,8.556692 -0.0811,12.824 -0.39884,7.63541 -6.50704,14.253759 -14.03335,15.47721 a 20.466511,20.422571 0 0 1 -3.07992,0.25785 q -13.20612,0 -26.41224,0 h -1.31468 v 15.926827 a 9.4614222,9.4411088 0 0 0 9.55003,9.5369 c 8.18366,0 16.35994,0 24.54358,0 h 1.11529 v 7.63544 h -13.59018 a 9.6017548,9.5811415 0 0 0 4.28386,8.24716 c 2.82883,2.00466 6.08604,1.47403 9.30632,1.57719 v 7.59123 c -4.71964,0.28742 -9.34325,0.0663 -13.60496,-2.84488 v 7.25221 h -7.7405 v -21.81553 c -4.87474,0.17673 -9.65345,0.0959 -13.97425,-2.94804 v 14.15797 h -7.60015 v -1.0097 q 0,-16.05211 0.0591,-32.09685 0,-19.855072 0,-39.702756 c 0,-8.578798 5.54684,-15.521448 13.7748,-17.246072 a 20.894897,20.850037 0 0 1 3.78164,-0.361126 c 2.21579,-0.0591 4.43157,0 6.64736,0 h 1.04143 a 9.40972,9.3895181 0 0 0 -3.69299,-6.706796 9.3137023,9.293707 0 0 0 -5.90878,-2.012048 c -11.52211,0 -23.04419,-0.06634 -34.56632,0 -3.69296,0 -7.25302,-0.361126 -10.49546,-2.211022 a 17.113282,17.076541 0 0 1 -8.81883,-13.612567 c 0,-0.265374 0,-0.530637 -0.0368,-0.795955 v -0.59698 h 7.66666 c 0.10342,0.670683 0.16976,1.341365 0.3102,1.997302 a 9.6017548,9.5811415 0 0 0 9.72732,7.524884 7.0092812,6.9942329 0 0 0 3.92193,-1.702519 8.8040709,8.7851694 0 0 0 3.72993,-6.927904 c 0.10342,-4.886365 0,-9.7801178 0,-14.6738691 h 7.62231 V 17.447896 a 17.09851,17.061801 0 0 1 -2.30441,8.689352 6.3667022,6.3530335 0 0 0 -0.30284,0.655936 c 3.0578,0 6.01956,0.09589 8.96658,0 a 9.4688078,9.4484791 0 0 0 9.34322,-8.785159 c 0.18454,-2.410025 0,-4.834796 0.0443,-7.252208 V 9.7240113 h 7.68879 a 2.7401932,2.7343103 0 0 1 0.0663,0.4569337 c 0,2.446905 0.0443,4.893781 0,7.370121 a 16.987721,16.951249 0 0 1 -2.55554,8.704098 4.3207899,4.3115135 0 0 0 -0.22885,0.567487 16.987721,16.951249 0 0 1 12.16469,4.64318 17.305317,17.268165 0 0 1 5.50255,11.792164 17.51951,17.481898 0 0 0 2.27488,-0.213805 9.6017548,9.5811415 0 0 0 7.38596,-9.470588 c 0,-1.474023 0,-2.94802 0,-4.422044 h 7.43766 c 0,2.454235 0.14021,4.842155 -0.0371,7.207969 a 15.569616,15.536189 0 0 1 -2.52598,6.780499 h 5.90878 z m -99.71933,96.452032 a 75.765233,75.602577 0 0 1 0.40623,-8.10712 c 0.26593,-1.81304 1.23346,-3.53028 1.8982,-5.27701 a 8.1688775,8.1513405 0 0 1 0.45794,-0.84019 h -5.90881 v -7.67965 h 0.94542 20.03074 c 4.65316,0 9.07735,-4.22307 9.1069,-8.88835 0.0666,-8.84412 0,-17.747231 0,-26.62084 0,-0.11066 0,-0.22105 -0.0443,-0.43483 H 120.36065 A 17.224072,17.187093 0 0 1 103.0922,72.244354 v -3.250217 h 7.74052 c 0,1.245557 -0.0886,2.476368 0,3.685046 0.44316,5.439134 4.43161,9.043146 9.8677,9.043146 h 6.54395 c -2.65158,-3.972497 -3.21291,-8.232418 -2.81407,-12.742938 h 7.5854 c 0,1.068659 0,2.144706 0,3.220753 a 9.1733691,9.1536745 0 0 0 1.98682,5.822365 8.8631587,8.8441304 0 0 0 6.53656,3.618731 c 2.08285,0.139934 4.18048,0 6.39627,0 v -0.877045 c 0,-3.242858 0,-6.485688 0,-9.728547 a 9.5278956,9.50744 0 0 0 -9.70516,-9.684308 h -33.85735 c -0.3176,0 -0.64257,0.05157 -0.96018,0.08112 v -7.738605 h 13.58285 c 0.42839,-4.274666 -3.02825,-8.763054 -7.50416,-9.507439 a 43.732302,43.638412 0 0 0 -6.07869,-0.221052 v -7.782843 l 4.86,0.139935 a 16.766142,16.730146 0 0 1 8.2132,2.454263 c 0.17004,0.09589 0.35455,0.162234 0.66475,0.309528 v -7.185835 h 7.65927 v 21.82288 h 1.11529 c 4.43158,0 8.80406,0 13.1987,0.04432 a 16.411615,16.376381 0 0 1 8.44957,2.594281 2.0680703,2.0636304 0 0 0 0.31759,0.139934 c 0,0 0.0518,0 0.16976,-0.06634 V 42.601839 h 7.53369 v 99.290111 h -7.51153 v -11.79216 c -0.27318,0.12516 -0.45794,0.1915 -0.62043,0.28742 a 16.987721,16.951249 0 0 1 -8.98134,2.57217 9.6017548,9.5811415 0 0 0 -9.88981,9.97176 c 0,1.47403 0,2.8891 0,4.33363 z"/>
  </g>
</svg>
