<svg xmlns="http://www.w3.org/2000/svg" xmlns:xlink="http://www.w3.org/1999/xlink" viewBox="0 0 350.28 45.37"><defs><style>.cls-1,.cls-26,.cls-27,.cls-3,.cls-37,.cls-6{fill:none;}.cls-2{clip-path:url(#clip-path);}.cls-3,.cls-6{stroke:#ededed;}.cls-26,.cls-27,.cls-3,.cls-37,.cls-6{stroke-miterlimit:10;}.cls-26,.cls-3{stroke-width:4px;}.cls-4{fill:#ededed;}.cls-5{fill:#f9b233;}.cls-6{stroke-width:6px;}.cls-7{fill:#f5f5f6;}.cls-8{opacity:0.43;}.cls-9{clip-path:url(#clip-path-4);}.cls-10{clip-path:url(#clip-path-5);}.cls-11{clip-path:url(#clip-path-6);}.cls-12{fill:#c4ab38;}.cls-13{fill:#d6c471;}.cls-14{fill:#ebe2bf;}.cls-15{fill:#dfd295;}.cls-16{fill:#dbca80;}.cls-17{fill:#d8c77c;}.cls-18{clip-path:url(#clip-path-8);}.cls-19{fill:#263267;}.cls-20{fill:#6c6c70;}.cls-21{fill:#240f0c;}.cls-22{fill:#5a5f72;}.cls-23{font-size:5.5px;fill:#1d1d1b;font-family:Bahnschrift_400_, Bahnschrift 400 ;}.cls-24{clip-path:url(#clip-path-10);}.cls-25{fill:#4881c2;}.cls-26,.cls-27{stroke:#fff;}.cls-27{stroke-width:2px;}.cls-28{clip-path:url(#clip-path-12);}.cls-29{fill:#969696;}.cls-30{fill:#fefefe;}.cls-31{clip-path:url(#clip-path-14);}.cls-32{fill:#449344;}.cls-33{fill:#377a36;}.cls-34{clip-path:url(#clip-path-16);}.cls-35{fill:#be1622;}.cls-36{fill:#fff;}.cls-37{stroke:#2d1412;stroke-width:8px;}.cls-38{fill:#d11c32;}.cls-39{clip-path:url(#clip-path-18);}.cls-40{fill:#b2a897;}.cls-41{fill:#e9e4d9;}.cls-42{fill:#d8cdc3;}.cls-43{fill:#d9c088;}.cls-44{fill:#edd6a6;}.cls-45{fill:#ddc297;}.cls-46{clip-path:url(#clip-path-20);}.cls-47{fill:#de5e36;}.cls-48{fill:#d7dadd;}.cls-49{fill:#eda347;}.cls-50{fill:#5293cf;}</style><clipPath id="clip-path" transform="translate(-37.43 -54.04)"><rect class="cls-1" x="254.36" y="35.23" width="107.5" height="107.5"/></clipPath><clipPath id="clip-path-4" transform="translate(-37.43 -54.04)"><rect class="cls-1" x="308.82" y="72.19" width="1.61" height="20.74"/></clipPath><clipPath id="clip-path-5" transform="translate(-37.43 -54.04)"><rect class="cls-1" x="299.24" y="72.3" width="1.61" height="20.74"/></clipPath><clipPath id="clip-path-6" transform="translate(-37.43 -54.04)"><rect class="cls-1" x="180.75" width="156.25" height="156.25"/></clipPath><clipPath id="clip-path-8" transform="translate(-37.43 -54.04)"><rect class="cls-1" x="153.96" y="58.11" width="50.04" height="50.04"/></clipPath><clipPath id="clip-path-10" transform="translate(-37.43 -54.04)"><rect class="cls-1" x="23" y="1.61" width="185.71" height="162.5"/></clipPath><clipPath id="clip-path-12" transform="translate(-37.43 -54.04)"><rect class="cls-1" x="101.5" y="40.73" width="78" height="78"/></clipPath><clipPath id="clip-path-14" transform="translate(-37.43 -54.04)"><rect class="cls-1" x="284.5" y="34.73" width="136" height="136"/></clipPath><clipPath id="clip-path-16" transform="translate(-37.43 -54.04)"><rect class="cls-1" x="192.21" y="56.36" width="39" height="39"/></clipPath><clipPath id="clip-path-18" transform="translate(-37.43 -54.04)"><rect class="cls-1" y="31.98" width="120.75" height="120.75"/></clipPath><clipPath id="clip-path-20" transform="translate(-37.43 -54.04)"><rect class="cls-1" x="330" y="38.23" width="82" height="82"/></clipPath></defs><title>Fichier 1</title><g id="Calque_2" data-name="Calque 2"><g id="Calque_1-2" data-name="Calque 1"><g class="cls-2"><g class="cls-2"><g class="cls-2"><rect class="cls-3" x="256.7" y="12" width="21.32" height="30.64" rx="2.15" ry="2.15"/><path class="cls-4" d="M314.06,96.51H295.3a1.39,1.39,0,1,1,0-2.78h18.77a1.39,1.39,0,1,1,0,2.78" transform="translate(-37.43 -54.04)"/><path class="cls-5" d="M312.94,94.83h-16.3a2.16,2.16,0,0,1-2.15-2.15v-24a2.16,2.16,0,0,1,2.15-2.15h16.3a2.16,2.16,0,0,1,2.15,2.15v24a2.16,2.16,0,0,1-2.15,2.15" transform="translate(-37.43 -54.04)"/><path class="cls-6" d="M320,88.44h0a3.82,3.82,0,0,1-3.81-3.81V78.72a3.81,3.81,0,1,1,7.61,0v5.91A3.82,3.82,0,0,1,320,88.44Z" transform="translate(-37.43 -54.04)"/><path class="cls-7" d="M303.27,65.6c0,3.31-3.37,6-7.53,6s-7.52-2.69-7.52-6,3.37-6,7.52-6,7.53,2.69,7.53,6" transform="translate(-37.43 -54.04)"/><path class="cls-7" d="M310.84,61.41a5.4,5.4,0,1,1-5.4-5.4,5.4,5.4,0,0,1,5.4,5.4" transform="translate(-37.43 -54.04)"/><path class="cls-7" d="M305.44,65c0,2.45,2.74,4.43,6.13,4.43s6.13-2,6.13-4.43-2.74-4.43-6.13-4.43-6.13,2-6.13,4.43" transform="translate(-37.43 -54.04)"/><path class="cls-7" d="M306.14,59a5.2,5.2,0,1,1-5.2-4.93,5.07,5.07,0,0,1,5.2,4.93" transform="translate(-37.43 -54.04)"/><path class="cls-7" d="M315.86,59.91c0,2.15-2.25,3.9-5,3.9s-5-1.74-5-3.9,2.25-3.9,5-3.9,5,1.74,5,3.9" transform="translate(-37.43 -54.04)"/><path class="cls-7" d="M310.44,67.46c0,1.35-2,2.44-4.5,2.44s-4.5-1.09-4.5-2.44,2-2.44,4.5-2.44,4.5,1.09,4.5,2.44" transform="translate(-37.43 -54.04)"/><g class="cls-8"><g class="cls-9"><path class="cls-7" d="M309.63,92.92h0a.81.81,0,0,1-.81-.81V73a.81.81,0,0,1,1.61,0V92.12a.81.81,0,0,1-.81.81" transform="translate(-37.43 -54.04)"/></g></g><g class="cls-8"><g class="cls-10"><path class="cls-7" d="M300,93h0a.81.81,0,0,1-.81-.81V73.1a.81.81,0,1,1,1.61,0V92.23A.81.81,0,0,1,300,93" transform="translate(-37.43 -54.04)"/></g></g></g></g></g><g class="cls-11"><g class="cls-11"><path class="cls-12" d="M260.89,60.81l1.76,2.89c.43.71.85,1.41,1.32,2.09a2.28,2.28,0,0,1-.12,2.79c-.79.93-1.7,1.76-2.58,2.62a.54.54,0,0,1-.81,0,35.72,35.72,0,0,1-2.57-2.62,2.28,2.28,0,0,1-.15-2.67c1.07-1.61,2-3.29,3-4.94l.11-.14" transform="translate(-37.43 -54.04)"/><path class="cls-12" d="M278.53,61.51l.74,2.93c.23.92.45,1.84.75,2.74a2.31,2.31,0,0,1-1,2.7c-1,.59-2,1.11-3.07,1.65a.55.55,0,0,1-.85-.28c-.54-1-1.08-2-1.57-3a2.28,2.28,0,0,1,.56-2.84c1.53-1.23,2.92-2.62,4.47-3.93" transform="translate(-37.43 -54.04)"/><path class="cls-12" d="M248.32,67.12a2.05,2.05,0,0,1-.27,1.08c-.49.93-1,1.85-1.48,2.77-.28.51-.51.58-1,.31-.91-.47-1.82-.94-2.71-1.44a2.37,2.37,0,0,1-1.22-2.92c.52-1.71.88-3.45,1.34-5.17.11-.41.13-.42.46-.13l3.26,2.92a4.86,4.86,0,0,0,.52.42,2.42,2.42,0,0,1,1.13,2.15" transform="translate(-37.43 -54.04)"/><path class="cls-12" d="M249.71,83.64a8.93,8.93,0,0,1,2.23-5.69c.76-.92,1.42-.83,1.87.28A3.19,3.19,0,0,1,252.7,82a8.51,8.51,0,0,0-2.42,2.1c-.1.13-.19.21,0,.33a.67.67,0,0,1,.27.44L252.44,91a.59.59,0,0,1-.06.6c-.24.28-.64.18-.78-.24-.26-.77-.49-1.55-.73-2.32l-1.2-3.94a.63.63,0,0,1,0-.47c.08-.19-.08-.26-.23-.31a7.32,7.32,0,0,0-2.88-.36,3.11,3.11,0,0,1-3.25-3.33c.05-.4.3-.56.79-.54a6.17,6.17,0,0,1,2.53.85,8.33,8.33,0,0,1,3.11,2.65" transform="translate(-37.43 -54.04)"/><path class="cls-12" d="M261.12,84.2a7.63,7.63,0,0,1,2.61-4,5.89,5.89,0,0,1,1.44-1c.79-.36,1.19-.16,1.32.68a3.64,3.64,0,0,1-.71,2.79,2.37,2.37,0,0,1-1.44.81,8.07,8.07,0,0,0-2.76,1.22c-.17.12-.31.22-.11.43s0,.22,0,.33q0,3.26,0,6.52c0,.06,0,.13,0,.19a.41.41,0,0,1-.43.42.4.4,0,0,1-.45-.36,2.14,2.14,0,0,1,0-.41c0-2.06,0-4.12,0-6.19a.84.84,0,0,1,.27-.74,11,11,0,0,0-3.25-1.52,3,3,0,0,1-2-3.78.68.68,0,0,1,1-.53,5.82,5.82,0,0,1,2.1,1.48A7.28,7.28,0,0,1,261,84.14s0,.16.13.07" transform="translate(-37.43 -54.04)"/><path class="cls-12" d="M271.85,84a8.39,8.39,0,0,1,5.25-3.62l.22,0c.79-.08,1.07.19,1,1a3.46,3.46,0,0,1-1.59,2.59,1.8,1.8,0,0,1-1,.31,11.49,11.49,0,0,0-3.52.32.83.83,0,0,1-.43.07.67.67,0,0,1-.33-.15,9.37,9.37,0,0,0-2.4-2.18A3.07,3.07,0,0,1,268,78c.34-.59.75-.67,1.28-.22a4.82,4.82,0,0,1,.92,1A8.29,8.29,0,0,1,271.8,84c0,.05,0,.09,0,.14s0,.09,0,.13.05-.17.09-.26" transform="translate(-37.43 -54.04)"/><path class="cls-12" d="M279.67,72.61a5.36,5.36,0,0,1-.07.79,2.46,2.46,0,0,1-1.63,2,8,8,0,0,0-2.71,1.7c-.08.08-.16.18-.29.14s-.16-.18-.18-.31a2.52,2.52,0,0,1,.08-.85,8.56,8.56,0,0,1,3.22-5c.7-.55,1.18-.37,1.45.48a3.53,3.53,0,0,1,.12,1.07" transform="translate(-37.43 -54.04)"/><path class="cls-12" d="M266.16,76.6a2.72,2.72,0,0,1-1.69,2.63A7.89,7.89,0,0,0,261.94,81c-.09.1-.18.24-.34.16s-.15-.23-.15-.36a6.32,6.32,0,0,1,.52-2.47,8.85,8.85,0,0,1,2.45-3.4,1.92,1.92,0,0,1,.21-.15c.59-.4,1-.27,1.28.4a4.84,4.84,0,0,1,.26,1.44" transform="translate(-37.43 -54.04)"/><path class="cls-12" d="M279.13,77.15a4,4,0,0,1-.79,2.11,2.82,2.82,0,0,1-2.11,1,7.42,7.42,0,0,0-2.51.83c-.14.08-.28.26-.46.1s-.06-.35,0-.52a7.06,7.06,0,0,1,2.2-3.11,9.34,9.34,0,0,1,2-1.36l.34-.14c.93-.33,1.33,0,1.32,1.12" transform="translate(-37.43 -54.04)"/><path class="cls-12" d="M252.52,76.09a2.21,2.21,0,0,1-.84,1.77,8.82,8.82,0,0,0-2.06,2.59c0,.1-.09.23-.22.23s-.2-.14-.25-.25a5.19,5.19,0,0,1-.28-2.18,8.91,8.91,0,0,1,1.25-4.15,2.4,2.4,0,0,1,.42-.57.67.67,0,0,1,1.1,0,3.8,3.8,0,0,1,.89,2.52" transform="translate(-37.43 -54.04)"/><path class="cls-12" d="M261.63,75.09a8.54,8.54,0,0,1,1.8-5.2.71.71,0,0,1,1.27.06,3.84,3.84,0,0,1,.68,2.66,2.17,2.17,0,0,1-.81,1.47,8.89,8.89,0,0,0-2.27,2.61c0,.09-.11.18-.22.17s-.2-.14-.24-.25a4.69,4.69,0,0,1-.2-1.52" transform="translate(-37.43 -54.04)"/><path class="cls-12" d="M256,76.47a3.71,3.71,0,0,1,.29-1.45.67.67,0,0,1,1-.36,3,3,0,0,1,.82.64,8.85,8.85,0,0,1,2.44,4.46,2.92,2.92,0,0,1,.08,1.11c-.06.32-.2.38-.41.16a8.87,8.87,0,0,0-2.69-1.86,2.66,2.66,0,0,1-1.57-2.7" transform="translate(-37.43 -54.04)"/><path class="cls-12" d="M242.45,76.76a3.65,3.65,0,0,1,0-.41.68.68,0,0,1,.91-.62,1.62,1.62,0,0,1,.4.11,8.54,8.54,0,0,1,4.42,4.27,3.19,3.19,0,0,1,.18.53c0,.12.06.25-.06.35s-.23,0-.34,0a7.59,7.59,0,0,0-2.08-.8q-.53-.11-1.07-.19a2.41,2.41,0,0,1-2-1.49,4.39,4.39,0,0,1-.42-1.69" transform="translate(-37.43 -54.04)"/><path class="cls-12" d="M247.32,72.27a7.33,7.33,0,0,1,.38-2.64,2.47,2.47,0,0,1,.24-.51.66.66,0,0,1,1-.24A3.16,3.16,0,0,1,250,73.15a8.25,8.25,0,0,0-1.3,3c0,.11-.06.23-.19.26s-.23-.09-.3-.19a6.44,6.44,0,0,1-.86-2.3,7.69,7.69,0,0,1-.09-1.61" transform="translate(-37.43 -54.04)"/><path class="cls-12" d="M272.69,78.66a5,5,0,0,1-.21,1.85c0,.14-.08.31-.26.33s-.23-.15-.3-.28A7.52,7.52,0,0,0,270,78.19a2.64,2.64,0,0,1-.9-2.8,4.25,4.25,0,0,1,.67-1.49c.43-.62.93-.63,1.39,0a8,8,0,0,1,1.25,2.82,5.74,5.74,0,0,1,.24,2" transform="translate(-37.43 -54.04)"/><path class="cls-12" d="M260.46,75.08a5.43,5.43,0,0,1-.2,1.42c0,.13-.06.28-.24.29s-.21-.11-.27-.22a8.29,8.29,0,0,0-2-2.29,3.16,3.16,0,0,1-.36-4.46.69.69,0,0,1,1.15,0,5.17,5.17,0,0,1,1.08,1.78,8.92,8.92,0,0,1,.79,3.54" transform="translate(-37.43 -54.04)"/><path class="cls-12" d="M274.27,72.67a6.76,6.76,0,0,1-.83,3.52,1.9,1.9,0,0,1-.11.2.3.3,0,0,1-.32.15.26.26,0,0,1-.2-.24,8.15,8.15,0,0,0-1.22-2.87,3.06,3.06,0,0,1,.88-4.21c.6-.44,1-.33,1.33.36a7.58,7.58,0,0,1,.48,3.1" transform="translate(-37.43 -54.04)"/><path class="cls-12" d="M241.93,72.35a2.83,2.83,0,0,1,.11-1c.27-.79.8-1,1.45-.43a10.07,10.07,0,0,1,2,2.09,7.47,7.47,0,0,1,1.3,3.42.55.55,0,0,1,0,.11c0,.18,0,.41-.15.5s-.28-.12-.39-.22a7.52,7.52,0,0,0-2.4-1.5,2.71,2.71,0,0,1-1.91-2.93" transform="translate(-37.43 -54.04)"/><path class="cls-12" d="M271.73,84.52h.44c-.17.08-.3.18-.19.4s0,.25-.05.36l-1.82,5.94-.07.21c-.15.45-.34.59-.65.5s-.37-.33-.23-.78l1.84-6c.07-.21.11-.44.33-.56a.84.84,0,0,1,.4-.06" transform="translate(-37.43 -54.04)"/><path class="cls-12" d="M249.65,87.36a27.72,27.72,0,0,1-3,.86,2.69,2.69,0,0,1-2.75-1.14,2.73,2.73,0,0,1-.28-3,.76.76,0,0,1,.33-.41,3.57,3.57,0,0,0-.18,1.15,2.22,2.22,0,0,0,1.15,1.62,6.35,6.35,0,0,0,3.48.83c.35,0,.7,0,1,0,.08,0,.21-.1.22.08" transform="translate(-37.43 -54.04)"/><path class="cls-12" d="M272.62,87.51a8.63,8.63,0,0,0,3.28-.44,3.81,3.81,0,0,0,1.33-.82,1.94,1.94,0,0,0,.51-2c0-.12-.07-.24-.1-.36s0,0,0-.08a2,2,0,0,1,.55,1.15,2.89,2.89,0,0,1-3.64,3.35c-.82-.21-1.62-.5-2.43-.75.12-.21.3-.07.46-.08" transform="translate(-37.43 -54.04)"/><path class="cls-13" d="M272.62,87.51c-.15.05-.32-.05-.46.08l-.38-.08a1.42,1.42,0,0,1,.84,0" transform="translate(-37.43 -54.04)"/><path class="cls-14" d="M271.73,84.52c-.12.13-.26.06-.4.06l.08-.14c.11,0,.23,0,.32.08" transform="translate(-37.43 -54.04)"/><path class="cls-15" d="M249.65,87.36c0-.1-.15,0-.22-.08.14-.11.31,0,.48-.08-.07.13-.18.13-.26.16" transform="translate(-37.43 -54.04)"/><path class="cls-16" d="M261.12,84.2c0,.07.05.21-.08.19s-.05-.16-.06-.26Z" transform="translate(-37.43 -54.04)"/><path class="cls-17" d="M271.85,84a.34.34,0,0,1-.1.26c-.08-.11,0-.18,0-.27h.06" transform="translate(-37.43 -54.04)"/></g></g><g class="cls-18"><g class="cls-18"><path class="cls-19" d="M178.71,73.64c-1.38-5.8-4.19-10.2-7.62-11.74l-.11,0h-.92a2,2,0,0,0-2,2V95.21a2,2,0,0,0,2,2H184.9a2,2,0,0,0,2-2V67.64c-3.21,0-6.11,2.29-8.2,6" transform="translate(-37.43 -54.04)"/><path class="cls-20" d="M178.71,73.64c2.09-3.7,5-6,8.2-6v-.09L171.09,61.9c3.43,1.54,6.24,5.94,7.62,11.74" transform="translate(-37.43 -54.04)"/><path class="cls-21" d="M171.09,61.9l-.11,0h0Z" transform="translate(-37.43 -54.04)"/><path class="cls-21" d="M182.33,63.67l-.29.05a3.48,3.48,0,0,1-3.24-1.87H171l15.93,5.69V65.11a2.71,2.71,0,0,1-1.28.52,3.52,3.52,0,0,1-3.3-2" transform="translate(-37.43 -54.04)"/><path class="cls-21" d="M171.09,61.9l15.82,5.65h0L171,61.85l.11,0" transform="translate(-37.43 -54.04)"/><rect class="cls-22" x="130.79" y="22.12" width="18.51" height="7.76"/></g><text class="cls-23" transform="translate(131.22 28.14)">CHOCO</text></g><g class="cls-24"><g class="cls-24"><path class="cls-25" d="M95,85.44a9.24,9.24,0,1,1,9.24,9.24A9.24,9.24,0,0,1,95,85.44" transform="translate(-37.43 -54.04)"/><polygon class="cls-25" points="66.84 12.85 58.88 26.65 74.81 26.65 66.84 12.85"/><path class="cls-26" d="M97.83,83.88c-.07.26-1,3.74,1.21,6a5.32,5.32,0,0,0,2.25,1.37" transform="translate(-37.43 -54.04)"/><path class="cls-25" d="M85.94,73.12a4.62,4.62,0,1,1,4.62,4.62,4.62,4.62,0,0,1-4.62-4.62" transform="translate(-37.43 -54.04)"/><polygon class="cls-25" points="53.13 9.8 49.15 16.7 57.11 16.7 53.13 9.8"/><path class="cls-27" d="M87.34,72.34a3.35,3.35,0,0,0,.61,3,2.66,2.66,0,0,0,1.12.68" transform="translate(-37.43 -54.04)"/></g></g><g class="cls-28"><g class="cls-28"><path d="M129.69,96.9h0a3.31,3.31,0,0,1-.8-.24,2.26,2.26,0,0,1-1.17-1.46,2.17,2.17,0,0,1-.07-.64q0-9.67,0-19.34c0-2.37,0-4.74,0-7.11a1.93,1.93,0,0,1,.49-1.25,2.11,2.11,0,0,1,.82-.64c.18-.07.21-.17.2-.4a6,6,0,0,1,0-1.31A2.26,2.26,0,0,1,131,62.66a4.84,4.84,0,0,1,.54,0h17.91a2.27,2.27,0,0,1,2.42,2.28c0,.31,0,.62,0,.94a.4.4,0,0,0,.25.41,2.19,2.19,0,0,1,1.12,1.25,2,2,0,0,1,.12.68q0,13.3,0,26.6c0,.12,0,.24,0,.35a2.32,2.32,0,0,1-1.45,1.64,1.56,1.56,0,0,1-.66.1H130a.5.5,0,0,0-.29,0" transform="translate(-37.43 -54.04)"/><path class="cls-29" d="M129.69,96.9c0-.11.15-.06.23-.06h21.16a.44.44,0,0,1,.26,0s0,0,0,0H129.69Z" transform="translate(-37.43 -54.04)"/><path class="cls-30" d="M152.61,81.46q0,5,0,10.07c0,1,0,2,0,3a1.51,1.51,0,0,1-1.45,1.56H130.1a1.56,1.56,0,0,1-1.55-.89,1.4,1.4,0,0,1-.14-.61q0-13.15,0-26.3a1.47,1.47,0,0,1,.64-1.22c.13-.1.2-.08.26.08A2.17,2.17,0,0,0,131,68.62a2.42,2.42,0,0,0,.43,0h18.12a2.2,2.2,0,0,0,2.12-1.45c.08-.21.12-.22.3-.08a1.49,1.49,0,0,1,.6,1.24q0,6.55,0,13.1Z" transform="translate(-37.43 -54.04)"/><path class="cls-30" d="M140.5,63.43h9a1.5,1.5,0,0,1,1.6,1.6,13,13,0,0,1,0,1.61,1.46,1.46,0,0,1-1.4,1.26H131.38A1.46,1.46,0,0,1,130,66.55a13.26,13.26,0,0,1,0-1.85,1.48,1.48,0,0,1,1.29-1.27h9.25" transform="translate(-37.43 -54.04)"/><path class="cls-12" d="M140.62,78.67l.88,1.44c.21.35.42.7.66,1a1.14,1.14,0,0,1-.06,1.39c-.4.47-.85.88-1.29,1.31a.27.27,0,0,1-.4,0,17.77,17.77,0,0,1-1.28-1.31,1.14,1.14,0,0,1-.07-1.33c.53-.81,1-1.64,1.52-2.47l.05-.07" transform="translate(-37.43 -54.04)"/><path class="cls-12" d="M149.42,79l.37,1.46c.12.46.23.92.37,1.37a1.15,1.15,0,0,1-.52,1.35c-.5.29-1,.56-1.53.82a.28.28,0,0,1-.42-.14c-.27-.49-.54-1-.78-1.49a1.14,1.14,0,0,1,.28-1.42c.76-.61,1.46-1.31,2.23-2" transform="translate(-37.43 -54.04)"/><path class="cls-12" d="M134.34,81.82a1,1,0,0,1-.13.54l-.74,1.38c-.14.26-.25.29-.52.15-.45-.23-.91-.47-1.35-.72a1.18,1.18,0,0,1-.61-1.46c.26-.85.44-1.72.67-2.58.05-.2.07-.21.23-.06l1.63,1.46a2.45,2.45,0,0,0,.26.21,1.21,1.21,0,0,1,.56,1.07" transform="translate(-37.43 -54.04)"/><path class="cls-12" d="M135,90.07a4.46,4.46,0,0,1,1.11-2.84c.38-.46.71-.41.93.14a1.59,1.59,0,0,1-.56,1.89,4.25,4.25,0,0,0-1.21,1.05c0,.06-.1.11,0,.16a.33.33,0,0,1,.13.22l.94,3.07a.3.3,0,0,1,0,.3c-.12.14-.32.09-.39-.12-.13-.38-.25-.77-.36-1.16l-.6-2a.31.31,0,0,1,0-.23c0-.1,0-.13-.12-.15a3.66,3.66,0,0,0-1.44-.18,1.55,1.55,0,0,1-1.62-1.66c0-.2.15-.28.39-.27a3.08,3.08,0,0,1,1.27.42A4.16,4.16,0,0,1,135,90.07" transform="translate(-37.43 -54.04)"/><path class="cls-12" d="M140.73,90.35a3.81,3.81,0,0,1,1.3-2,2.94,2.94,0,0,1,.72-.5c.39-.18.59-.08.66.34a1.82,1.82,0,0,1-.35,1.39,1.18,1.18,0,0,1-.72.41,4,4,0,0,0-1.38.61c-.09.06-.15.11-.06.22s0,.11,0,.16q0,1.63,0,3.26s0,.06,0,.09a.2.2,0,0,1-.22.21.2.2,0,0,1-.22-.18,1.07,1.07,0,0,1,0-.2c0-1,0-2.06,0-3.09a.42.42,0,0,1,.14-.37,5.49,5.49,0,0,0-1.62-.76A1.5,1.5,0,0,1,138,88a.34.34,0,0,1,.51-.27,2.91,2.91,0,0,1,1,.74,3.63,3.63,0,0,1,1.1,1.81s0,.08.07,0" transform="translate(-37.43 -54.04)"/><path class="cls-12" d="M146.09,90.24a4.19,4.19,0,0,1,2.62-1.81l.11,0c.39,0,.54.09.49.49a1.73,1.73,0,0,1-.79,1.29.9.9,0,0,1-.51.15,5.73,5.73,0,0,0-1.76.16.41.41,0,0,1-.21,0,.33.33,0,0,1-.17-.07,4.68,4.68,0,0,0-1.2-1.09,1.53,1.53,0,0,1-.5-2.13c.17-.3.38-.33.64-.11a2.41,2.41,0,0,1,.46.52,4.14,4.14,0,0,1,.8,2.58s0,0,0,.07,0,0,0,.06,0-.09,0-.13" transform="translate(-37.43 -54.04)"/><path d="M145.85,74.93c0-.62,0-1.23,0-1.85,0-.16,0-.24.22-.23.55,0,1.1,0,1.64,0a1,1,0,0,1,1,1,1.23,1.23,0,0,1-.6,1.32c-.13.07-.11.16,0,.26l.75,1.4c.1.19.09.16-.12.2a.61.61,0,0,1-.75-.46c-.15-.38-.36-.73-.54-1.1a.29.29,0,0,0-.32-.2,3.05,3.05,0,0,1-.47,0c-.14,0-.18,0-.18.19,0,.45,0,.91,0,1.36,0,.17-.06.23-.22.21h-.13c-.22,0-.26-.05-.26-.27,0-.62,0-1.23,0-1.85Z" transform="translate(-37.43 -54.04)"/><path d="M138.06,75c0-.29,0-.58,0-.88a1.43,1.43,0,0,1,1.84-1.32A1.24,1.24,0,0,1,141,74a5.74,5.74,0,0,1,0,1.92,1.36,1.36,0,0,1-1.5,1.23,1.41,1.41,0,0,1-1.43-1.57c0-.16,0-.32,0-.49" transform="translate(-37.43 -54.04)"/><path d="M144.9,74.42c0,.42,0,.85,0,1.27a1.39,1.39,0,0,1-1.75,1.39,1.32,1.32,0,0,1-1.2-1.39c0-.89,0-1.78,0-2.67,0-.13.05-.18.18-.17h.17c.22,0,.26,0,.26.27q0,1.17,0,2.34a1.52,1.52,0,0,0,0,.41.81.81,0,0,0,1,.6.78.78,0,0,0,.73-.82c0-.79,0-1.57,0-2.36,0-.06,0-.11,0-.17,0-.22.05-.26.27-.27h.15c.14,0,.2,0,.19.19,0,.46,0,.92,0,1.38Z" transform="translate(-37.43 -54.04)"/><path d="M131.45,74.9c0-.62,0-1.25,0-1.87,0-.14,0-.19.18-.18h2.28c.16,0,.2.07.2.21,0,.33,0,.37-.36.37h-1.52c-.14,0-.19,0-.18.18,0,.3,0,.6,0,.9s.07.22.23.22l1.29,0c.17,0,.22.05.21.22,0,.34,0,.37-.37.38h-1.16c-.15,0-.21,0-.2.2,0,.46,0,.91,0,1.37,0,.16-.06.22-.21.2h-.15c-.18,0-.25-.09-.25-.27,0-.52,0-1,0-1.57V74.9" transform="translate(-37.43 -54.04)"/><path class="cls-12" d="M150,84.56a2.65,2.65,0,0,1,0,.39,1.23,1.23,0,0,1-.81,1,4,4,0,0,0-1.35.85s-.08.09-.14.07-.08-.09-.09-.15a1.26,1.26,0,0,1,0-.43,4.27,4.27,0,0,1,1.61-2.49c.35-.27.59-.19.72.24a1.76,1.76,0,0,1,.06.53" transform="translate(-37.43 -54.04)"/><path class="cls-12" d="M143.25,86.55a1.36,1.36,0,0,1-.84,1.31,3.94,3.94,0,0,0-1.27.87s-.09.12-.17.08-.07-.11-.07-.18a3.15,3.15,0,0,1,.26-1.23,4.42,4.42,0,0,1,1.22-1.7l.11-.08c.3-.2.51-.14.64.2a2.42,2.42,0,0,1,.13.72" transform="translate(-37.43 -54.04)"/><path class="cls-12" d="M149.72,86.82a2,2,0,0,1-.39,1.05,1.4,1.4,0,0,1-1.05.48,3.7,3.7,0,0,0-1.25.41c-.07,0-.14.13-.23.05s0-.17,0-.26a3.52,3.52,0,0,1,1.1-1.55,4.67,4.67,0,0,1,1-.68l.17-.07c.46-.16.66,0,.66.56" transform="translate(-37.43 -54.04)"/><path class="cls-12" d="M136.44,86.3a1.1,1.1,0,0,1-.42.88,4.41,4.41,0,0,0-1,1.3s0,.11-.11.11-.1-.07-.12-.13a2.59,2.59,0,0,1-.14-1.09,4.45,4.45,0,0,1,.62-2.07,1.2,1.2,0,0,1,.21-.28.33.33,0,0,1,.55,0,1.9,1.9,0,0,1,.44,1.26" transform="translate(-37.43 -54.04)"/><path class="cls-12" d="M141,85.8a4.26,4.26,0,0,1,.9-2.6.36.36,0,0,1,.63,0,1.92,1.92,0,0,1,.34,1.33,1.08,1.08,0,0,1-.41.73,4.44,4.44,0,0,0-1.14,1.3s-.05.09-.11.09-.1-.07-.12-.13a2.34,2.34,0,0,1-.1-.76" transform="translate(-37.43 -54.04)"/><path class="cls-12" d="M138.16,86.49a1.85,1.85,0,0,1,.15-.72.33.33,0,0,1,.52-.18,1.47,1.47,0,0,1,.41.32,4.42,4.42,0,0,1,1.22,2.23,1.45,1.45,0,0,1,0,.56c0,.16-.1.19-.21.08a4.42,4.42,0,0,0-1.34-.93,1.33,1.33,0,0,1-.79-1.35" transform="translate(-37.43 -54.04)"/><path class="cls-12" d="M131.41,86.63a1.82,1.82,0,0,1,0-.2.34.34,0,0,1,.45-.31.81.81,0,0,1,.2.05,4.27,4.27,0,0,1,2.21,2.13,1.59,1.59,0,0,1,.09.26c0,.06,0,.13,0,.17s-.12,0-.17,0a3.78,3.78,0,0,0-1-.4l-.53-.09a1.2,1.2,0,0,1-1-.74,2.19,2.19,0,0,1-.21-.84" transform="translate(-37.43 -54.04)"/><path class="cls-12" d="M133.84,84.39a3.65,3.65,0,0,1,.19-1.32,1.23,1.23,0,0,1,.12-.25.33.33,0,0,1,.48-.12,1.58,1.58,0,0,1,.57,2.13,4.12,4.12,0,0,0-.65,1.48c0,.06,0,.12-.09.13s-.11,0-.15-.1a3.21,3.21,0,0,1-.43-1.15,3.84,3.84,0,0,1,0-.81" transform="translate(-37.43 -54.04)"/><path class="cls-12" d="M146.51,87.58a2.47,2.47,0,0,1-.11.92c0,.07,0,.15-.13.16s-.12-.08-.15-.14a3.76,3.76,0,0,0-.94-1.18,1.32,1.32,0,0,1-.45-1.4,2.13,2.13,0,0,1,.34-.74c.22-.31.46-.31.69,0a4,4,0,0,1,.62,1.41,2.86,2.86,0,0,1,.12,1" transform="translate(-37.43 -54.04)"/><path class="cls-12" d="M140.4,85.79a2.71,2.71,0,0,1-.1.71c0,.06,0,.14-.12.15s-.1-.06-.13-.11a4.13,4.13,0,0,0-1-1.15,1.58,1.58,0,0,1-.18-2.23.34.34,0,0,1,.57,0A2.58,2.58,0,0,1,140,84a4.45,4.45,0,0,1,.39,1.77" transform="translate(-37.43 -54.04)"/><path class="cls-12" d="M147.29,84.59a3.38,3.38,0,0,1-.42,1.76l-.05.1a.15.15,0,0,1-.16.08.13.13,0,0,1-.1-.12A4.06,4.06,0,0,0,146,85a1.53,1.53,0,0,1,.44-2.1c.3-.22.51-.16.66.18a3.79,3.79,0,0,1,.24,1.55" transform="translate(-37.43 -54.04)"/><path class="cls-12" d="M131.15,84.43a1.42,1.42,0,0,1,.06-.52c.13-.39.4-.48.73-.21a5,5,0,0,1,1,1,3.73,3.73,0,0,1,.65,1.71.27.27,0,0,1,0,.06c0,.09,0,.21-.07.25s-.14-.06-.2-.11a3.75,3.75,0,0,0-1.2-.75,1.35,1.35,0,0,1-1-1.46" transform="translate(-37.43 -54.04)"/><path d="M134.78,74.94c0-.64,0-1.27,0-1.91,0-.14,0-.2.18-.18h.11c.27,0,.31,0,.31.32q0,1.54,0,3.09c0,.21,0,.24.25.23h1.7c.11,0,.16,0,.15.16s0,.09,0,.13c0,.24,0,.28-.29.28H135c-.14,0-.2,0-.2-.19,0-.64,0-1.29,0-1.93" transform="translate(-37.43 -54.04)"/><path class="cls-12" d="M146,90.5h.22c-.08,0-.15.09-.1.2s0,.12,0,.18l-.91,3,0,.11c-.08.22-.17.29-.33.25s-.18-.16-.11-.39l.92-3c0-.11.05-.22.17-.28a.42.42,0,0,1,.2,0" transform="translate(-37.43 -54.04)"/><path class="cls-12" d="M135,91.92a13.85,13.85,0,0,1-1.51.43,1.34,1.34,0,0,1-1.37-.57A1.36,1.36,0,0,1,132,90.3a.38.38,0,0,1,.17-.2,1.79,1.79,0,0,0-.09.57,1.11,1.11,0,0,0,.57.81,3.17,3.17,0,0,0,1.74.41l.52,0s.1-.05.11,0" transform="translate(-37.43 -54.04)"/><path class="cls-12" d="M146.47,92a4.31,4.31,0,0,0,1.64-.22,1.9,1.9,0,0,0,.66-.41,1,1,0,0,0,.26-1l0-.18v0a1,1,0,0,1,.28.57,1.44,1.44,0,0,1-1.81,1.67c-.41-.1-.81-.25-1.21-.37.06-.11.15,0,.23,0" transform="translate(-37.43 -54.04)"/><path class="cls-13" d="M146.47,92c-.07,0-.16,0-.23,0l-.19,0a.71.71,0,0,1,.42,0" transform="translate(-37.43 -54.04)"/><path class="cls-14" d="M146,90.5c-.06.06-.13,0-.2,0l0-.07c.06,0,.12,0,.16,0" transform="translate(-37.43 -54.04)"/><path class="cls-15" d="M135,91.92s-.08,0-.11,0,.15,0,.24,0-.09.06-.13.08" transform="translate(-37.43 -54.04)"/><path class="cls-16" d="M140.73,90.35s0,.11,0,.09,0-.08,0-.13l.07,0" transform="translate(-37.43 -54.04)"/><path class="cls-17" d="M146.09,90.24a.17.17,0,0,1-.05.13c0-.06,0-.09,0-.13h0" transform="translate(-37.43 -54.04)"/><path class="cls-30" d="M147.14,73.42h.43a.46.46,0,0,1,.53.45,1.38,1.38,0,0,1,0,.41.48.48,0,0,1-.55.46h-1c-.1,0-.14,0-.14-.14,0-.35,0-.7,0-1,0-.11,0-.13.15-.13h.54" transform="translate(-37.43 -54.04)"/><path class="cls-30" d="M140.4,75c0,.25,0,.5,0,.75a.84.84,0,0,1-.87.79.83.83,0,0,1-.85-.82q0-.73,0-1.46a.8.8,0,0,1,.83-.8.81.81,0,0,1,.89.78c0,.25,0,.5,0,.75" transform="translate(-37.43 -54.04)"/></g></g><g class="cls-31"><g class="cls-31"><path class="cls-32" d="M348.28,80l-3.22,0v0l-2,0V97.1c3.68,0,6.67-4.74,6.67-10.58A14.86,14.86,0,0,0,348.28,80" transform="translate(-37.43 -54.04)"/><polygon class="cls-32" points="307.63 26 307.63 25.96 305.61 25.98 307.63 26"/><path class="cls-32" d="M348.28,80h0l-3.2-6.43v2.89A7.68,7.68,0,0,1,348.28,80" transform="translate(-37.43 -54.04)"/><path class="cls-32" d="M345.08,76.44l0,3.57,3.22,0a7.68,7.68,0,0,0-3.21-3.54" transform="translate(-37.43 -54.04)"/><path class="cls-32" d="M345.08,76.44V73.55l-2-4.11v6.5a4.46,4.46,0,0,1,2,.5" transform="translate(-37.43 -54.04)"/><path class="cls-32" d="M343,75.94V80l2,0,0-3.57a4.46,4.46,0,0,0-2-.5" transform="translate(-37.43 -54.04)"/><path class="cls-33" d="M341,80v0l-3.22,0a14.86,14.86,0,0,0-1.43,6.54c0,5.85,3,10.58,6.67,10.58V80Z" transform="translate(-37.43 -54.04)"/><path class="cls-33" d="M341,76.44V73.55L337.8,80h0A7.68,7.68,0,0,1,341,76.44" transform="translate(-37.43 -54.04)"/><path class="cls-33" d="M337.81,80,341,80l0-3.57A7.68,7.68,0,0,0,337.81,80" transform="translate(-37.43 -54.04)"/><polygon class="cls-33" points="303.6 26 305.61 25.98 303.6 25.96 303.6 26"/><path class="cls-33" d="M341,76.44a4.46,4.46,0,0,1,2-.5v-6.5l-2,4.11Z" transform="translate(-37.43 -54.04)"/><path class="cls-33" d="M341,76.44,341,80l2,0V75.94a4.46,4.46,0,0,0-2,.5" transform="translate(-37.43 -54.04)"/></g></g><g class="cls-34"><rect class="cls-21" x="209.07" y="64.71" width="11.96" height="22.24" transform="translate(-4.95 158.41) rotate(-56.23)"/><g class="cls-34"><path class="cls-21" d="M196.48,82.55l-.33-5.09a13.27,13.27,0,0,0,.33,5.09" transform="translate(-37.43 -54.04)"/><path class="cls-21" d="M209.12,64.68c-4.45-2.18-8.48,2.22-11.52,8.4A16.91,16.91,0,0,0,196.24,77h18.85c1-4.9-2.45-10.63-6-12.35" transform="translate(-37.43 -54.04)"/><path class="cls-21" d="M196.25,77.25l-.1.21c0-.14.05-.28.08-.43Z" transform="translate(-37.43 -54.04)"/><path d="M197.72,78.47h17q.22-.72.37-1.43H196.24c0,.14-.06.28-.08.43v5.09a9.1,9.1,0,0,0,1.56,3.63Z" transform="translate(-37.43 -54.04)"/><path class="cls-35" d="M200.17,88.24a6.76,6.76,0,0,1-2.45-2.06v5.54h28.34V78.47H214.71a17.22,17.22,0,0,1-1,2.52c-3,6.19-9.1,9.44-13.55,7.26" transform="translate(-37.43 -54.04)"/><path class="cls-35" d="M197.72,86.18a6.76,6.76,0,0,0,2.45,2.06c4.45,2.18,10.51-1.07,13.55-7.26a17.22,17.22,0,0,0,1-2.52h-17Z" transform="translate(-37.43 -54.04)"/><rect class="cls-36" x="160.28" y="30.23" width="28.34" height="2.51"/><path class="cls-35" d="M212,69.95a4.16,4.16,0,1,1-4.16-4.16A4.16,4.16,0,0,1,212,69.95" transform="translate(-37.43 -54.04)"/><circle class="cls-37" cx="170.41" cy="15.9" r="4.16"/><path class="cls-38" d="M210.31,67.59a3.35,3.35,0,0,1-5.64,3.25,3.35,3.35,0,1,0,5.64-3.25" transform="translate(-37.43 -54.04)"/><path class="cls-35" d="M208,65.08l.05,1.65c-.2.61-.62.52-1,.34l-.06,0a.74.74,0,0,1-.34-1l1.28-2.63a.74.74,0,0,1,1-.34l.06,0c-1.43,1.12-1,1.39-1,2" transform="translate(-37.43 -54.04)"/><path class="cls-37" d="M208,65.08l.05,1.65c-.2.61-.62.52-1,.34l-.06,0a.74.74,0,0,1-.34-1l1.28-2.63a.74.74,0,0,1,1-.34l.06,0C207.54,64.23,208,64.51,208,65.08Z" transform="translate(-37.43 -54.04)"/><path d="M227.62,77H215.08q-.15.71-.37,1.43h11.34V91.73h1.56Z" transform="translate(-37.43 -54.04)"/><path d="M197.72,86.18a9.1,9.1,0,0,1-1.56-3.63v9.17h1.56Z" transform="translate(-37.43 -54.04)"/></g></g><g class="cls-39"><g class="cls-39"><path class="cls-40" d="M69,91.54H65.64a2.91,2.91,0,0,1-2.9-2.9V85.08a2.91,2.91,0,0,1,2.9-2.9H69a2.91,2.91,0,0,1,2.9,2.9v3.56a2.91,2.91,0,0,1-2.9,2.9" transform="translate(-37.43 -54.04)"/><path class="cls-40" d="M57.7,91.54H54.35a2.91,2.91,0,0,1-2.9-2.9V85.08a2.91,2.91,0,0,1,2.9-2.9H57.7a2.91,2.91,0,0,1,2.9,2.9v3.56a2.91,2.91,0,0,1-2.9,2.9" transform="translate(-37.43 -54.04)"/><path class="cls-40" d="M46.25,91.54H42.9a2.91,2.91,0,0,1-2.9-2.9V82.18h9.14v6.46a2.91,2.91,0,0,1-2.9,2.9" transform="translate(-37.43 -54.04)"/><path class="cls-41" d="M41.42,81.29v-13A2.76,2.76,0,0,1,44,65.39H67.64a2.76,2.76,0,0,1,2.59,2.9v13h2.84V65.55a2.76,2.76,0,0,0-2.59-2.9H41.17a2.76,2.76,0,0,0-2.59,2.9V81.29h2.84Z" transform="translate(-37.43 -54.04)"/><path class="cls-42" d="M68.81,63.8h-26A3,3,0,0,0,40,67v14.3h2.58V69.89a3,3,0,0,1,2.84-3.19h20.8a3,3,0,0,1,2.84,3.19v11.4h2.58V67a3,3,0,0,0-2.84-3.19" transform="translate(-37.43 -54.04)"/><path class="cls-40" d="M69.06,69.89a3,3,0,0,0-2.84-3.19H45.41a3,3,0,0,0-2.84,3.19v11.4h26.5Z" transform="translate(-37.43 -54.04)"/><path class="cls-43" d="M49.32,79.7c0,3.51-2.13,6.36-4.75,6.36s-4.75-2.85-4.75-6.36,2.13-6.36,4.75-6.36,4.75,2.85,4.75,6.36" transform="translate(-37.43 -54.04)"/><path class="cls-44" d="M60.57,79.7c0,3.51-2.13,6.36-4.75,6.36s-4.75-2.85-4.75-6.36,2.13-6.36,4.75-6.36,4.75,2.85,4.75,6.36" transform="translate(-37.43 -54.04)"/><path class="cls-45" d="M72.07,79.86c0,3.51-2.13,6.36-4.75,6.36s-4.75-2.85-4.75-6.36,2.13-6.36,4.75-6.36,4.75,2.85,4.75,6.36" transform="translate(-37.43 -54.04)"/><path class="cls-42" d="M74.18,83.71c0-1.26-.49-2.3-1.11-2.41v4.83c.62-.11,1.11-1.15,1.11-2.41" transform="translate(-37.43 -54.04)"/><path class="cls-42" d="M37.43,83.71c0,1.29.51,2.34,1.15,2.42V81.3c-.64.07-1.15,1.13-1.15,2.42" transform="translate(-37.43 -54.04)"/><path class="cls-42" d="M41.42,86.14V81.29H38.58v4.84h2.84Z" transform="translate(-37.43 -54.04)"/><path class="cls-42" d="M73,81.29H70.23v4.85h2.84V81.3H73" transform="translate(-37.43 -54.04)"/><path class="cls-42" d="M67.88,85.35c0,.27,0,.53,0,.79h2.39V81.29H67.88Z" transform="translate(-37.43 -54.04)"/><path class="cls-42" d="M43.77,85.35V81.29H41.42v4.85h2.39c0-.26,0-.52,0-.79" transform="translate(-37.43 -54.04)"/><path class="cls-42" d="M43.81,86.14h24c0-.26,0-.52,0-.79V81.29H43.77v4.06c0,.27,0,.53,0,.79" transform="translate(-37.43 -54.04)"/><path class="cls-42" d="M46.59,90.32h-4c-.08-2.85-2.9-2.22-2.9-3.31V81.65h9.82v5.24c0,1.09-2.9.7-2.9,3.43" transform="translate(-37.43 -54.04)"/><path class="cls-42" d="M58,90.32h-4C53.85,87.47,51,88.1,51,87V81.65h9.82v5.24c0,1.09-2.9.7-2.9,3.43" transform="translate(-37.43 -54.04)"/><path class="cls-42" d="M69.49,90.32h-4c-.08-2.85-2.9-2.22-2.9-3.31V81.65h9.82v5.24c0,1.09-2.9.7-2.9,3.43" transform="translate(-37.43 -54.04)"/></g></g><g class="cls-46"><g class="cls-46"><path class="cls-47" d="M372.3,63.66c1.67,4.23,1.43,8.3-.54,9.07s-4.92-2-6.59-6.26-1.43-8.3.54-9.07,4.92,2,6.59,6.26" transform="translate(-37.43 -54.04)"/><path class="cls-47" d="M377.8,63.16c0,4.55-1.72,8.24-3.83,8.24s-3.83-3.69-3.83-8.24,1.72-8.24,3.83-8.24,3.83,3.69,3.83,8.24" transform="translate(-37.43 -54.04)"/><path class="cls-47" d="M381.84,66.17c-1.7,4.22-4.67,7-6.64,6.21s-2.18-4.86-.48-9.08,4.67-7,6.64-6.21,2.18,4.85.48,9.08" transform="translate(-37.43 -54.04)"/><path class="cls-48" d="M387.71,89c.21,8-7.9,10.25-13.56,10.4s-6.73-1.9-6.94-9.86,4.21-14.54,9.88-14.68S387.5,81,387.71,89" transform="translate(-37.43 -54.04)"/><path class="cls-48" d="M380.77,74.18a8.49,8.49,0,1,1-8.49-8.49,8.49,8.49,0,0,1,8.49,8.49" transform="translate(-37.43 -54.04)"/><polygon class="cls-49" points="326.98 17.51 326.82 17.51 321.87 20.14 326.98 20.14 326.98 17.51"/><polygon class="cls-49" points="326.98 22.77 326.82 22.77 321.87 20.14 326.98 20.14 326.98 22.77"/><path class="cls-50" d="M371.46,71.55a2,2,0,1,1-2-2,2,2,0,0,1,2,2" transform="translate(-37.43 -54.04)"/><path d="M370.67,71.55a1.23,1.23,0,1,1-1.23-1.23,1.23,1.23,0,0,1,1.23,1.23" transform="translate(-37.43 -54.04)"/><path class="cls-48" d="M369.57,71a.41.41,0,1,1-.41-.41.41.41,0,0,1,.41.41" transform="translate(-37.43 -54.04)"/><path class="cls-47" d="M367.41,82c0,2.14-1.06,3.87-2.37,3.87s-2.37-1.73-2.37-3.87,1.06-3.87,2.37-3.87,2.37,1.73,2.37,3.87" transform="translate(-37.43 -54.04)"/></g></g></g></g></svg>