<svg xmlns="http://www.w3.org/2000/svg" viewBox="0 -20 150 150"><defs><style>.cls-1{fill:#686868;opacity:0.8;}</style></defs><title>Fichier 3</title><g id="Calque_2" data-name="Calque 2"><g id="Calque_1-2" data-name="Calque 1"><path class="cls-1" d="M54.26,8.33c-11.93,8.79-15.81,20.84-8.67,26.93s22.61,3.9,34.54-4.89S95.94,9.53,88.8,3.45,66.19-.45,54.26,8.33Z"/><path class="cls-1" d="M57.92,18.62C30.59,15.77,9.79,29.35,11.48,49S36.7,86.75,64,89.6s48.13-10.73,46.44-30.33S85.26,21.47,57.92,18.62Z"/><path class="cls-1" d="M32.22,82.47c-3.18,10.19,2.38,20,12.44,22s20.78-4.69,24-14.88-2.38-20-12.44-22S35.4,72.28,32.22,82.47Z"/><path class="cls-1" d="M1,35.55C-3.7,46.41,8.59,59.58,28.44,65s39.76,1,44.46-9.91S65.31,31,45.46,25.64,5.7,24.69,1,35.55Z"/><path class="cls-1" d="M103.56,22.54C89.17,28.12,84.81,44.45,93.81,59s28,21.85,42.35,16.28,18.75-21.91,9.74-36.47S117.94,17,103.56,22.54Z"/><path class="cls-1" d="M42.85,74.31c4.67,10.87,20.56,12.27,35.5,3.14S101.62,52.11,97,41.24,76.4,29,61.46,38.1,38.19,63.44,42.85,74.31Z"/><path class="cls-1" d="M29.51,33.53c-8.77,7.93-5,23.42,8.51,34.61S69.53,82,78.3,74s5-23.42-8.51-34.61S38.28,25.6,29.51,33.53Z"/></g></g></svg>