<svg xmlns="http://www.w3.org/2000/svg" xmlns:xlink="http://www.w3.org/1999/xlink" viewBox="-20 -10 310 310"><defs><style>.cls-1,.cls-16{fill:none;}.cls-2{clip-path:url(#clip-path);}.cls-3{opacity:0.8;}.cls-4{clip-path:url(#clip-path-4);}.cls-5{fill:#686868;}.cls-6{clip-path:url(#clip-path-5);}.cls-7{clip-path:url(#clip-path-6);}.cls-8{clip-path:url(#clip-path-7);}.cls-9{clip-path:url(#clip-path-8);}.cls-10{clip-path:url(#clip-path-9);}.cls-11{clip-path:url(#clip-path-10);}.cls-12{fill:#39696b;}.cls-13{fill:#52aa5e;}.cls-14{fill:#e4b267;}.cls-15{fill:#d6a565;}.cls-16{stroke:#1d1c1b;stroke-miterlimit:10;}.cls-17{fill:#e97539;opacity:0.31;}.cls-18{fill:#fff;}.cls-19{fill:#ad8550;}.cls-20{fill:#1d1c1b;}.cls-21{fill:#ececec;}.cls-22{fill:#2b2b2b;}.cls-23{fill:#f43f08;}.cls-24{fill:#c1300e;}.cls-25{fill:#bfbfbf;}.cls-26{fill:#5b2f24;}.cls-27{clip-path:url(#clip-path-11);}.cls-28{fill:#d3d3d3;}.cls-29{fill:#e2e2e2;}.cls-30{clip-path:url(#clip-path-13);}.cls-31{clip-path:url(#clip-path-16);}.cls-32{clip-path:url(#clip-path-17);}.cls-33{clip-path:url(#clip-path-18);}.cls-34{clip-path:url(#clip-path-19);}.cls-35{clip-path:url(#clip-path-20);}.cls-36{clip-path:url(#clip-path-21);}.cls-37{clip-path:url(#clip-path-22);}.cls-38{clip-path:url(#clip-path-23);}.cls-39{clip-path:url(#clip-path-26);}.cls-40{clip-path:url(#clip-path-27);}.cls-41{clip-path:url(#clip-path-28);}.cls-42{clip-path:url(#clip-path-29);}.cls-43{clip-path:url(#clip-path-30);}.cls-44{clip-path:url(#clip-path-31);}.cls-45{clip-path:url(#clip-path-32);}.cls-46{clip-path:url(#clip-path-33);}.cls-47{fill:#e5ac73;}.cls-48{fill:#5e4a38;}.cls-49{fill:#f73b1c;}.cls-50{fill:#efad45;}.cls-51{fill:#5dba22;}.cls-52{fill:#f4c69d;}.cls-53{clip-path:url(#clip-path-35);}.cls-54{clip-path:url(#clip-path-37);}</style><clipPath id="clip-path" transform="translate(-10.23)"><rect class="cls-1" y="113.75" width="291.55" height="241.1"/></clipPath><clipPath id="clip-path-4" transform="translate(-10.23)"><rect class="cls-1" x="123.43" y="180.45" width="48.95" height="31.11"/></clipPath><clipPath id="clip-path-5" transform="translate(-10.23)"><rect class="cls-1" x="93.67" y="195.11" width="96.39" height="57.66"/></clipPath><clipPath id="clip-path-6" transform="translate(-10.23)"><rect class="cls-1" x="113.05" y="234.49" width="37.12" height="30.21"/></clipPath><clipPath id="clip-path-7" transform="translate(-10.23)"><rect class="cls-1" x="82.61" y="199.21" width="71.82" height="35.3"/></clipPath><clipPath id="clip-path-8" transform="translate(-10.23)"><rect class="cls-1" x="169.23" y="197.06" width="59.73" height="45.41"/></clipPath><clipPath id="clip-path-9" transform="translate(-10.23)"><rect class="cls-1" x="122.99" y="206.23" width="55.1" height="41.31"/></clipPath><clipPath id="clip-path-10" transform="translate(-10.23)"><rect class="cls-1" x="106.7" y="203.72" width="56.59" height="39.9"/></clipPath><clipPath id="clip-path-11" transform="translate(-10.23)"><rect class="cls-1" x="209.42" y="246.5" width="49" height="45.5"/></clipPath><clipPath id="clip-path-13" transform="translate(-10.23)"><rect class="cls-1" x="229.67" y="205.55" width="57.5" height="57.5"/></clipPath><clipPath id="clip-path-16" transform="translate(-10.23)"><rect class="cls-1" x="254.01" y="221.45" width="9.65" height="7.42"/></clipPath><clipPath id="clip-path-17" transform="translate(-10.23)"><rect class="cls-1" x="248.14" y="224.95" width="19.01" height="13.75"/></clipPath><clipPath id="clip-path-18" transform="translate(-10.23)"><rect class="cls-1" x="251.96" y="234.34" width="7.32" height="7.21"/></clipPath><clipPath id="clip-path-19" transform="translate(-10.23)"><rect class="cls-1" x="245.96" y="225.93" width="14.16" height="8.42"/></clipPath><clipPath id="clip-path-20" transform="translate(-10.23)"><rect class="cls-1" x="263.04" y="225.41" width="11.78" height="10.83"/></clipPath><clipPath id="clip-path-21" transform="translate(-10.23)"><rect class="cls-1" x="253.92" y="227.6" width="10.87" height="9.85"/></clipPath><clipPath id="clip-path-22" transform="translate(-10.23)"><rect class="cls-1" x="250.71" y="227" width="11.16" height="9.52"/></clipPath><clipPath id="clip-path-23" transform="translate(-10.23)"><rect class="cls-1" x="2.78" y="214.92" width="57.5" height="57.5"/></clipPath><clipPath id="clip-path-26" transform="translate(-10.23)"><rect class="cls-1" x="27.13" y="230.83" width="9.65" height="7.42"/></clipPath><clipPath id="clip-path-27" transform="translate(-10.23)"><rect class="cls-1" x="21.26" y="234.33" width="19.01" height="13.75"/></clipPath><clipPath id="clip-path-28" transform="translate(-10.23)"><rect class="cls-1" x="25.08" y="243.72" width="7.32" height="7.21"/></clipPath><clipPath id="clip-path-29" transform="translate(-10.23)"><rect class="cls-1" x="19.07" y="235.31" width="14.16" height="8.42"/></clipPath><clipPath id="clip-path-30" transform="translate(-10.23)"><rect class="cls-1" x="36.16" y="234.79" width="11.78" height="10.83"/></clipPath><clipPath id="clip-path-31" transform="translate(-10.23)"><rect class="cls-1" x="27.04" y="236.98" width="10.87" height="9.85"/></clipPath><clipPath id="clip-path-32" transform="translate(-10.23)"><rect class="cls-1" x="23.83" y="236.38" width="11.16" height="9.52"/></clipPath><clipPath id="clip-path-33" transform="translate(-10.23)"><rect class="cls-1" x="0.3" y="257.88" width="31.23" height="31.23"/></clipPath><clipPath id="clip-path-35" transform="translate(-10.23)"><rect class="cls-1" x="20.8" y="258.19" width="31.23" height="31.23"/></clipPath><clipPath id="clip-path-37" transform="translate(-10.23)"><rect class="cls-1" x="238.17" y="247.05" width="49" height="45.5"/></clipPath></defs><title>Fichier 1</title><g id="Calque_2" data-name="Calque 2"><g id="Calque_1-2" data-name="Calque 1"><g class="cls-2"><g class="cls-2"><g class="cls-2"><g class="cls-3"><g class="cls-4"><path class="cls-5" d="M135.34,187.15c-11.6,7.06-15.37,16.75-8.43,21.64s22,3.13,33.57-3.93,15.37-16.75,8.42-21.64-22-3.13-33.57,3.93" transform="translate(-10.23)"/></g></g><g class="cls-3"><g class="cls-6"><path class="cls-5" d="M138.9,195.41c-26.57-2.29-46.77,8.62-45.13,24.38s24.51,30.38,51.07,32.67,46.77-8.62,45.13-24.38-24.5-30.38-51.07-32.67" transform="translate(-10.23)"/></g></g><g class="cls-3"><g class="cls-7"><path class="cls-5" d="M113.92,246.73c-3.09,8.19,2.32,16.11,12.08,17.7s20.2-3.77,23.29-12-2.32-16.11-12.08-17.7-20.2,3.77-23.29,12" transform="translate(-10.23)"/></g></g><g class="cls-3"><g class="cls-8"><path class="cls-5" d="M83.58,209C79,217.75,91,228.34,110.25,232.67s38.64.76,43.21-8-7.37-19.32-26.66-23.65-38.64-.77-43.21,8" transform="translate(-10.23)"/></g></g><g class="cls-3"><g class="cls-9"><path class="cls-5" d="M183.25,198.56c-14,4.48-18.22,17.61-9.47,29.31S201,245.44,214.94,241s18.22-17.61,9.47-29.31-27.18-17.56-41.16-13.08" transform="translate(-10.23)"/></g></g><g class="cls-3"><g class="cls-10"><path class="cls-5" d="M124.25,240.17c4.53,8.73,20,9.86,34.5,2.52s22.62-20.37,18.08-29.1-20-9.86-34.5-2.52-22.61,20.37-18.08,29.1" transform="translate(-10.23)"/></g></g><g class="cls-3"><g class="cls-11"><path class="cls-5" d="M111.28,207.39c-8.53,6.37-4.82,18.82,8.27,27.81s30.62,11.11,39.15,4.73,4.82-18.82-8.27-27.81-30.62-11.11-39.15-4.73" transform="translate(-10.23)"/></g></g></g></g></g><rect class="cls-12" x="113.99" y="164.62" width="47.03" height="36.95" rx="2" ry="2"/><path class="cls-13" d="M190.47,111.58c0-4.82-4.22-8.76-9.38-8.76s-9.38,3.94-9.38,8.76v61.83h18.76Z" transform="translate(-10.23)"/><path class="cls-14" d="M181.09,187.12c5.16,0,9.38-3.94,9.38-8.76v-5H171.71v5C171.71,183.18,175.93,187.12,181.09,187.12Z" transform="translate(-10.23)"/><rect class="cls-13" x="94.14" y="89.32" width="86.23" height="79.05" rx="12" ry="12"/><path class="cls-14" d="M164.53,92.93c0,3.56-7.52,7.86-16.8,7.86s-16.8-4.3-16.8-7.86,7.52-4.63,16.8-4.63S164.53,89.37,164.53,92.93Z" transform="translate(-10.23)"/><path class="cls-15" d="M125.39,75h23.73a0,0,0,0,1,0,0V94.1a3.75,3.75,0,0,1-3.75,3.75H129.14a3.75,3.75,0,0,1-3.75-3.75V75A0,0,0,0,1,125.39,75Z"/><path class="cls-14" d="M112,51.59c0,18.32,16.3,28.61,33.32,33.32h4.48c16.66-4.49,33.32-15,33.32-33.32V27.09H112Z" transform="translate(-10.23)"/><path class="cls-16" d="M137.07,72.07a19.11,19.11,0,0,0,13.37,3.09,15.21,15.21,0,0,0,7.13-2.81" transform="translate(-10.23)"/><circle class="cls-17" cx="128.01" cy="65.39" r="1.94" transform="translate(-15 10.35) rotate(-4.54)"/><path class="cls-13" d="M123.25,111.58c0-4.82-4.22-8.76-9.38-8.76s-9.38,3.94-9.38,8.76v61.83h18.76Z" transform="translate(-10.23)"/><path class="cls-14" d="M113.87,187.12c5.16,0,9.38-3.94,9.38-8.76v-5H104.49v5C104.49,183.18,108.71,187.12,113.87,187.12Z" transform="translate(-10.23)"/><path class="cls-18" d="M124.15,150l-.9-19v37.34h1C124.24,165.94,124.17,150.68,124.15,150Z" transform="translate(-10.23)"/><path class="cls-18" d="M171.28,150l.35-19v37.34h-.37C171.24,165.94,171.27,150.68,171.28,150Z" transform="translate(-10.23)"/><path class="cls-19" d="M183.15,38.74a10.5,10.5,0,0,0-2-1.57H115a10.75,10.75,0,0,0-3,2L114.14,42c3.74,4.51,13.41,9.28,28.13,8.77,15-.52,35.09-6,40.74-10.45Z" transform="translate(-10.23)"/><circle class="cls-20" cx="120.82" cy="51.88" r="5.34"/><circle class="cls-20" cx="154.16" cy="51.88" r="5.34"/><circle class="cls-21" cx="118.39" cy="49.42" r="2.08"/><circle class="cls-21" cx="151.72" cy="49.42" r="2.08"/><path class="cls-22" d="M120.26,40c.23,0-1.48-.34-1.25-.31-.89-.56-4.78-1.07-5.84-1.07-2.38,0-1.95,2.69-1.95,7.51a44.46,44.46,0,0,0,1.25,11c2.38-1.32,4.6-5.37,4.6-7.75,0-1.9,3.72-5.32,3.8-6.77C121,40,117.86,40,120.26,40Z" transform="translate(-10.23)"/><path class="cls-22" d="M175.62,40.39c-.23,0,1.48-.44,1.25-.39.89-.71,4.78-1.37,5.84-1.37,2.38,0,1.95,3.43,1.95,9.56,0,4.44-.68,3.88-1.65,8.92-2.38-1.68-4.19-1.79-4.19-4.82,0-2.41-3.72-6.77-3.8-8.62C174.87,40.38,178,40.39,175.62,40.39Z" transform="translate(-10.23)"/><path class="cls-23" d="M147.73,0a37,37,0,0,0-37,37h73.91A37,37,0,0,0,147.73,0Z" transform="translate(-10.23)"/><path class="cls-24" d="M184.69,37c.24,6.92-24.67,8.16-42.42,8.77S111,43.88,110.78,37s31.92-8.4,38.63-8.4C167.18,28.56,184.45,30,184.69,37Z" transform="translate(-10.23)"/><ellipse class="cls-25" cx="136.67" cy="36.12" rx="10.92" ry="2.52"/><path class="cls-12" d="M171.25,195.41a9.27,9.27,0,0,0-9.24-9.24h-3.08a9.27,9.27,0,0,0-9.24,9.24V273.8h21.56Z" transform="translate(-10.23)"/><path class="cls-12" d="M145.77,195.41a9.27,9.27,0,0,0-9.24-9.24h-3.08a9.27,9.27,0,0,0-9.24,9.24V273.8h21.56Z" transform="translate(-10.23)"/><path class="cls-23" d="M158.93,292H162a9.27,9.27,0,0,0,9.24-9.24v-9H149.69v9A9.27,9.27,0,0,0,158.93,292Z" transform="translate(-10.23)"/><path class="cls-23" d="M133.46,292h3.08a9.27,9.27,0,0,0,9.24-9.24v-9H124.22v9A9.27,9.27,0,0,0,133.46,292Z" transform="translate(-10.23)"/><circle class="cls-26" cx="137.28" cy="169.82" r="4.64"/><rect class="cls-26" x="141.57" y="168.04" width="19.45" height="3.8"/><rect class="cls-26" x="113.99" y="167.92" width="18.94" height="3.8"/><g class="cls-27"><g class="cls-27"><path class="cls-28" d="M231.92,271.79l-9.44,1.47-2.61-.59,2.26-1.35,9.44-1.47a1.14,1.14,0,0,1,1.35.79,1.07,1.07,0,0,1-1,1.15" transform="translate(-10.23)"/><path class="cls-28" d="M230.92,270.4l2.46-8.59,1.62-2,.35,2.46-2.46,8.59a1.12,1.12,0,0,1-1.29.83,1,1,0,0,1-.68-1.32" transform="translate(-10.23)"/><path class="cls-28" d="M232.82,270.33l8.11,4.71,1.59,2-2.59-.48-8.11-4.71a1,1,0,0,1-.51-1.33,1.15,1.15,0,0,1,1.51-.15" transform="translate(-10.23)"/><path class="cls-28" d="M231.81,287.15h0c-.3,0-1.06-.2-1.06-.47l.51-15.77a.55.55,0,0,1,1.09,0l.58,15.77c0,.28-.83.47-1.13.47" transform="translate(-10.23)"/><path class="cls-29" d="M234,270.9a2.18,2.18,0,1,1-2.18-2,2.1,2.1,0,0,1,2.18,2" transform="translate(-10.23)"/></g></g><g class="cls-30"><g class="cls-30"><g class="cls-30"><g class="cls-3"><g class="cls-31"><path class="cls-5" d="M256.36,223.05c-2.29,1.68-3,4-1.66,5.16s4.33.75,6.62-.94,3-4,1.66-5.16-4.33-.75-6.62.94" transform="translate(-10.23)"/></g></g><g class="cls-3"><g class="cls-32"><path class="cls-5" d="M257.06,225c-5.24-.55-9.22,2.06-8.9,5.81s4.83,7.25,10.07,7.79,9.22-2.06,8.9-5.81-4.83-7.25-10.07-7.79" transform="translate(-10.23)"/></g></g><g class="cls-3"><g class="cls-33"><path class="cls-5" d="M252.13,237.26a3.18,3.18,0,0,0,2.38,4.22,4.15,4.15,0,0,0,4.59-2.85,3.18,3.18,0,0,0-2.38-4.22,4.15,4.15,0,0,0-4.59,2.85" transform="translate(-10.23)"/></g></g><g class="cls-3"><g class="cls-34"><path class="cls-5" d="M246.15,228.27c-.9,2.08,1.45,4.61,5.26,5.64s7.62.18,8.52-1.9-1.45-4.61-5.26-5.64-7.62-.18-8.52,1.9" transform="translate(-10.23)"/></g></g><g class="cls-3"><g class="cls-35"><path class="cls-5" d="M265.81,225.77c-2.76,1.07-3.59,4.2-1.87,7s5.36,4.19,8.12,3.12,3.59-4.2,1.87-7-5.36-4.19-8.12-3.12" transform="translate(-10.23)"/></g></g><g class="cls-3"><g class="cls-36"><path class="cls-5" d="M254.17,235.7c.89,2.08,3.94,2.35,6.8.6s4.46-4.86,3.57-6.94-3.94-2.35-6.8-.6-4.46,4.86-3.57,6.94" transform="translate(-10.23)"/></g></g><g class="cls-3"><g class="cls-37"><path class="cls-5" d="M251.61,227.88c-1.68,1.52-1,4.49,1.63,6.63s6,2.65,7.72,1.13,1-4.49-1.63-6.63-6-2.65-7.72-1.13" transform="translate(-10.23)"/></g></g></g></g></g><g class="cls-38"><g class="cls-38"><g class="cls-38"><g class="cls-3"><g class="cls-39"><path class="cls-5" d="M29.47,232.43c-2.29,1.68-3,4-1.66,5.16s4.33.75,6.62-.94,3-4,1.66-5.16-4.33-.75-6.62.94" transform="translate(-10.23)"/></g></g><g class="cls-3"><g class="cls-40"><path class="cls-5" d="M30.18,234.4c-5.24-.55-9.22,2.06-8.9,5.81s4.83,7.25,10.07,7.79,9.22-2.06,8.9-5.81-4.83-7.25-10.07-7.79" transform="translate(-10.23)"/></g></g><g class="cls-3"><g class="cls-41"><path class="cls-5" d="M25.25,246.64a3.18,3.18,0,0,0,2.38,4.22A4.15,4.15,0,0,0,32.23,248a3.18,3.18,0,0,0-2.38-4.22,4.15,4.15,0,0,0-4.59,2.85" transform="translate(-10.23)"/></g></g><g class="cls-3"><g class="cls-42"><path class="cls-5" d="M19.27,237.65c-.9,2.08,1.45,4.61,5.26,5.64s7.62.18,8.52-1.9-1.45-4.61-5.26-5.64-7.62-.18-8.52,1.9" transform="translate(-10.23)"/></g></g><g class="cls-3"><g class="cls-43"><path class="cls-5" d="M38.92,235.15c-2.76,1.07-3.59,4.2-1.87,7s5.36,4.19,8.12,3.12,3.59-4.2,1.87-7-5.36-4.19-8.12-3.12" transform="translate(-10.23)"/></g></g><g class="cls-3"><g class="cls-44"><path class="cls-5" d="M27.29,245.08c.89,2.08,3.94,2.35,6.8.6s4.46-4.86,3.57-6.94-3.94-2.35-6.8-.6-4.46,4.86-3.57,6.94" transform="translate(-10.23)"/></g></g><g class="cls-3"><g class="cls-45"><path class="cls-5" d="M24.73,237.26c-1.68,1.52-1,4.49,1.63,6.63s6,2.65,7.72,1.13,1-4.49-1.63-6.63-6-2.65-7.72-1.13" transform="translate(-10.23)"/></g></g></g></g></g><g class="cls-46"><g class="cls-46"><path class="cls-47" d="M22.52,278.74H11.33a1.11,1.11,0,0,1-1.11-1.11v-1.11h13.4v1.11a1.11,1.11,0,0,1-1.11,1.11" transform="translate(-10.23)"/><path class="cls-48" d="M22.92,276.53h-12a.71.71,0,1,1,0-1.42h12a.71.71,0,0,1,0,1.42" transform="translate(-10.23)"/><path class="cls-49" d="M22.81,275.1H11a.21.21,0,0,1-.21-.21v-.66A.21.21,0,0,1,11,274H22.81a.21.21,0,0,1,.21.21v.66a.21.21,0,0,1-.21.21" transform="translate(-10.23)"/><path class="cls-50" d="M22.07,276.24l1-1.13H16.6l4.16,1.46a1.22,1.22,0,0,0,1.31-.33" transform="translate(-10.23)"/><path class="cls-51" d="M15.77,273.74c0,.24-1.18.44-2.63.44s-2.63-.2-2.63-.44,1.18-.44,2.63-.44,2.63.2,2.63.44" transform="translate(-10.23)"/><path class="cls-51" d="M18.63,274.19c0,.24-1.18.44-2.63.44s-2.63-.2-2.63-.44,1.18-.44,2.63-.44,2.63.2,2.63.44" transform="translate(-10.23)"/><path class="cls-51" d="M19.81,273.48c0,.24-1.18.44-2.63.44s-2.63-.2-2.63-.44,1.18-.44,2.63-.44,2.63.2,2.63.44" transform="translate(-10.23)"/><path class="cls-51" d="M22.44,273.92c0,.24-1.18.44-2.63.44s-2.63-.2-2.63-.44,1.18-.44,2.63-.44,2.63.2,2.63.44" transform="translate(-10.23)"/><path class="cls-51" d="M22.69,274.37c0,.24-1.18.44-2.63.44s-2.63-.2-2.63-.44,1.18-.44,2.63-.44,2.63.2,2.63.44" transform="translate(-10.23)"/><path class="cls-48" d="M22.92,273.92h-12a.71.71,0,1,1,0-1.42h12a.71.71,0,0,1,0,1.42" transform="translate(-10.23)"/><path class="cls-47" d="M16.93,268.25c-3.62,0-6.56,1.9-6.56,4.25H23.49c0-2.35-2.94-4.25-6.56-4.25" transform="translate(-10.23)"/><path class="cls-50" d="M12,273.63l-1-1.13h6.51L13.35,274a1.22,1.22,0,0,1-1.31-.33" transform="translate(-10.23)"/><path class="cls-52" d="M13.63,270.31a.13.13,0,1,1-.13-.13.13.13,0,0,1,.13.13" transform="translate(-10.23)"/><path class="cls-52" d="M17.38,271.35a.13.13,0,1,1-.13-.13.13.13,0,0,1,.13.13" transform="translate(-10.23)"/><path class="cls-52" d="M17.38,270.1a.13.13,0,1,1-.13-.13.13.13,0,0,1,.13.13" transform="translate(-10.23)"/><path class="cls-52" d="M20.81,271a.13.13,0,1,1-.13-.13.13.13,0,0,1,.13.13" transform="translate(-10.23)"/><path class="cls-52" d="M15.4,269a.13.13,0,1,1-.13-.13.13.13,0,0,1,.13.13" transform="translate(-10.23)"/><path class="cls-52" d="M14.57,271.35a.13.13,0,1,1-.13-.13.13.13,0,0,1,.13.13" transform="translate(-10.23)"/><path class="cls-52" d="M18.63,269.37a.13.13,0,1,1-.13-.13.13.13,0,0,1,.13.13" transform="translate(-10.23)"/></g></g><g class="cls-53"><g class="cls-53"><path class="cls-47" d="M43,279H31.83a1.11,1.11,0,0,1-1.11-1.11v-1.11h13.4v1.11A1.11,1.11,0,0,1,43,279" transform="translate(-10.23)"/><path class="cls-48" d="M43.42,276.84h-12a.71.71,0,1,1,0-1.42h12a.71.71,0,0,1,0,1.42" transform="translate(-10.23)"/><path class="cls-49" d="M43.31,275.41H31.49a.21.21,0,0,1-.21-.21v-.66a.21.21,0,0,1,.21-.21H43.31a.21.21,0,0,1,.21.21v.66a.21.21,0,0,1-.21.21" transform="translate(-10.23)"/><path class="cls-50" d="M42.57,276.55l1-1.13H37.1l4.16,1.46a1.22,1.22,0,0,0,1.31-.33" transform="translate(-10.23)"/><path class="cls-51" d="M36.27,274.05c0,.24-1.18.44-2.63.44s-2.63-.2-2.63-.44,1.18-.44,2.63-.44,2.63.2,2.63.44" transform="translate(-10.23)"/><path class="cls-51" d="M39.13,274.49c0,.24-1.18.44-2.63.44s-2.63-.2-2.63-.44,1.18-.44,2.63-.44,2.63.2,2.63.44" transform="translate(-10.23)"/><path class="cls-51" d="M40.31,273.79c0,.24-1.18.44-2.63.44s-2.63-.2-2.63-.44,1.18-.44,2.63-.44,2.63.2,2.63.44" transform="translate(-10.23)"/><path class="cls-51" d="M42.94,274.23c0,.24-1.18.44-2.63.44s-2.63-.2-2.63-.44,1.18-.44,2.63-.44,2.63.2,2.63.44" transform="translate(-10.23)"/><path class="cls-51" d="M43.19,274.68c0,.24-1.18.44-2.63.44s-2.63-.2-2.63-.44,1.18-.44,2.63-.44,2.63.2,2.63.44" transform="translate(-10.23)"/><path class="cls-48" d="M43.42,274.23h-12a.71.71,0,1,1,0-1.42h12a.71.71,0,0,1,0,1.42" transform="translate(-10.23)"/><path class="cls-47" d="M37.43,268.56c-3.62,0-6.56,1.9-6.56,4.25H44c0-2.35-2.94-4.25-6.56-4.25" transform="translate(-10.23)"/><path class="cls-50" d="M32.55,273.94l-1-1.13H38l-4.16,1.46a1.22,1.22,0,0,1-1.31-.33" transform="translate(-10.23)"/><path class="cls-52" d="M34.13,270.61a.13.13,0,1,1-.13-.13.13.13,0,0,1,.13.13" transform="translate(-10.23)"/><path class="cls-52" d="M37.88,271.66a.13.13,0,1,1-.13-.13.13.13,0,0,1,.13.13" transform="translate(-10.23)"/><path class="cls-52" d="M37.88,270.41a.13.13,0,1,1-.13-.13.13.13,0,0,1,.13.13" transform="translate(-10.23)"/><path class="cls-52" d="M41.31,271.34a.13.13,0,1,1-.13-.13.13.13,0,0,1,.13.13" transform="translate(-10.23)"/><path class="cls-52" d="M35.9,269.26a.13.13,0,1,1-.13-.13.13.13,0,0,1,.13.13" transform="translate(-10.23)"/><path class="cls-52" d="M35.07,271.66a.13.13,0,1,1-.13-.13.13.13,0,0,1,.13.13" transform="translate(-10.23)"/><path class="cls-52" d="M39.13,269.68a.13.13,0,1,1-.13-.13.13.13,0,0,1,.13.13" transform="translate(-10.23)"/></g></g><g class="cls-54"><g class="cls-54"><path class="cls-28" d="M260.67,272.35l-9.44,1.47-2.61-.59,2.26-1.35,9.44-1.47a1.14,1.14,0,0,1,1.35.79,1.07,1.07,0,0,1-1,1.15" transform="translate(-10.23)"/><path class="cls-28" d="M259.67,270.95l2.46-8.59,1.62-2,.35,2.46-2.46,8.59a1.12,1.12,0,0,1-1.29.83,1,1,0,0,1-.68-1.32" transform="translate(-10.23)"/><path class="cls-28" d="M261.57,270.88l8.11,4.71,1.59,2-2.59-.48-8.11-4.71a1,1,0,0,1-.51-1.33,1.15,1.15,0,0,1,1.51-.15" transform="translate(-10.23)"/><path class="cls-28" d="M260.56,287.7h0c-.3,0-1.06-.2-1.06-.47l.51-15.77a.55.55,0,0,1,1.09,0l.58,15.77c0,.28-.83.47-1.13.47" transform="translate(-10.23)"/><path class="cls-29" d="M262.74,271.45a2.18,2.18,0,1,1-2.18-2,2.1,2.1,0,0,1,2.18,2" transform="translate(-10.23)"/></g></g></g></g></svg>