<svg xmlns="http://www.w3.org/2000/svg" viewBox="-1 -1 65 65"><defs><style>.cls-1{fill:#45b549;}.cls-2{fill:#d91f26;}.cls-3{fill:#7bce45;}.cls-4{fill:#eaea3d;}</style></defs><title>Fichier 2</title><g id="Calque_2" data-name="Calque 2"><g id="Calque_1-2" data-name="Calque 1"><path class="cls-1" d="M8.09,51h0a.55.55,0,0,0,.62-.46l.42-4a1.74,1.74,0,0,0-.21-.86.5.5,0,0,0-.74-.21l-.37.24c-.22.29.57.9.5,1.21l-.59,3.38A.55.55,0,0,0,8.09,51Z"/><path class="cls-1" d="M8.81,47.84c-.14.74-1.17,1.15-2.29.94S1.9,47.35,2,46.61s3.86-.72,5-.5S8.95,47.11,8.81,47.84Z"/><path class="cls-2" d="M15.83,54.65A7.92,7.92,0,0,1,0,55.14c-.1-3.2,1.51-5,4.22-6,1-.37,2.8.32,4,.28,1.36,0,2.55-.71,3.68-.28A5.4,5.4,0,0,1,15.83,54.65Z"/><path class="cls-1" d="M35,5.94h0a.54.54,0,0,0,.71-.27L37.08,2a1.71,1.71,0,0,0,0-.87.49.49,0,0,0-.65-.39L36,.88c-.29.22.3,1,.16,1.27L34.78,5.2A.54.54,0,0,0,35,5.94Z"/><path class="cls-1" d="M36.44,3.13c-.33.66-1.41.79-2.41.29S30,.88,30.36.22s3.84.32,4.85.82S36.77,2.47,36.44,3.13Z"/><path class="cls-2" d="M41.33,11.39A7.77,7.77,0,0,1,26.22,7.76C27,4.71,28.94,3.46,31.77,3.2c1-.09,2.57,1,3.68,1.29,1.3.31,2.6,0,3.56.68A5.3,5.3,0,0,1,41.33,11.39Z"/><path class="cls-1" d="M42.9,16h0a.54.54,0,0,0,.71-.25l1.54-3.61a1.71,1.71,0,0,0,0-.87.49.49,0,0,0-.63-.41l-.41.12c-.29.21.27,1,.12,1.28l-1.52,3A.54.54,0,0,0,42.9,16Z"/><path class="cls-1" d="M44.48,13.21c-.35.65-1.43.75-2.42.22s-3.92-2.67-3.57-3.32,3.83.44,4.82,1S44.82,12.56,44.48,13.21Z"/><path class="cls-2" d="M49.11,21.62a7.77,7.77,0,1,1-15-4.09c.83-3,2.85-4.22,5.68-4.39,1-.06,2.54,1.11,3.64,1.41,1.29.35,2.59.07,3.54.79A5.3,5.3,0,0,1,49.11,21.62Z"/><path class="cls-1" d="M26,15.9h0a.54.54,0,0,0,.43-.62l-.9-3.82a1.71,1.71,0,0,0-.48-.73.49.49,0,0,0-.75,0l-.27.34c-.11.34.81.65.85,1l.55,3.33A.54.54,0,0,0,26,15.9Z"/><path class="cls-1" d="M25.64,12.74c.1.73-.71,1.45-1.82,1.61s-4.74.16-4.84-.56,3.35-1.91,4.46-2.07S25.53,12,25.64,12.74Z"/><path class="cls-3" d="M34.35,16.78a7.77,7.77,0,1,1-14.51,5.57c-1.13-2.94-.2-5.09,2-6.9.8-.66,2.7-.61,3.77-1,1.25-.48,2.13-1.48,3.32-1.45A5.3,5.3,0,0,1,34.35,16.78Z"/><path class="cls-1" d="M35.53,27.33h0a.54.54,0,0,0,.69-.3l1.26-3.72a1.71,1.71,0,0,0,0-.87.49.49,0,0,0-.66-.36l-.4.15c-.27.23.35,1,.21,1.26L35.33,26.6A.54.54,0,0,0,35.53,27.33Z"/><path class="cls-1" d="M36.9,24.46c-.3.67-1.37.85-2.4.4s-4.11-2.36-3.81-3,3.85.15,4.88.6S37.2,23.79,36.9,24.46Z"/><path class="cls-4" d="M42.16,32.49A7.77,7.77,0,1,1,26.9,29.55c.6-3.09,2.52-4.43,5.33-4.81,1-.14,2.61.91,3.74,1.13,1.31.25,2.59-.13,3.59.52A5.3,5.3,0,0,1,42.16,32.49Z"/><path class="cls-1" d="M20,27.88h0a.54.54,0,0,0,.18-.73L18,23.88a1.71,1.71,0,0,0-.71-.52.49.49,0,0,0-.69.31l-.13.41c0,.36,1,.32,1.13.6l1.69,2.92A.54.54,0,0,0,20,27.88Z"/><path class="cls-1" d="M18.58,25.05c.35.64-.15,1.61-1.14,2.15S13.07,29,12.71,28.38s2.46-3,3.44-3.51S18.22,24.41,18.58,25.05Z"/><path class="cls-2" d="M28.15,25.76A7.77,7.77,0,0,1,16.54,36.09c-2.09-2.35-2-4.69-.58-7.16.51-.9,2.31-1.52,3.17-2.28s1.48-2.14,2.6-2.53A5.3,5.3,0,0,1,28.15,25.76Z"/><path class="cls-1" d="M48.89,27.52h0a.54.54,0,0,0,.74-.18l1.88-3.45a1.71,1.71,0,0,0,.13-.86.49.49,0,0,0-.59-.47l-.42.07c-.31.18.17,1,0,1.28l-1.81,2.84A.54.54,0,0,0,48.89,27.52Z"/><path class="cls-1" d="M50.73,24.93c-.41.61-1.5.6-2.43,0s-3.63-3-3.23-3.65,3.77.81,4.7,1.44S51.14,24.32,50.73,24.93Z"/><path class="cls-3" d="M54.52,33.75A7.77,7.77,0,0,1,40,28.21c1.12-2.94,3.25-3.92,6.09-3.81,1,0,2.41,1.35,3.48,1.76,1.25.48,2.58.33,3.44,1.14A5.3,5.3,0,0,1,54.52,33.75Z"/><path class="cls-1" d="M15.32,40.18h0a.54.54,0,0,0,.44-.62l-.85-3.84a1.71,1.71,0,0,0-.47-.74.49.49,0,0,0-.75,0l-.27.33c-.11.34.81.66.84,1l.51,3.33A.54.54,0,0,0,15.32,40.18Z"/><path class="cls-1" d="M15,37c.1.73-.73,1.44-1.84,1.58s-4.74.1-4.83-.63,3.37-1.87,4.49-2S14.91,36.29,15,37Z"/><path class="cls-3" d="M23.65,41.17A7.77,7.77,0,1,1,9.07,46.55c-1.09-3-.13-5.09,2.08-6.87.8-.65,2.71-.57,3.78-1,1.26-.46,2.15-1.45,3.34-1.41A5.3,5.3,0,0,1,23.65,41.17Z"/><path class="cls-1" d="M27.44,39.4h0A.53.53,0,0,0,28,39l.4-3.86a1.69,1.69,0,0,0-.21-.84.48.48,0,0,0-.72-.2l-.36.23c-.21.29.55.87.48,1.17l-.57,3.28A.53.53,0,0,0,27.44,39.4Z"/><path class="cls-1" d="M28.14,36.34c-.14.71-1.13,1.12-2.22.91s-4.47-1.39-4.33-2.1,3.74-.69,4.83-.48S28.27,35.63,28.14,36.34Z"/><path class="cls-2" d="M34.94,42.93a7.67,7.67,0,0,1-15.33.48c-.1-3.1,1.47-4.81,4.09-5.79,1-.36,2.71.31,3.84.27,1.32,0,2.47-.68,3.57-.27A5.23,5.23,0,0,1,34.94,42.93Z"/><path class="cls-1" d="M40.88,39.54h0a.53.53,0,0,0,.69-.28l1.34-3.64a1.69,1.69,0,0,0,0-.86.48.48,0,0,0-.64-.37l-.4.13c-.28.22.32,1,.18,1.25l-1.36,3A.53.53,0,0,0,40.88,39.54Z"/><path class="cls-1" d="M42.3,36.74c-.31.66-1.37.8-2.38.33s-4-2.45-3.68-3.1,3.8.25,4.8.73S42.61,36.09,42.3,36.74Z"/><path class="cls-3" d="M47.27,44.81a7.67,7.67,0,0,1-15-3.33c.67-3,2.61-4.3,5.4-4.6,1-.11,2.55,1,3.66,1.22,1.29.29,2.56-.05,3.53.62A5.23,5.23,0,0,1,47.27,44.81Z"/><path class="cls-1" d="M53.65,39.56h0a.53.53,0,0,1-.39-.64l1.09-3.72a1.69,1.69,0,0,1,.51-.7.48.48,0,0,1,.74.09l.24.35c.09.35-.84.59-.89.9l-.72,3.25A.53.53,0,0,1,53.65,39.56Z"/><path class="cls-1" d="M54.17,36.47c-.14.71.62,1.47,1.71,1.68s4.66.42,4.8-.3-3.2-2.06-4.28-2.28S54.32,35.76,54.17,36.47Z"/><path class="cls-2" d="M45.37,40a7.67,7.67,0,0,0,14,6.27c1.27-2.83.47-5-1.58-6.91-.75-.69-2.63-.74-3.66-1.21-1.21-.54-2-1.57-3.2-1.61A5.23,5.23,0,0,0,45.37,40Z"/><path class="cls-1" d="M22.38,51.06h0a.54.54,0,0,0,.73-.2l1.79-3.5A1.71,1.71,0,0,0,25,46.5a.49.49,0,0,0-.6-.45l-.42.09c-.31.19.2,1,0,1.28l-1.73,2.89A.54.54,0,0,0,22.38,51.06Z"/><path class="cls-1" d="M24.15,48.42c-.39.62-1.48.64-2.43,0S18,45.53,18.4,44.91s3.79.71,4.74,1.31S24.54,47.8,24.15,48.42Z"/><path class="cls-4" d="M28.18,57.14A7.77,7.77,0,1,1,13.51,52c1-3,3.14-4,6-4,1,0,2.45,1.28,3.53,1.66,1.26.44,2.58.26,3.47,1A5.3,5.3,0,0,1,28.18,57.14Z"/><path class="cls-1" d="M58,52.24h0a.54.54,0,0,0,.76,0l2.62-2.93a1.71,1.71,0,0,0,.33-.81.49.49,0,0,0-.47-.59l-.43,0c-.34.11-.06,1-.3,1.25l-2.41,2.36A.54.54,0,0,0,58,52.24Z"/><path class="cls-1" d="M60.4,50.14c-.54.5-1.59.25-2.36-.57s-2.85-3.79-2.31-4.29,3.49,1.65,4.25,2.47S60.94,49.64,60.4,50.14Z"/><path class="cls-3" d="M62.08,59.59a7.77,7.77,0,1,1-12.88-8.7C51,48.28,53.26,47.81,56,48.56c1,.27,2,1.86,3,2.5,1.11.75,2.43.9,3.09,1.89A5.3,5.3,0,0,1,62.08,59.59Z"/><path class="cls-1" d="M34.33,50.81h0a.54.54,0,0,0,.53-.54l-.23-3.92a1.71,1.71,0,0,0-.35-.8.49.49,0,0,0-.75-.08l-.32.29c-.17.32.69.78.67,1.09l0,3.37A.54.54,0,0,0,34.33,50.81Z"/><path class="cls-1" d="M34.52,47.64c0,.74-.95,1.3-2.07,1.27s-4.69-.65-4.67-1.39,3.63-1.31,4.75-1.28S34.54,46.9,34.52,47.64Z"/><path class="cls-3" d="M42.41,53.11a7.77,7.77,0,0,1-15.25,3c-.61-3.09.68-5,3.14-6.46.9-.51,2.76-.14,3.89-.36,1.31-.26,2.36-1.09,3.52-.86A5.3,5.3,0,0,1,42.41,53.11Z"/><path class="cls-1" d="M46.3,50.79h0a.54.54,0,0,0,.61-.45l.41-3.91a1.71,1.71,0,0,0-.21-.85.49.49,0,0,0-.72-.2l-.36.23c-.22.29.56.88.49,1.19l-.57,3.32A.54.54,0,0,0,46.3,50.79Z"/><path class="cls-1" d="M47,47.7c-.14.72-1.15,1.13-2.25.92s-4.53-1.4-4.38-2.13,3.79-.7,4.89-.49S47.14,47,47,47.7Z"/><path class="cls-2" d="M53.89,54.37a7.77,7.77,0,1,1-15.54.15c0-2.94,1.58-4.58,4.15-5.53,1-.36,2.75.31,3.89.28,1.34,0,2.5-.69,3.61-.28A5.3,5.3,0,0,1,53.89,54.37Z"/></g></g></svg>