<svg xmlns="http://www.w3.org/2000/svg" viewBox="-1 -1 19 19"><defs><style>.cls-1{fill:#45b549;}.cls-2{fill:#d91f26;}</style></defs><title>Fichier 1</title><g id="Calque_2" data-name="Calque 2"><g id="Calque_1-2" data-name="Calque 1"><path class="cls-1" d="M7.46,5.53h0a.57.57,0,0,0,.42-.67L6.76.89A1.79,1.79,0,0,0,6.23.14a.52.52,0,0,0-.78.09L5.18.6c-.1.37.88.64.94,1L6.85,5A.57.57,0,0,0,7.46,5.53Z"/><path class="cls-1" d="M6.94,2.24C7.08,3,6.26,3.79,5.1,4S.15,4.4,0,3.64,3.43,1.48,4.58,1.26,6.8,1.48,6.94,2.24Z"/><path class="cls-2" d="M16.26,6.06a8.15,8.15,0,0,1-15,6.51C0,9.55.86,7.25,3.07,5.25,3.87,4.52,5.87,4.49,7,4c1.29-.56,2.17-1.65,3.41-1.68A5.56,5.56,0,0,1,16.26,6.06Z"/></g></g></svg>