<svg xmlns="http://www.w3.org/2000/svg" viewBox="-140 -130 800 800"><title>Fichier 2</title><g id="Calque_2" data-name="Calque 2"><g id="Calque_1-2" data-name="Calque 1"><g id="Calque_2-2" data-name="Calque 2"><g id="Calque_1-2-2" data-name="Calque 1-2"><path d="M81.11,82.26v71.3c0,6-3.58,10.15-9.49,11.06a22.73,22.73,0,0,1-3.39.26q-27.93,0-55.85,0a14.14,14.14,0,0,1-7.14-1.66c-3.63-2.06-4.94-5.42-5-9.38-.06-2.51,0-5,0-7.55q0-54.45,0-108.9c0-8.56,0-17.12,0-25.67A12.1,12.1,0,0,1,2.09,4.59,10.33,10.33,0,0,1,10.64.19C15.75,0,20.87,0,26,0q21.48,0,43,0a14.28,14.28,0,0,1,6.62,1.3c4,2,5.6,5.47,5.6,9.78q.05,19.16.06,38.33,0,16.43,0,32.86ZM2.61,147h76V18H4.23c-1.62,0-1.62,0-1.62,1.7V136.52C2.61,139.94,2.61,143.38,2.61,147Zm44.94,9a6.72,6.72,0,0,0-6.79-6.76,6.67,6.67,0,1,0-.2,13.33A6.74,6.74,0,0,0,47.56,156ZM40.74,9.89H46c.71,0,1.52,0,1.52-.94s-.8-.87-1.46-.87c-3.56,0-7.12,0-10.69,0-.69,0-1.48.07-1.37.91,0,.35.91.81,1.42.84C37.18,10,39,9.89,40.74,9.89ZM27.35,7.32h-.56c-.37.53-1,1-1.06,1.59-.13.83.52,1.32,1.36,1.38s1.66-.73,1.44-1.43A5.75,5.75,0,0,0,27.35,7.32Z"/></g></g><g id="Calque_2-3" data-name="Calque 2"><g id="Calque_1-2-3" data-name="Calque 1-2"><path d="M171.6,82.26v71.3c0,6-3.58,10.15-9.49,11.06a22.73,22.73,0,0,1-3.39.26q-27.93,0-55.85,0a14.14,14.14,0,0,1-7.14-1.66c-3.63-2.06-4.94-5.42-5-9.38-.06-2.51,0-5,0-7.55q0-54.45,0-108.9c0-8.56,0-17.12,0-25.67a12.1,12.1,0,0,1,1.89-7.18,10.33,10.33,0,0,1,8.55-4.4C106.24,0,111.35,0,116.47,0q21.48,0,43,0A14.28,14.28,0,0,1,166,1.3c4,2,5.6,5.47,5.6,9.78q.05,19.16.06,38.33,0,16.43,0,32.86ZM93.1,147h76V18H94.72c-1.62,0-1.62,0-1.62,1.7V136.52C93.1,139.94,93.1,143.38,93.1,147ZM138,156a6.72,6.72,0,0,0-6.79-6.76,6.67,6.67,0,1,0-.2,13.33A6.74,6.74,0,0,0,138,156ZM131.23,9.89h5.22c.71,0,1.52,0,1.52-.94s-.8-.87-1.46-.87c-3.56,0-7.12,0-10.69,0-.69,0-1.48.07-1.37.91,0,.35.91.81,1.42.84C127.67,10,129.45,9.89,131.23,9.89ZM117.84,7.32h-.56c-.37.53-1,1-1.06,1.59-.13.83.52,1.32,1.36,1.38s1.66-.73,1.44-1.43A5.75,5.75,0,0,0,117.84,7.32Z"/></g></g><g id="Calque_2-4" data-name="Calque 2"><g id="Calque_1-2-4" data-name="Calque 1-2"><path d="M262.39,82.26v71.3c0,6-3.58,10.15-9.49,11.06a22.73,22.73,0,0,1-3.39.26q-27.93,0-55.85,0a14.14,14.14,0,0,1-7.14-1.66c-3.63-2.06-4.94-5.42-5-9.38-.06-2.51,0-5,0-7.55q0-54.45,0-108.9c0-8.56,0-17.12,0-25.67a12.1,12.1,0,0,1,1.89-7.18,10.33,10.33,0,0,1,8.55-4.4C197,0,202.14,0,207.26,0q21.48,0,43,0a14.28,14.28,0,0,1,6.62,1.3c4,2,5.6,5.47,5.6,9.78q.05,19.16.06,38.33,0,16.43,0,32.86ZM183.89,147h76V18H185.51c-1.62,0-1.62,0-1.62,1.7V136.52C183.89,139.94,183.89,143.38,183.89,147Zm44.94,9A6.72,6.72,0,0,0,222,149.2a6.67,6.67,0,1,0-.2,13.33A6.74,6.74,0,0,0,228.84,156ZM222,9.89h5.22c.71,0,1.52,0,1.52-.94s-.8-.87-1.46-.87c-3.56,0-7.12,0-10.69,0-.69,0-1.48.07-1.37.91,0,.35.91.81,1.42.84C218.46,10,220.24,9.89,222,9.89ZM208.63,7.32h-.56c-.37.53-1,1-1.06,1.59-.13.83.52,1.32,1.36,1.38s1.66-.73,1.44-1.43A5.75,5.75,0,0,0,208.63,7.32Z"/></g></g><g id="Calque_2-5" data-name="Calque 2"><g id="Calque_1-2-5" data-name="Calque 1-2"><path d="M353.18,82.26v71.3c0,6-3.58,10.15-9.49,11.06a22.73,22.73,0,0,1-3.39.26q-27.93,0-55.85,0a14.14,14.14,0,0,1-7.14-1.66c-3.63-2.06-4.94-5.42-5-9.38-.06-2.51,0-5,0-7.55q0-54.45,0-108.9c0-8.56,0-17.12,0-25.67a12.1,12.1,0,0,1,1.89-7.18,10.33,10.33,0,0,1,8.55-4.4C287.82,0,292.93,0,298,0q21.48,0,43,0a14.28,14.28,0,0,1,6.62,1.3c4,2,5.6,5.47,5.6,9.78q.05,19.16.06,38.33,0,16.43,0,32.86ZM274.68,147h76V18H276.3c-1.62,0-1.62,0-1.62,1.7V136.52C274.68,139.94,274.68,143.38,274.68,147Zm44.94,9a6.72,6.72,0,0,0-6.79-6.76,6.67,6.67,0,1,0-.2,13.33A6.74,6.74,0,0,0,319.62,156ZM312.81,9.89H318c.71,0,1.52,0,1.52-.94s-.8-.87-1.46-.87c-3.56,0-7.12,0-10.69,0-.69,0-1.48.07-1.37.91,0,.35.91.81,1.42.84C309.25,10,311,9.89,312.81,9.89ZM299.42,7.32h-.56c-.37.53-1,1-1.06,1.59-.13.83.52,1.32,1.36,1.38s1.66-.73,1.44-1.43A5.75,5.75,0,0,0,299.42,7.32Z"/></g></g><g id="Calque_2-6" data-name="Calque 2"><g id="Calque_1-2-6" data-name="Calque 1-2"><path d="M444,82.26v71.3c0,6-3.58,10.15-9.49,11.06a22.73,22.73,0,0,1-3.39.26q-27.93,0-55.85,0a14.14,14.14,0,0,1-7.14-1.66c-3.63-2.06-4.94-5.42-5-9.38-.06-2.51,0-5,0-7.55q0-54.45,0-108.9c0-8.56,0-17.12,0-25.67a12.1,12.1,0,0,1,1.89-7.18A10.33,10.33,0,0,1,373.5.19C378.61,0,383.72,0,388.83,0q21.48,0,43,0a14.28,14.28,0,0,1,6.62,1.3c4,2,5.6,5.47,5.6,9.78q.05,19.16.06,38.33,0,16.43,0,32.86ZM365.47,147h76V18H367.09c-1.62,0-1.62,0-1.62,1.7V136.52C365.47,139.94,365.47,143.38,365.47,147Zm44.94,9a6.72,6.72,0,0,0-6.79-6.76,6.67,6.67,0,1,0-.2,13.33A6.74,6.74,0,0,0,410.41,156ZM403.6,9.89h5.22c.71,0,1.52,0,1.52-.94s-.8-.87-1.46-.87c-3.56,0-7.12,0-10.69,0-.69,0-1.48.07-1.37.91,0,.35.91.81,1.42.84C400,10,401.82,9.89,403.6,9.89ZM390.21,7.32h-.56c-.37.53-1,1-1.06,1.59-.13.83.52,1.32,1.36,1.38s1.66-.73,1.44-1.43A5.75,5.75,0,0,0,390.21,7.32Z"/></g></g><g id="Calque_2-7" data-name="Calque 2"><g id="Calque_1-2-7" data-name="Calque 1-2"><path d="M81,257.26v71.3c0,6-3.58,10.15-9.49,11.06a22.73,22.73,0,0,1-3.39.26q-27.93,0-55.85,0a14.14,14.14,0,0,1-7.14-1.66c-3.63-2.06-4.94-5.42-5-9.38-.06-2.51,0-5,0-7.55q0-54.45,0-108.9c0-8.56,0-17.12,0-25.67a12.1,12.1,0,0,1,1.89-7.18,10.33,10.33,0,0,1,8.55-4.4C15.6,175,20.72,175,25.83,175q21.48,0,43,0a14.28,14.28,0,0,1,6.62,1.3c4,2,5.6,5.47,5.6,9.78q.05,19.16.06,38.33,0,16.43,0,32.86ZM2.46,322h76V193H4.08c-1.62,0-1.62,0-1.62,1.7V311.52C2.46,314.94,2.46,318.38,2.46,322Zm44.94,9a6.72,6.72,0,0,0-6.79-6.76,6.67,6.67,0,1,0-.2,13.33A6.74,6.74,0,0,0,47.41,331ZM40.59,184.89h5.22c.71,0,1.52,0,1.52-.94s-.8-.87-1.46-.87c-3.56,0-7.12,0-10.69,0-.69,0-1.48.07-1.37.91,0,.35.91.81,1.42.84C37,185,38.81,184.89,40.59,184.89ZM27.2,182.32h-.56c-.37.53-1,1-1.06,1.59-.13.83.52,1.32,1.36,1.38s1.66-.73,1.44-1.43A5.75,5.75,0,0,0,27.2,182.32Z"/></g></g><g id="Calque_2-8" data-name="Calque 2"><g id="Calque_1-2-8" data-name="Calque 1-2"><path d="M171.45,257.26v71.3c0,6-3.58,10.15-9.49,11.06a22.73,22.73,0,0,1-3.39.26q-27.93,0-55.85,0a14.14,14.14,0,0,1-7.14-1.66c-3.63-2.06-4.94-5.42-5-9.38-.06-2.51,0-5,0-7.55q0-54.45,0-108.9c0-8.56,0-17.12,0-25.67a12.1,12.1,0,0,1,1.89-7.18,10.33,10.33,0,0,1,8.55-4.4c5.11-.19,10.22-.15,15.33-.16q21.48,0,43,0a14.28,14.28,0,0,1,6.62,1.3c4,2,5.6,5.47,5.6,9.78q.05,19.16.06,38.33,0,16.43,0,32.86ZM93,322h76V193H94.57c-1.62,0-1.62,0-1.62,1.7V311.52C93,314.94,93,318.38,93,322Zm44.94,9a6.72,6.72,0,0,0-6.79-6.76,6.67,6.67,0,1,0-.2,13.33A6.74,6.74,0,0,0,137.9,331Zm-6.82-146.07h5.22c.71,0,1.52,0,1.52-.94s-.8-.87-1.46-.87c-3.56,0-7.12,0-10.69,0-.69,0-1.48.07-1.37.91,0,.35.91.81,1.42.84C127.52,185,129.3,184.89,131.08,184.89Zm-13.39-2.57h-.56c-.37.53-1,1-1.06,1.59-.13.83.52,1.32,1.36,1.38s1.66-.73,1.44-1.43A5.75,5.75,0,0,0,117.69,182.32Z"/></g></g><g id="Calque_2-9" data-name="Calque 2"><g id="Calque_1-2-9" data-name="Calque 1-2"><path d="M262.24,257.26v71.3c0,6-3.58,10.15-9.49,11.06a22.73,22.73,0,0,1-3.39.26q-27.93,0-55.85,0a14.14,14.14,0,0,1-7.14-1.66c-3.63-2.06-4.94-5.42-5-9.38-.06-2.51,0-5,0-7.55q0-54.45,0-108.9c0-8.56,0-17.12,0-25.67a12.1,12.1,0,0,1,1.89-7.18,10.33,10.33,0,0,1,8.55-4.4c5.11-.19,10.22-.15,15.33-.16q21.48,0,43,0a14.28,14.28,0,0,1,6.62,1.3c4,2,5.6,5.47,5.6,9.78q.05,19.16.06,38.33,0,16.43,0,32.86ZM183.74,322h76V193H185.36c-1.62,0-1.62,0-1.62,1.7V311.52C183.74,314.94,183.74,318.38,183.74,322Zm44.94,9a6.72,6.72,0,0,0-6.79-6.76,6.67,6.67,0,1,0-.2,13.33A6.74,6.74,0,0,0,228.69,331Zm-6.82-146.07h5.22c.71,0,1.52,0,1.52-.94s-.8-.87-1.46-.87c-3.56,0-7.12,0-10.69,0-.69,0-1.48.07-1.37.91,0,.35.91.81,1.42.84C218.31,185,220.09,184.89,221.87,184.89Zm-13.39-2.57h-.56c-.37.53-1,1-1.06,1.59-.13.83.52,1.32,1.36,1.38s1.66-.73,1.44-1.43A5.75,5.75,0,0,0,208.48,182.32Z"/></g></g><g id="Calque_2-10" data-name="Calque 2"><g id="Calque_1-2-10" data-name="Calque 1-2"><path d="M353,257.26v71.3c0,6-3.58,10.15-9.49,11.06a22.73,22.73,0,0,1-3.39.26q-27.93,0-55.85,0a14.14,14.14,0,0,1-7.14-1.66c-3.63-2.06-4.94-5.42-5-9.38-.06-2.51,0-5,0-7.55q0-54.45,0-108.9c0-8.56,0-17.12,0-25.67a12.1,12.1,0,0,1,1.89-7.18,10.33,10.33,0,0,1,8.55-4.4c5.11-.19,10.22-.15,15.33-.16q21.48,0,43,0a14.28,14.28,0,0,1,6.62,1.3c4,2,5.6,5.47,5.6,9.78q.05,19.16.06,38.33,0,16.43,0,32.86ZM274.53,322h76V193H276.15c-1.62,0-1.62,0-1.62,1.7V311.52C274.53,314.94,274.53,318.38,274.53,322Zm44.94,9a6.72,6.72,0,0,0-6.79-6.76,6.67,6.67,0,1,0-.2,13.33A6.74,6.74,0,0,0,319.47,331Zm-6.82-146.07h5.22c.71,0,1.52,0,1.52-.94s-.8-.87-1.46-.87c-3.56,0-7.12,0-10.69,0-.69,0-1.48.07-1.37.91,0,.35.91.81,1.42.84C309.1,185,310.88,184.89,312.66,184.89Zm-13.39-2.57h-.56c-.37.53-1,1-1.06,1.59-.13.83.52,1.32,1.36,1.38s1.66-.73,1.44-1.43A5.75,5.75,0,0,0,299.27,182.32Z"/></g></g><g id="Calque_2-11" data-name="Calque 2"><g id="Calque_1-2-11" data-name="Calque 1-2"><path d="M443.81,257.26v71.3c0,6-3.58,10.15-9.49,11.06a22.73,22.73,0,0,1-3.39.26q-27.93,0-55.85,0a14.14,14.14,0,0,1-7.14-1.66c-3.63-2.06-4.94-5.42-5-9.38-.06-2.51,0-5,0-7.55q0-54.45,0-108.9c0-8.56,0-17.12,0-25.67a12.1,12.1,0,0,1,1.89-7.18,10.33,10.33,0,0,1,8.55-4.4c5.11-.19,10.22-.15,15.33-.16q21.48,0,43,0a14.28,14.28,0,0,1,6.62,1.3c4,2,5.6,5.47,5.6,9.78q.05,19.16.06,38.33,0,16.43,0,32.86ZM365.32,322h76V193H366.94c-1.62,0-1.62,0-1.62,1.7V311.52C365.32,314.94,365.32,318.38,365.32,322Zm44.94,9a6.72,6.72,0,0,0-6.79-6.76,6.67,6.67,0,1,0-.2,13.33A6.74,6.74,0,0,0,410.26,331Zm-6.82-146.07h5.22c.71,0,1.52,0,1.52-.94s-.8-.87-1.46-.87c-3.56,0-7.12,0-10.69,0-.69,0-1.48.07-1.37.91,0,.35.91.81,1.42.84C399.89,185,401.67,184.89,403.45,184.89Zm-13.39-2.57h-.56c-.37.53-1,1-1.06,1.59-.13.83.52,1.32,1.36,1.38s1.66-.73,1.44-1.43A5.75,5.75,0,0,0,390.06,182.32Z"/></g></g><g id="Calque_2-12" data-name="Calque 2"><g id="Calque_1-2-12" data-name="Calque 1-2"><path d="M81,432.26v71.3c0,6-3.58,10.15-9.49,11.06a22.73,22.73,0,0,1-3.39.26q-27.93,0-55.85,0a14.14,14.14,0,0,1-7.14-1.66c-3.63-2.06-4.94-5.42-5-9.38-.06-2.51,0-5,0-7.55q0-54.45,0-108.9c0-8.56,0-17.12,0-25.67a12.1,12.1,0,0,1,1.89-7.18,10.33,10.33,0,0,1,8.55-4.4C15.6,350,20.72,350,25.83,350q21.48,0,43,0a14.28,14.28,0,0,1,6.62,1.3c4,2,5.6,5.47,5.6,9.78q.05,19.16.06,38.33,0,16.43,0,32.86ZM2.46,497h76V368H4.08c-1.62,0-1.62,0-1.62,1.7V486.52C2.46,489.94,2.46,493.38,2.46,497Zm44.94,9a6.72,6.72,0,0,0-6.79-6.76,6.67,6.67,0,1,0-.2,13.33A6.74,6.74,0,0,0,47.41,506ZM40.59,359.89h5.22c.71,0,1.52,0,1.52-.94s-.8-.87-1.46-.87c-3.56,0-7.12,0-10.69,0-.69,0-1.48.07-1.37.91,0,.35.91.81,1.42.84C37,360,38.81,359.89,40.59,359.89ZM27.2,357.32h-.56c-.37.53-1,1-1.06,1.59-.13.83.52,1.32,1.36,1.38s1.66-.73,1.44-1.43A5.75,5.75,0,0,0,27.2,357.32Z"/></g></g><g id="Calque_2-13" data-name="Calque 2"><g id="Calque_1-2-13" data-name="Calque 1-2"><path d="M171.45,432.26v71.3c0,6-3.58,10.15-9.49,11.06a22.73,22.73,0,0,1-3.39.26q-27.93,0-55.85,0a14.14,14.14,0,0,1-7.14-1.66c-3.63-2.06-4.94-5.42-5-9.38-.06-2.51,0-5,0-7.55q0-54.45,0-108.9c0-8.56,0-17.12,0-25.67a12.1,12.1,0,0,1,1.89-7.18,10.33,10.33,0,0,1,8.55-4.4c5.11-.19,10.22-.15,15.33-.16q21.48,0,43,0a14.28,14.28,0,0,1,6.62,1.3c4,2,5.6,5.47,5.6,9.78q.05,19.16.06,38.33,0,16.43,0,32.86ZM93,497h76V368H94.57c-1.62,0-1.62,0-1.62,1.7V486.52C93,489.94,93,493.38,93,497Zm44.94,9a6.72,6.72,0,0,0-6.79-6.76,6.67,6.67,0,1,0-.2,13.33A6.74,6.74,0,0,0,137.9,506Zm-6.82-146.07h5.22c.71,0,1.52,0,1.52-.94s-.8-.87-1.46-.87c-3.56,0-7.12,0-10.69,0-.69,0-1.48.07-1.37.91,0,.35.91.81,1.42.84C127.52,360,129.3,359.89,131.08,359.89Zm-13.39-2.57h-.56c-.37.53-1,1-1.06,1.59-.13.83.52,1.32,1.36,1.38s1.66-.73,1.44-1.43A5.75,5.75,0,0,0,117.69,357.32Z"/></g></g><g id="Calque_2-14" data-name="Calque 2"><g id="Calque_1-2-14" data-name="Calque 1-2"><path d="M262.24,432.26v71.3c0,6-3.58,10.15-9.49,11.06a22.73,22.73,0,0,1-3.39.26q-27.93,0-55.85,0a14.14,14.14,0,0,1-7.14-1.66c-3.63-2.06-4.94-5.42-5-9.38-.06-2.51,0-5,0-7.55q0-54.45,0-108.9c0-8.56,0-17.12,0-25.67a12.1,12.1,0,0,1,1.89-7.18,10.33,10.33,0,0,1,8.55-4.4c5.11-.19,10.22-.15,15.33-.16q21.48,0,43,0a14.28,14.28,0,0,1,6.62,1.3c4,2,5.6,5.47,5.6,9.78q.05,19.16.06,38.33,0,16.43,0,32.86ZM183.74,497h76V368H185.36c-1.62,0-1.62,0-1.62,1.7V486.52C183.74,489.94,183.74,493.38,183.74,497Zm44.94,9a6.72,6.72,0,0,0-6.79-6.76,6.67,6.67,0,1,0-.2,13.33A6.74,6.74,0,0,0,228.69,506Zm-6.82-146.07h5.22c.71,0,1.52,0,1.52-.94s-.8-.87-1.46-.87c-3.56,0-7.12,0-10.69,0-.69,0-1.48.07-1.37.91,0,.35.91.81,1.42.84C218.31,360,220.09,359.89,221.87,359.89Zm-13.39-2.57h-.56c-.37.53-1,1-1.06,1.59-.13.83.52,1.32,1.36,1.38s1.66-.73,1.44-1.43A5.75,5.75,0,0,0,208.48,357.32Z"/></g></g><g id="Calque_2-15" data-name="Calque 2"><g id="Calque_1-2-15" data-name="Calque 1-2"><path d="M353,432.26v71.3c0,6-3.58,10.15-9.49,11.06a22.73,22.73,0,0,1-3.39.26q-27.93,0-55.85,0a14.14,14.14,0,0,1-7.14-1.66c-3.63-2.06-4.94-5.42-5-9.38-.06-2.51,0-5,0-7.55q0-54.45,0-108.9c0-8.56,0-17.12,0-25.67a12.1,12.1,0,0,1,1.89-7.18,10.33,10.33,0,0,1,8.55-4.4c5.11-.19,10.22-.15,15.33-.16q21.48,0,43,0a14.28,14.28,0,0,1,6.62,1.3c4,2,5.6,5.47,5.6,9.78q.05,19.16.06,38.33,0,16.43,0,32.86ZM274.53,497h76V368H276.15c-1.62,0-1.62,0-1.62,1.7V486.52C274.53,489.94,274.53,493.38,274.53,497Zm44.94,9a6.72,6.72,0,0,0-6.79-6.76,6.67,6.67,0,1,0-.2,13.33A6.74,6.74,0,0,0,319.47,506Zm-6.82-146.07h5.22c.71,0,1.52,0,1.52-.94s-.8-.87-1.46-.87c-3.56,0-7.12,0-10.69,0-.69,0-1.48.07-1.37.91,0,.35.91.81,1.42.84C309.1,360,310.88,359.89,312.66,359.89Zm-13.39-2.57h-.56c-.37.53-1,1-1.06,1.59-.13.83.52,1.32,1.36,1.38s1.66-.73,1.44-1.43A5.75,5.75,0,0,0,299.27,357.32Z"/></g></g><g id="Calque_2-16" data-name="Calque 2"><g id="Calque_1-2-16" data-name="Calque 1-2"><path d="M443.81,432.26v71.3c0,6-3.58,10.15-9.49,11.06a22.73,22.73,0,0,1-3.39.26q-27.93,0-55.85,0a14.14,14.14,0,0,1-7.14-1.66c-3.63-2.06-4.94-5.42-5-9.38-.06-2.51,0-5,0-7.55q0-54.45,0-108.9c0-8.56,0-17.12,0-25.67a12.1,12.1,0,0,1,1.89-7.18,10.33,10.33,0,0,1,8.55-4.4c5.11-.19,10.22-.15,15.33-.16q21.48,0,43,0a14.28,14.28,0,0,1,6.62,1.3c4,2,5.6,5.47,5.6,9.78q.05,19.16.06,38.33,0,16.43,0,32.86ZM365.32,497h76V368H366.94c-1.62,0-1.62,0-1.62,1.7V486.52C365.32,489.94,365.32,493.38,365.32,497Zm44.94,9a6.72,6.72,0,0,0-6.79-6.76,6.67,6.67,0,1,0-.2,13.33A6.74,6.74,0,0,0,410.26,506Zm-6.82-146.07h5.22c.71,0,1.52,0,1.52-.94s-.8-.87-1.46-.87c-3.56,0-7.12,0-10.69,0-.69,0-1.48.07-1.37.91,0,.35.91.81,1.42.84C399.89,360,401.67,359.89,403.45,359.89Zm-13.39-2.57h-.56c-.37.53-1,1-1.06,1.59-.13.83.52,1.32,1.36,1.38s1.66-.73,1.44-1.43A5.75,5.75,0,0,0,390.06,357.32Z"/></g></g><g id="Calque_2-17" data-name="Calque 2"><g id="Calque_1-2-17" data-name="Calque 1-2"><path d="M534.9,82.26v71.3c0,6-3.58,10.15-9.49,11.06a22.73,22.73,0,0,1-3.39.26q-27.93,0-55.85,0a14.14,14.14,0,0,1-7.14-1.66c-3.63-2.06-4.94-5.42-5-9.38-.06-2.51,0-5,0-7.55q0-54.45,0-108.9c0-8.56,0-17.12,0-25.67a12.1,12.1,0,0,1,1.89-7.18,10.33,10.33,0,0,1,8.55-4.4C469.55,0,474.66,0,479.77,0q21.48,0,43,0a14.28,14.28,0,0,1,6.62,1.3c4,2,5.6,5.47,5.6,9.78Q535,30.24,535,49.4q0,16.43,0,32.86ZM456.41,147h76V18H458c-1.62,0-1.62,0-1.62,1.7V136.52C456.41,139.94,456.41,143.38,456.41,147Zm44.94,9a6.72,6.72,0,0,0-6.79-6.76,6.67,6.67,0,1,0-.2,13.33A6.74,6.74,0,0,0,501.35,156ZM494.54,9.89h5.22c.71,0,1.52,0,1.52-.94s-.8-.87-1.46-.87c-3.56,0-7.12,0-10.69,0-.69,0-1.48.07-1.37.91,0,.35.91.81,1.42.84C491,10,492.76,9.89,494.54,9.89ZM481.15,7.32h-.56c-.37.53-1,1-1.06,1.59-.13.83.52,1.32,1.36,1.38s1.66-.73,1.44-1.43A5.75,5.75,0,0,0,481.15,7.32Z"/></g></g><g id="Calque_2-18" data-name="Calque 2"><g id="Calque_1-2-18" data-name="Calque 1-2"><path d="M534.75,257.26v71.3c0,6-3.58,10.15-9.49,11.06a22.73,22.73,0,0,1-3.39.26q-27.93,0-55.85,0a14.14,14.14,0,0,1-7.14-1.66c-3.63-2.06-4.94-5.42-5-9.38-.06-2.51,0-5,0-7.55q0-54.45,0-108.9c0-8.56,0-17.12,0-25.67a12.1,12.1,0,0,1,1.89-7.18,10.33,10.33,0,0,1,8.55-4.4c5.11-.19,10.22-.15,15.33-.16q21.48,0,43,0a14.28,14.28,0,0,1,6.62,1.3c4,2,5.6,5.47,5.6,9.78q.05,19.16.06,38.33,0,16.43,0,32.86ZM456.26,322h76V193H457.88c-1.62,0-1.62,0-1.62,1.7V311.52C456.26,314.94,456.26,318.38,456.26,322Zm44.94,9a6.72,6.72,0,0,0-6.79-6.76,6.67,6.67,0,1,0-.2,13.33A6.74,6.74,0,0,0,501.2,331Zm-6.82-146.07h5.22c.71,0,1.52,0,1.52-.94s-.8-.87-1.46-.87c-3.56,0-7.12,0-10.69,0-.69,0-1.48.07-1.37.91,0,.35.91.81,1.42.84C490.82,185,492.61,184.89,494.39,184.89ZM481,182.32h-.56c-.37.53-1,1-1.06,1.59-.13.83.52,1.32,1.36,1.38s1.66-.73,1.44-1.43A5.75,5.75,0,0,0,481,182.32Z"/></g></g><g id="Calque_2-19" data-name="Calque 2"><g id="Calque_1-2-19" data-name="Calque 1-2"><path d="M534.75,432.26v71.3c0,6-3.58,10.15-9.49,11.06a22.73,22.73,0,0,1-3.39.26q-27.93,0-55.85,0a14.14,14.14,0,0,1-7.14-1.66c-3.63-2.06-4.94-5.42-5-9.38-.06-2.51,0-5,0-7.55q0-54.45,0-108.9c0-8.56,0-17.12,0-25.67a12.1,12.1,0,0,1,1.89-7.18,10.33,10.33,0,0,1,8.55-4.4c5.11-.19,10.22-.15,15.33-.16q21.48,0,43,0a14.28,14.28,0,0,1,6.62,1.3c4,2,5.6,5.47,5.6,9.78q.05,19.16.06,38.33,0,16.43,0,32.86ZM456.26,497h76V368H457.88c-1.62,0-1.62,0-1.62,1.7V486.52C456.26,489.94,456.26,493.38,456.26,497Zm44.94,9a6.72,6.72,0,0,0-6.79-6.76,6.67,6.67,0,1,0-.2,13.33A6.74,6.74,0,0,0,501.2,506Zm-6.82-146.07h5.22c.71,0,1.52,0,1.52-.94s-.8-.87-1.46-.87c-3.56,0-7.12,0-10.69,0-.69,0-1.48.07-1.37.91,0,.35.91.81,1.42.84C490.82,360,492.61,359.89,494.39,359.89ZM481,357.32h-.56c-.37.53-1,1-1.06,1.59-.13.83.52,1.32,1.36,1.38s1.66-.73,1.44-1.43A5.75,5.75,0,0,0,481,357.32Z"/></g></g><g id="Calque_2-20" data-name="Calque 2"><g id="Calque_1-2-20" data-name="Calque 1-2"><path d="M625.84,82.26v71.3c0,6-3.58,10.15-9.49,11.06a22.73,22.73,0,0,1-3.39.26q-27.93,0-55.85,0a14.14,14.14,0,0,1-7.14-1.66c-3.63-2.06-4.94-5.42-5-9.38-.06-2.51,0-5,0-7.55q0-54.45,0-108.9c0-8.56,0-17.12,0-25.67a12.1,12.1,0,0,1,1.89-7.18,10.33,10.33,0,0,1,8.55-4.4C560.49,0,565.6,0,570.71,0q21.48,0,43,0a14.28,14.28,0,0,1,6.62,1.3c4,2,5.6,5.47,5.6,9.78q.05,19.16.06,38.33,0,16.43,0,32.86ZM547.35,147h76V18H549c-1.62,0-1.62,0-1.62,1.7V136.52C547.35,139.94,547.35,143.38,547.35,147Zm44.94,9a6.72,6.72,0,0,0-6.79-6.76,6.67,6.67,0,1,0-.2,13.33A6.74,6.74,0,0,0,592.29,156ZM585.48,9.89h5.22c.71,0,1.52,0,1.52-.94s-.8-.87-1.46-.87c-3.56,0-7.12,0-10.69,0-.69,0-1.48.07-1.37.91,0,.35.91.81,1.42.84C581.91,10,583.7,9.89,585.48,9.89ZM572.09,7.32h-.56c-.37.53-1,1-1.06,1.59-.13.83.52,1.32,1.36,1.38s1.66-.73,1.44-1.43A5.75,5.75,0,0,0,572.09,7.32Z"/></g></g><g id="Calque_2-21" data-name="Calque 2"><g id="Calque_1-2-21" data-name="Calque 1-2"><path d="M625.69,257.26v71.3c0,6-3.58,10.15-9.49,11.06a22.73,22.73,0,0,1-3.39.26q-27.93,0-55.85,0a14.14,14.14,0,0,1-7.14-1.66c-3.63-2.06-4.94-5.42-5-9.38-.06-2.51,0-5,0-7.55q0-54.45,0-108.9c0-8.56,0-17.12,0-25.67a12.1,12.1,0,0,1,1.89-7.18,10.33,10.33,0,0,1,8.55-4.4c5.11-.19,10.22-.15,15.33-.16q21.48,0,43,0a14.28,14.28,0,0,1,6.62,1.3c4,2,5.6,5.47,5.6,9.78q.05,19.16.06,38.33,0,16.43,0,32.86ZM547.2,322h76V193H548.82c-1.62,0-1.62,0-1.62,1.7V311.52C547.2,314.94,547.2,318.38,547.2,322Zm44.94,9a6.72,6.72,0,0,0-6.79-6.76,6.67,6.67,0,1,0-.2,13.33A6.74,6.74,0,0,0,592.14,331Zm-6.82-146.07h5.22c.71,0,1.52,0,1.52-.94s-.8-.87-1.46-.87c-3.56,0-7.12,0-10.69,0-.69,0-1.48.07-1.37.91,0,.35.91.81,1.42.84C581.76,185,583.55,184.89,585.33,184.89Zm-13.39-2.57h-.56c-.37.53-1,1-1.06,1.59-.13.83.52,1.32,1.36,1.38s1.66-.73,1.44-1.43A5.75,5.75,0,0,0,571.94,182.32Z"/></g></g></g></g></svg>