<svg xmlns="http://www.w3.org/2000/svg" viewBox="-60 -130 400 400"><defs><style>.cls-1{fill:#80888e;}.cls-2{fill:#b6bbc1;}.cls-3{fill:#d4e9f4;}</style></defs><title>Fichier 1</title><g id="Calque_2" data-name="Calque 2"><g id="Calque_1-2" data-name="Calque 1"><rect class="cls-1" y="108.21" width="9.4" height="6.98"/><path class="cls-2" d="M284.81,123.65H8.88V64.82c0-34.88,0-57.75.61-58.6C13.88-.06,34.82.23,45,0c22.4-.4,95.19,1.61,129.7,7.89,7.82,1.42,18.69,11.84,19.26,12.3,0,0,14.09,15.45,19.35,24.63l4.8,8.37c9,12,11.9,10.91,25.87,16.34l28,10.9a2,2,0,0,0,.66.13A12.53,12.53,0,0,1,284.81,93.1Z"/><rect class="cls-1" x="4.7" y="117.41" width="283.23" height="24.56" rx="9.25" ry="9.25"/><path class="cls-1" d="M100,153.68a34.2,34.2,0,1,0-68.39,0c0,.37,0,.73.06,1.1H100C100,154.41,100,154.05,100,153.68Z"/><circle class="cls-2" cx="65.84" cy="155.88" r="27.58"/><path class="cls-1" d="M247.5,153.65a33.8,33.8,0,1,0-67.59,0c0,.37,0,.73.06,1.09h67.48C247.45,154.38,247.5,154,247.5,153.65Z"/><circle class="cls-2" cx="213.7" cy="155.83" r="27.25"/><circle class="cls-1" cx="213.7" cy="155.83" r="19.62"/><ellipse class="cls-1" cx="276.33" cy="88.75" rx="6.69" ry="9.95" transform="translate(18.18 221.39) rotate(-45)"/><path class="cls-3" d="M132.17,58.85a3.43,3.43,0,0,1-3.43-3.43s-1.89-41.71,0-41.71L154.82,15c10.35,0,20.63,5.86,27.82,13.3s11.52,16.26,14.68,23.78c1.48,3.53-.41,6.48-4.23,6.57C177.83,59,132.17,58.85,132.17,58.85Z"/><rect class="cls-1" x="79.16" y="88.75" width="128.42" height="7.13" rx="3.42" ry="3.42"/><path class="cls-1" d="M100.25,58.86a3.43,3.43,0,0,0,3.43-3.43s1.89-41.71,0-41.71H34.58c-10.35,0-9.68,45.14.91,44.85C50.75,58.15,100.25,58.86,100.25,58.86Z"/><circle class="cls-1" cx="65.84" cy="155.88" r="19.86"/></g></g></svg>